<svg width="47" height="59" viewBox="0 0 47 59" fill="none" xmlns="http://www.w3.org/2000/svg">
<g id="Group 54">
<path id="Rectangle 288" d="M2.10334 28.9414H45.549C45.549 28.9414 46.8858 44.4677 42.8755 50.0572C38.8652 55.6466 30.1752 53.7835 27.5017 55.6466C24.8281 57.5098 24.1598 58.7519 24.1598 58.7519C24.1598 58.7519 24.1598 56.7352 20.8179 55.6466C17.476 54.558 10.7922 55.6466 6.11349 50.0572C1.43482 44.4677 2.10334 28.9414 2.10334 28.9414Z" fill="#F15A25"/>
<path id="Rectangle 289" d="M6.74858 10.3082C16.1042 5.33977 20.7846 6.58187 20.7846 6.58187C20.7846 6.58187 21.5656 4.70914 21.4547 3.47661C21.3376 2.17482 20.7864 0.992408 20.1162 0.371357C19.446 -0.249695 21.4547 -0.249383 23.4599 1.61346C25.465 3.4763 28.1368 6.58187 28.1368 6.58187C28.1368 6.58187 32.1453 5.96082 40.1676 10.3082C48.19 14.6555 47.5186 26.4556 46.1836 26.4553C44.8487 26.455 2.74007 27.0762 1.40329 26.4553C0.0665161 25.8345 -2.607 15.2766 6.74858 10.3082Z" fill="#F15A25"/>
</g>
</svg>
