<svg width="48" height="49" viewBox="0 0 48 49" fill="none" xmlns="http://www.w3.org/2000/svg">
<path d="M44.799 21.4877C45.6168 19.4858 45.8901 17.3031 45.5911 15.1614C45.2921 13.0197 44.4315 10.9953 43.0968 9.2939C41.762 7.59251 40.0007 6.27476 37.9917 5.47457C35.9827 4.67438 33.7977 4.42025 31.6587 4.73802C30.3331 3.03049 28.5793 1.70415 26.5753 0.89365C24.5713 0.0831541 22.3885 -0.182625 20.2486 0.123299C18.1087 0.429223 16.0879 1.29596 14.3913 2.63549C12.6946 3.97502 11.3827 5.73966 10.5887 7.75021C8.44609 8.04349 6.41933 8.89874 4.71436 10.2291C3.00938 11.5594 1.68696 13.3173 0.881468 15.3243C0.0759769 17.3312 -0.18387 19.5156 0.128333 21.6555C0.440535 23.7954 1.31366 25.8146 2.65898 27.5077C2.00248 29.1165 1.69576 30.8466 1.75918 32.5831C1.82261 34.3195 2.25472 36.0226 3.02684 37.5793C3.79896 39.1359 4.8934 40.5105 6.23751 41.6117C7.58161 42.713 9.14462 43.5156 10.8227 43.9665C11.8629 44.2512 12.9359 44.3982 14.0143 44.404C14.6125 44.4032 15.2098 44.3586 15.8015 44.2705C17.1273 45.9774 18.8812 47.3032 20.885 48.1132C22.8889 48.9232 25.0713 49.1886 27.2109 48.8824C29.3505 48.5763 31.371 47.7095 33.0673 46.3701C34.7636 45.0307 36.0753 43.2664 36.8693 41.2561C39.0119 40.9629 41.0386 40.1076 42.7436 38.7773C44.4486 37.447 45.771 35.689 46.5765 33.6821C47.382 31.6751 47.6418 29.4907 47.3296 27.3508C47.0174 25.2109 46.1443 23.1918 44.799 21.4986V21.4877ZM35.7274 8.40427C37.9326 8.99376 39.8201 10.4216 40.9873 12.3833C42.1545 14.3449 42.5089 16.685 41.9749 18.9043C41.7672 18.7652 41.5549 18.6331 41.3384 18.5083L31.604 12.8777C31.3379 12.7241 31.0362 12.6433 30.729 12.6433C30.4218 12.6433 30.12 12.7241 29.854 12.8777L20.229 18.4361V14.3936L29.0884 9.27927C30.0823 8.70197 31.1807 8.3274 32.3203 8.17721C33.4599 8.02702 34.6179 8.10419 35.7274 8.40427ZM27.229 26.519L23.729 28.5402L20.229 26.519V22.4765L23.729 20.4552L27.229 22.4765V26.519ZM13.229 12.2477C13.2298 10.5371 13.732 8.86422 14.6735 7.436C15.615 6.00778 16.9545 4.88686 18.5263 4.21186C20.0981 3.53686 21.8333 3.33739 23.5173 3.63813C25.2013 3.93887 26.7602 4.72662 28.0012 5.90396C27.7824 6.01552 27.5637 6.12271 27.3449 6.25833L17.604 11.8693C17.3382 12.0227 17.1175 12.2433 16.9639 12.509C16.8103 12.7747 16.7293 13.0761 16.729 13.383V24.4977L13.229 22.4765V12.2477ZM4.6671 15.5136C5.78209 13.5691 7.60492 12.1303 9.75523 11.4974C9.73882 11.7472 9.73006 11.9974 9.72898 12.2477V23.4871C9.72891 23.7943 9.80974 24.0962 9.96334 24.3623C10.1169 24.6284 10.3379 24.8494 10.604 25.003L20.229 30.5593L16.729 32.5915L7.8696 27.4661C5.85997 26.3058 4.39357 24.3946 3.79299 22.1531C3.19241 19.9116 3.50683 17.5233 4.6671 15.5136ZM11.7305 40.5911C9.52537 40.0017 7.63785 38.5738 6.47067 36.6121C5.3035 34.6505 4.94909 32.3104 5.48304 30.0911C5.69085 30.229 5.90085 30.3624 6.1196 30.4871L15.854 36.1177C16.12 36.2713 16.4218 36.3522 16.729 36.3522C17.0362 36.3522 17.3379 36.2713 17.604 36.1177L27.229 30.5593V34.6018L18.3696 39.7161C17.3757 40.2934 16.2772 40.668 15.1377 40.8182C13.9981 40.9684 12.8401 40.8912 11.7305 40.5911ZM34.229 36.7477C34.2299 38.4588 33.7291 40.1327 32.7885 41.5621C31.848 42.9915 30.5089 44.1138 28.9371 44.7901C27.3653 45.4663 25.6297 45.6669 23.9451 45.3669C22.2605 45.067 20.7008 44.2796 19.459 43.1024C19.6777 42.9908 19.8965 42.8727 20.1152 42.7458L29.854 37.1261C30.1197 36.9727 30.3405 36.7521 30.4941 36.4864C30.6477 36.2207 30.7287 35.9193 30.729 35.6124V24.4977L34.229 26.519V36.7477ZM42.7909 33.4818C41.6759 35.4263 39.853 36.8651 37.7027 37.498C37.718 37.2486 37.729 36.9993 37.729 36.7477V25.5083C37.729 25.2011 37.6482 24.8992 37.4946 24.6331C37.341 24.367 37.1201 24.146 36.854 23.9924L27.229 18.4361L30.729 16.4149L39.5884 21.5293C41.598 22.6896 43.0644 24.6008 43.665 26.8423C44.2656 29.0838 43.9511 31.4721 42.7909 33.4818Z" fill="white"/>
</svg>
