<svg width="51" height="51" viewBox="0 0 51 51" fill="none" xmlns="http://www.w3.org/2000/svg">
<path fill-rule="evenodd" clip-rule="evenodd" d="M33.1203 5.8586C33.9172 5.06185 34.9981 4.61426 36.125 4.61426C37.2519 4.61426 38.3328 5.06185 39.1297 5.8586L45.1414 11.8702C45.9381 12.6672 46.3857 13.748 46.3857 14.875C46.3857 16.0019 45.9381 17.0827 45.1414 17.8797L39.1297 23.8914C38.3328 24.6881 37.2519 25.1357 36.125 25.1357C34.9981 25.1357 33.9172 24.6881 33.1203 23.8914L27.1086 17.8797C26.3119 17.0827 25.8643 16.0019 25.8643 14.875C25.8643 13.748 26.3119 12.6672 27.1086 11.8702L33.1203 5.8586ZM36.125 8.86548L30.1155 14.875L36.125 20.8845L42.1345 14.875L36.125 8.86548ZM19.125 6.37498C20.2522 6.37498 21.3332 6.82274 22.1302 7.61977C22.9272 8.4168 23.375 9.49781 23.375 10.625V19.125C23.375 20.2521 22.9272 21.3331 22.1302 22.1302C21.3332 22.9272 20.2522 23.375 19.125 23.375H10.625C9.49783 23.375 8.41683 22.9272 7.6198 22.1302C6.82277 21.3331 6.375 20.2521 6.375 19.125V10.625C6.375 9.49781 6.82277 8.4168 7.6198 7.61977C8.41683 6.82274 9.49783 6.37498 10.625 6.37498H19.125ZM19.125 10.625H10.625V19.125H19.125V10.625ZM44.625 31.875C44.625 30.7478 44.1772 29.6668 43.3802 28.8698C42.5832 28.0727 41.5022 27.625 40.375 27.625H31.875C30.7478 27.625 29.6668 28.0727 28.8698 28.8698C28.0728 29.6668 27.625 30.7478 27.625 31.875V40.375C27.625 41.5021 28.0728 42.5831 28.8698 43.3802C29.6668 44.1772 30.7478 44.625 31.875 44.625H40.375C41.5022 44.625 42.5832 44.1772 43.3802 43.3802C44.1772 42.5831 44.625 41.5021 44.625 40.375V31.875ZM40.375 31.875V40.375H31.875V31.875H40.375ZM19.125 27.625C20.2522 27.625 21.3332 28.0727 22.1302 28.8698C22.9272 29.6668 23.375 30.7478 23.375 31.875V40.375C23.375 41.5021 22.9272 42.5831 22.1302 43.3802C21.3332 44.1772 20.2522 44.625 19.125 44.625H10.625C9.49783 44.625 8.41683 44.1772 7.6198 43.3802C6.82277 42.5831 6.375 41.5021 6.375 40.375V31.875C6.375 30.7478 6.82277 29.6668 7.6198 28.8698C8.41683 28.0727 9.49783 27.625 10.625 27.625H19.125ZM19.125 31.875H10.625V40.375H19.125V31.875Z" fill="white"/>
</svg>
