<svg width="68" height="111" viewBox="0 0 68 111" fill="none" xmlns="http://www.w3.org/2000/svg">
<g clip-path="url(#clip0_2437_1044)">
<path fill-rule="evenodd" clip-rule="evenodd" d="M35.5161 43.8975C34.992 44.4214 34.2812 44.7158 33.5401 44.7158C32.799 44.7158 32.0882 44.4214 31.564 43.8975L15.7529 28.0864C15.486 27.8285 15.2731 27.5201 15.1266 27.1791C14.9801 26.8381 14.903 26.4714 14.8998 26.1003C14.8965 25.7291 14.9673 25.3611 15.1078 25.0176C15.2483 24.6741 15.4559 24.3621 15.7183 24.0996C15.9807 23.8372 16.2928 23.6297 16.6363 23.4891C16.9798 23.3486 17.3478 23.2779 17.7189 23.2811C18.09 23.2843 18.4568 23.3614 18.7978 23.5079C19.1388 23.6544 19.4472 23.8673 19.705 24.1343L33.5401 37.9693L47.3752 24.1343C47.9023 23.6251 48.6083 23.3434 49.3411 23.3498C50.074 23.3562 50.775 23.6501 51.2932 24.1683C51.8114 24.6865 52.1053 25.3875 52.1117 26.1204C52.1181 26.8532 51.8364 27.5592 51.3272 28.0864L35.5161 43.8975Z" fill="white"/>
</g>
<g clip-path="url(#clip1_2437_1044)">
<path fill-rule="evenodd" clip-rule="evenodd" d="M35.5161 71.0503C34.992 71.5743 34.2812 71.8686 33.5401 71.8686C32.799 71.8686 32.0882 71.5743 31.564 71.0503L15.7529 55.2392C15.486 54.9814 15.2731 54.673 15.1266 54.332C14.9801 53.991 14.903 53.6242 14.8998 53.2531C14.8965 52.882 14.9673 52.5139 15.1078 52.1704C15.2483 51.827 15.4559 51.5149 15.7183 51.2525C15.9807 50.99 16.2928 50.7825 16.6363 50.642C16.9798 50.5014 17.3478 50.4307 17.7189 50.4339C18.09 50.4372 18.4568 50.5143 18.7978 50.6608C19.1388 50.8072 19.4472 51.0202 19.705 51.2871L33.5401 65.1222L47.3752 51.2871C47.9023 50.778 48.6083 50.4963 49.3411 50.5026C50.074 50.509 50.775 50.8029 51.2932 51.3212C51.8114 51.8394 52.1053 52.5404 52.1117 53.2732C52.1181 54.006 51.8364 54.7121 51.3272 55.2392L35.5161 71.0503Z" fill="white"/>
</g>
<path fill-rule="evenodd" clip-rule="evenodd" d="M35.5165 98.1997C34.9924 98.7237 34.2816 99.018 33.5404 99.018C32.7993 99.018 32.0885 98.7237 31.5644 98.1997L15.7533 82.3886C15.4863 82.1308 15.2734 81.8224 15.1269 81.4814C14.9805 81.1404 14.9034 80.7736 14.9001 80.4025C14.8969 80.0314 14.9676 79.6634 15.1082 79.3199C15.2487 78.9764 15.4562 78.6643 15.7187 78.4019C15.9811 78.1395 16.2931 77.9319 16.6366 77.7914C16.9801 77.6508 17.3482 77.5801 17.7193 77.5834C18.0904 77.5866 18.4571 77.6637 18.7981 77.8102C19.1391 77.9566 19.4475 78.1696 19.7054 78.4365L33.5404 92.2716L47.3755 78.4365C47.9027 77.9274 48.6087 77.6457 49.3415 77.652C50.0743 77.6584 50.7753 77.9524 51.2935 78.4706C51.8118 78.9888 52.1057 79.6898 52.1121 80.4226C52.1184 81.1554 51.8367 81.8615 51.3276 82.3886L35.5165 98.1997Z" fill="white"/>
<defs>
<clipPath id="clip0_2437_1044">
<rect width="67.0791" height="67.0791" fill="white"/>
</clipPath>
<clipPath id="clip1_2437_1044">
<rect width="67.0791" height="67.0791" fill="white" transform="translate(0 27.1511)"/>
</clipPath>
</defs>
</svg>
