<svg width="65" height="65" viewBox="0 0 65 65" fill="none" xmlns="http://www.w3.org/2000/svg">
<rect width="65" height="65" rx="32.5" fill="white"/>
<path d="M28.3529 24.2279C28.3588 24.222 28.3667 24.2188 28.375 24.2188H36.625C36.6333 24.2188 36.6412 24.222 36.6471 24.2279C36.653 24.2338 36.6562 24.2417 36.6562 24.25C36.6562 24.2583 36.653 24.2662 36.6471 24.2721C36.6412 24.278 36.6333 24.2812 36.625 24.2812H28.375C28.3667 24.2812 28.3588 24.278 28.3529 24.2721C28.347 24.2662 28.3438 24.2583 28.3438 24.25C28.3438 24.2417 28.347 24.2338 28.3529 24.2279Z" fill="#F15A25" stroke="#F15A25" stroke-width="2"/>
<path d="M25.8814 20.249C27.4598 20.0345 29.5448 20.0312 32.4986 20.0312C35.4524 20.0312 37.5374 20.0345 39.1158 20.249C40.655 20.4582 41.5215 20.8477 42.1508 21.4834L42.2876 21.348L42.1508 21.4834C42.7818 22.1207 43.1692 23.0012 43.3773 24.5649C43.5891 26.1644 43.5924 28.2746 43.5924 31.2597V38.1251C43.5924 40.2841 43.5907 41.7997 43.4742 42.8942C43.3516 44.0249 43.1345 44.3717 42.9963 44.5002C42.713 44.7603 42.3582 44.9227 41.983 44.9648L41.9823 44.9649C41.8054 44.9852 41.4131 44.9293 40.4915 44.2776C39.6004 43.6451 38.4724 42.651 36.8649 41.2283L36.8649 41.2282L36.8291 41.1966L36.829 41.1965L36.8141 41.1834C36.1527 40.5992 35.5923 40.1043 35.094 39.7386L35.0934 39.7381C34.566 39.3535 34.0152 39.0423 33.3564 38.9099L33.3561 38.9098C32.7901 38.7967 32.2072 38.7967 31.6411 38.9098L31.6404 38.91C30.9823 39.0437 30.4304 39.3531 29.9034 39.7398C29.4131 40.0969 28.8629 40.5829 28.2166 41.1538L28.1683 41.1965L28.1681 41.1966L28.1324 41.2282L28.1323 41.2283C26.5248 42.651 25.3969 43.6451 24.5058 44.2776C23.5843 44.9292 23.1919 44.9852 23.015 44.9649C22.6365 44.9204 22.2817 44.7578 22.0009 44.5001C21.8627 44.3716 21.6443 44.0246 21.5245 42.8948L21.5244 42.8944C21.4066 41.7986 21.4049 40.2845 21.4049 38.1251V31.2584C21.4049 28.2745 21.4081 26.1642 21.62 24.5647C21.8281 23.0012 22.2154 22.1207 22.8464 21.4834L22.8464 21.4834C23.4758 20.8477 24.3422 20.4582 25.8814 20.249ZM25.8814 20.249L25.8478 20.0012L25.8814 20.249ZM25.5378 17.7089L25.5377 17.7089C23.7082 17.9575 22.2096 18.4852 21.0266 19.6811L21.0266 19.6811C19.8454 20.8752 19.3267 22.3844 19.0811 24.2266L19.081 24.2267C18.8437 26.0155 18.8437 28.2963 18.8438 31.1631V31.1814V38.1911V38.2067C18.8437 40.2673 18.8437 41.9183 18.9772 43.1677L18.9772 43.1677C19.1088 44.3985 19.3947 45.5816 20.2664 46.3844C20.9462 47.0116 21.8067 47.4053 22.7252 47.5117L22.7256 47.5118C23.9056 47.6467 24.983 47.08 25.9881 46.3674C26.9994 45.6527 28.2192 44.5742 29.7359 43.2333L29.7822 43.1923L29.7827 43.1918L29.8318 43.1482C29.8318 43.1482 29.8319 43.1482 29.8319 43.1481C30.5499 42.513 31.024 42.0958 31.4168 41.8071C31.7918 41.5339 31.9962 41.4526 32.148 41.4213C32.3804 41.3753 32.6196 41.3753 32.852 41.4213C33.0041 41.4527 33.2099 41.5341 33.583 41.807L33.5831 41.807C33.9757 42.0942 34.4494 42.5124 35.1682 43.1482L35.1703 43.1501L35.2191 43.1922L35.2212 43.1941L35.2415 43.2121C36.7681 44.563 37.9953 45.649 39.0119 46.3688L39.012 46.3688C40.017 47.08 41.0944 47.6467 42.2744 47.5118L42.2748 47.5117C43.1929 47.4051 44.0537 47.0105 44.7336 46.3844L44.7338 46.3842C45.6039 45.5815 45.8911 44.3988 46.0228 43.1677L46.0228 43.1677C46.1563 41.9183 46.1562 40.2673 46.1562 38.2067V38.1911V31.1814V31.163C46.1563 28.2963 46.1563 26.0141 45.919 24.2267L45.9189 24.2266C45.6733 22.3844 45.1546 20.8752 43.9734 19.6811L43.8025 19.8501L43.9734 19.6811C42.7904 18.4852 41.2918 17.9575 39.4623 17.7089L39.4622 17.7089C37.691 17.4687 35.4319 17.4687 32.597 17.4688H32.5784H32.4216H32.403C29.5681 17.4687 27.309 17.4687 25.5378 17.7089Z" fill="#F15A25" stroke="#F15A25" stroke-width="0.5"/>
</svg>
