<svg width="65" height="65" viewBox="0 0 65 65" fill="none" xmlns="http://www.w3.org/2000/svg">
<rect width="65" height="65" rx="32.5" fill="#3B3B3B"/>
<path d="M28.3529 24.2279C28.3588 24.222 28.3667 24.2188 28.375 24.2188H36.625C36.6333 24.2188 36.6412 24.222 36.6471 24.2279C36.653 24.2338 36.6562 24.2417 36.6562 24.25C36.6562 24.2583 36.653 24.2662 36.6471 24.2721C36.6412 24.278 36.6333 24.2812 36.625 24.2812H28.375C28.3667 24.2812 28.3588 24.278 28.3529 24.2721C28.347 24.2662 28.3438 24.2583 28.3438 24.25C28.3438 24.2417 28.347 24.2338 28.3529 24.2279Z" fill="white" stroke="white" stroke-width="2"/>
<path d="M22.8464 21.4834L22.8464 21.4834C22.2154 22.1207 21.8281 23.0012 21.62 24.5647C21.4081 26.1642 21.4049 28.2745 21.4049 31.2584V38.1251C21.4049 40.2845 21.4066 41.7986 21.5244 42.8944L21.5245 42.8948C21.6443 44.0248 21.8628 44.3717 22.001 44.5002C22.2817 44.7578 22.6365 44.9204 23.0149 44.9649C23.1918 44.9852 23.5841 44.9293 24.5054 44.2779L22.8464 21.4834ZM22.8464 21.4834C23.4758 20.8477 24.3423 20.4582 25.8814 20.249M22.8464 21.4834L25.8814 20.249M29.9035 39.7397C30.4305 39.3531 30.9824 39.0437 31.6404 38.91L31.6411 38.9098C32.2072 38.7967 32.7901 38.7967 33.3561 38.9098L33.3564 38.9099C34.0152 39.0423 34.566 39.3535 35.0934 39.7381L35.094 39.7386C35.5923 40.1043 36.1527 40.5991 36.8141 41.1833L36.829 41.1965L36.8291 41.1966L36.8649 41.2283L36.8649 41.2283C38.4726 42.6512 39.6007 43.6454 40.4918 44.2779C41.4132 44.9293 41.8055 44.9852 41.9823 44.9649L41.983 44.9648C42.3582 44.9227 42.713 44.7603 42.9963 44.5002C43.1344 44.3717 43.3515 44.0249 43.4742 42.8947C43.5907 41.8001 43.5924 40.2845 43.5924 38.1251V31.2597C43.5924 28.2745 43.5891 26.1642 43.3773 24.5647C43.1692 23.0012 42.7818 22.1207 42.1508 21.4834L42.3285 21.3075L24.5058 44.2776C25.3969 43.6451 26.5248 42.651 28.1323 41.2283L28.1324 41.2282L28.1681 41.1966L28.1683 41.1965L28.2166 41.1538C28.863 40.5829 29.4132 40.0968 29.9035 39.7397ZM29.9035 39.7397C29.9037 39.7396 29.9038 39.7395 29.9039 39.7394L30.0511 39.9415L29.9032 39.7399C29.9033 39.7399 29.9034 39.7398 29.9035 39.7397ZM25.8814 20.249C27.4598 20.0345 29.5448 20.0312 32.4986 20.0312M25.8814 20.249L32.4986 20.0312M32.4986 20.0312C35.4524 20.0312 37.5375 20.0345 39.1158 20.249L32.4986 20.0312ZM25.5378 17.7089L25.5377 17.7089C23.7082 17.9575 22.2096 18.4852 21.0266 19.6811L21.0266 19.6811C19.8454 20.8752 19.3267 22.3844 19.0811 24.2266L19.081 24.2267C18.8437 26.0155 18.8437 28.2963 18.8438 31.1631V31.1814V38.1911V38.2067C18.8437 40.2673 18.8437 41.9183 18.9772 43.1677L18.9772 43.1677C19.1088 44.3985 19.3947 45.5816 20.2664 46.3844C20.9462 47.0116 21.8067 47.4053 22.7252 47.5117L22.7256 47.5118C23.9057 47.6467 24.983 47.0799 25.9882 46.3673C26.9996 45.6526 28.2193 44.5742 29.7359 43.2332L29.7822 43.1923L29.7827 43.1918L29.8318 43.1482C30.5499 42.5129 31.0241 42.0957 31.417 41.807C31.7919 41.5338 31.9962 41.4526 32.148 41.4213C32.3804 41.3753 32.6196 41.3753 32.852 41.4213C33.004 41.4527 33.2099 41.5341 33.583 41.807L33.5831 41.807C33.9757 42.0942 34.4494 42.5124 35.1682 43.1483L35.1703 43.1501L35.2191 43.1922L35.2212 43.1941L35.2415 43.212C36.7681 44.563 37.9953 45.649 39.0119 46.3688L39.012 46.3688C40.017 47.08 41.0944 47.6467 42.2744 47.5118L42.2748 47.5117C43.1929 47.4051 44.0537 47.0105 44.7336 46.3844L44.7338 46.3842C45.6039 45.5815 45.8911 44.3988 46.0228 43.1677L46.0228 43.1677C46.1563 41.9183 46.1562 40.2673 46.1562 38.2067V38.1911V31.1814V31.163C46.1563 28.2963 46.1563 26.0141 45.919 24.2267L45.9189 24.2266C45.6733 22.3844 45.1546 20.8752 43.9734 19.6811C42.7904 18.4852 41.2918 17.9575 39.4623 17.7089L39.4622 17.7089C37.691 17.4687 35.4319 17.4687 32.597 17.4688H32.5784H32.4216H32.403C29.5681 17.4687 27.309 17.4687 25.5378 17.7089Z" fill="white" stroke="white" stroke-width="0.5"/>
</svg>
