<svg width="237" height="42" viewBox="0 0 237 42" fill="none" xmlns="http://www.w3.org/2000/svg">
<rect x="7" width="230" height="42" rx="5" fill="white"/>
<path d="M18.7852 28V13.8594H24.1953C27.2617 13.8594 28.7852 15.4219 28.7852 17.5312C28.7852 19.25 27.6914 20.207 26.3047 20.5391V20.6758C27.8086 20.7539 29.332 22.0039 29.332 24.1523C29.332 26.3594 27.75 28 24.5078 28H18.7852ZM24.1172 25.8711C25.9727 25.8711 26.7539 25.0703 26.7539 23.957C26.7539 22.6875 25.7578 21.7109 24.1758 21.7109H21.3242V25.8711H24.1172ZM23.8828 19.875C25.2305 19.875 26.2461 19.0938 26.2461 17.8438C26.2461 16.75 25.4648 15.9688 23.9414 15.9688H21.3242V19.875H23.8828ZM44.0195 20.9297C44.0195 25.5 41.2461 28.1953 37.5352 28.1953C33.8242 28.1953 31.0508 25.4805 31.0508 20.9297C31.0508 16.3594 33.8242 13.6641 37.5352 13.6641C41.2461 13.6641 44.0195 16.3594 44.0195 20.9297ZM41.4609 20.9297C41.4609 17.707 39.8398 15.9492 37.5352 15.9492C35.2305 15.9492 33.6094 17.707 33.6094 20.9297C33.6094 24.1523 35.2305 25.9102 37.5352 25.9102C39.8398 25.9102 41.4609 24.1523 41.4609 20.9297ZM58.9023 20.9297C58.9023 25.5 56.1289 28.1953 52.418 28.1953C48.707 28.1953 45.9336 25.4805 45.9336 20.9297C45.9336 16.3594 48.707 13.6641 52.418 13.6641C56.1289 13.6641 58.9023 16.3594 58.9023 20.9297ZM56.3438 20.9297C56.3438 17.707 54.7227 15.9492 52.418 15.9492C50.1133 15.9492 48.4922 17.707 48.4922 20.9297C48.4922 24.1523 50.1133 25.9102 52.418 25.9102C54.7227 25.9102 56.3438 24.1523 56.3438 20.9297ZM61.168 28V13.8594H63.707V20.3633H63.9023L69.4297 13.8594H72.5352L67.0664 20.207L72.5938 28H69.5273L65.2891 21.9258L63.707 23.7812V28H61.168ZM74.1562 13.8594H77.2812L81.4805 24.1328H81.6562L85.8555 13.8594H88.9805V28H86.5391V18.2734H86.4023L82.4766 27.9609H80.6602L76.7344 18.2344H76.6172V28H74.1562V13.8594ZM93.3945 28H90.6797L95.6602 13.8594H98.7852L103.785 28H101.07L99.8984 24.5039H94.5664L93.3945 28ZM95.25 22.4531H99.2148L97.2812 16.75H97.1641L95.25 22.4531ZM105.465 28V13.8594H110.777C114.02 13.8594 115.758 15.6758 115.758 18.3711C115.758 20.2949 114.879 21.7207 113.219 22.3945L116.266 28H113.434L110.66 22.8242H108.004V28H105.465ZM108.004 20.6953H110.387C112.301 20.6953 113.16 19.875 113.16 18.3711C113.16 16.8672 112.301 15.9883 110.387 15.9883H108.004V20.6953ZM117.945 28V13.8594H120.484V20.3633H120.68L126.207 13.8594H129.312L123.844 20.207L129.371 28H126.305L122.066 21.9258L120.484 23.7812V28H117.945ZM143.375 17.7461C143.258 16.5352 142.223 15.832 140.699 15.832C139.098 15.832 138.121 16.6133 138.121 17.668C138.121 18.8594 139.371 19.3477 140.543 19.6211L141.871 19.9727C143.98 20.4609 146.012 21.5742 146.012 24.0352C146.012 26.5156 144.059 28.2148 140.66 28.2148C137.359 28.2148 135.289 26.6328 135.172 23.8398H137.672C137.789 25.3242 139.039 26.0469 140.641 26.0469C142.32 26.0469 143.473 25.2266 143.473 24.0156C143.473 22.9023 142.438 22.4336 140.914 22.043L139.312 21.6328C136.988 21.0273 135.543 19.8555 135.543 17.8242C135.543 15.3242 137.77 13.6641 140.738 13.6641C143.746 13.6641 145.777 15.3633 145.816 17.7461H143.375ZM147.496 15.9883V13.8594H158.766V15.9883H154.41V28H151.871V15.9883H147.496ZM172.75 20.9297C172.75 25.5 169.977 28.1953 166.266 28.1953C162.555 28.1953 159.781 25.4805 159.781 20.9297C159.781 16.3594 162.555 13.6641 166.266 13.6641C169.977 13.6641 172.75 16.3594 172.75 20.9297ZM170.191 20.9297C170.191 17.707 168.57 15.9492 166.266 15.9492C163.961 15.9492 162.34 17.707 162.34 20.9297C162.34 24.1523 163.961 25.9102 166.266 25.9102C168.57 25.9102 170.191 24.1523 170.191 20.9297ZM175.016 28V13.8594H180.328C183.57 13.8594 185.309 15.6758 185.309 18.3711C185.309 20.2949 184.43 21.7207 182.77 22.3945L185.816 28H182.984L180.211 22.8242H177.555V28H175.016ZM177.555 20.6953H179.938C181.852 20.6953 182.711 19.875 182.711 18.3711C182.711 16.8672 181.852 15.9883 179.938 15.9883H177.555V20.6953ZM189.293 28H186.578L191.559 13.8594H194.684L199.684 28H196.969L195.797 24.5039H190.465L189.293 28ZM191.148 22.4531H195.113L193.18 16.75H193.062L191.148 22.4531ZM210.172 18.3711C209.723 16.8672 208.551 15.9492 206.832 15.9492C204.547 15.9492 202.906 17.7266 202.906 20.9102C202.906 24.1328 204.527 25.9102 206.891 25.9102C209.02 25.9102 210.387 24.6211 210.426 22.6094H207.145V20.5977H212.887V22.2969C212.887 25.9297 210.387 28.1953 206.891 28.1953C202.984 28.1953 200.348 25.4219 200.348 20.9297C200.348 16.3984 203.102 13.6641 206.812 13.6641C209.938 13.6641 212.34 15.5977 212.77 18.3711H210.172ZM215.191 28V13.8594H224.391V15.9883H217.73V19.8555H223.902V21.9844H217.73V25.8516H224.43V28H215.191Z" fill="black"/>
<path d="M0 21L9.75 14.9378L9.75 27.0622L0 21Z" fill="white"/>
</svg>
