<svg width="42" height="37" viewBox="0 0 42 37" fill="none" xmlns="http://www.w3.org/2000/svg">
<path d="M2.77092 6.76042V10.6667H13.4115C13.7563 10.6667 14.0876 10.5292 14.3313 10.2854L17.8563 6.76042L14.3313 3.23542C14.0873 2.9915 13.7565 2.85438 13.4115 2.85417H6.67717C5.64116 2.85417 4.64759 3.26572 3.91503 3.99828C3.18247 4.73084 2.77092 5.72441 2.77092 6.76042ZM0.166748 6.76042C0.166748 5.03375 0.852665 3.3778 2.07361 2.15686C3.29455 0.935917 4.9505 0.25 6.67717 0.25H13.4115C14.4473 0.250083 15.4405 0.661486 16.173 1.39375L20.2376 5.45833H35.323C37.0497 5.45833 38.7056 6.14425 39.9266 7.36519C41.1475 8.58613 41.8334 10.2421 41.8334 11.9688V30.1979C41.8334 31.9246 41.1475 33.5805 39.9266 34.8015C38.7056 36.0224 37.0497 36.7083 35.323 36.7083H6.67717C4.9505 36.7083 3.29455 36.0224 2.07361 34.8015C0.852665 33.5805 0.166748 31.9246 0.166748 30.1979V6.76042ZM2.77092 13.2708V30.1979C2.77092 31.2339 3.18247 32.2275 3.91503 32.96C4.64759 33.6926 5.64116 34.1042 6.67717 34.1042H35.323C36.359 34.1042 37.3526 33.6926 38.0851 32.96C38.8177 32.2275 39.2293 31.2339 39.2293 30.1979V11.9688C39.2293 10.9327 38.8177 9.93918 38.0851 9.20661C37.3526 8.47405 36.359 8.0625 35.323 8.0625H20.2376L16.173 12.1271C15.4405 12.8593 14.4473 13.2708 13.4115 13.2708H2.77092Z" fill="#DEDEDE"/>
</svg>
