<svg width="30" height="20" viewBox="0 0 30 20" fill="none" xmlns="http://www.w3.org/2000/svg">
<path d="M7.20837 19.9166C5.44132 19.9166 3.93729 19.2999 2.69629 18.0664C1.45435 16.8349 0.833374 15.3346 0.833374 13.5657C0.833374 11.9422 1.38824 10.5014 2.49796 9.24342C3.60768 7.98542 4.98704 7.30967 6.63604 7.21617C6.95432 5.15256 7.90349 3.44784 9.48354 2.102C11.0636 0.756169 12.9024 0.083252 15 0.083252C17.363 0.083252 19.3705 0.909169 21.0223 2.561C22.6741 4.21284 23.5 6.22025 23.5 8.58325V9.99992H24.3727C25.7289 10.0434 26.867 10.5416 27.7869 11.4945C28.7068 12.4474 29.1667 13.602 29.1667 14.9583C29.1667 16.3475 28.6879 17.5215 27.7302 18.4801C26.7707 19.4378 25.5967 19.9166 24.2084 19.9166H7.20837ZM7.20837 18.4999H24.2084C25.2 18.4999 26.0382 18.1576 26.723 17.4728C27.4077 16.7881 27.75 15.9499 27.75 14.9583C27.75 13.9666 27.4077 13.1284 26.723 12.4437C26.0382 11.7589 25.2 11.4166 24.2084 11.4166H22.0834V8.58325C22.0834 6.62353 21.3925 4.95281 20.0108 3.57109C18.6291 2.18936 16.9588 1.49897 15 1.49992C13.0413 1.50086 11.371 2.19172 9.98929 3.5725C8.60757 4.95328 7.91671 6.62353 7.91671 8.58325H7.20837C5.83893 8.58325 4.67018 9.06728 3.70212 10.0353C2.73407 11.0034 2.25004 12.1721 2.25004 13.5416C2.25004 14.911 2.73407 16.0798 3.70212 17.0478C4.67018 18.0159 5.83893 18.4999 7.20837 18.4999Z" fill="currentColor"/>
</svg>
