<svg width="44" height="36" viewBox="0 0 44 36" fill="none" xmlns="http://www.w3.org/2000/svg">
<g id="Group">
<path id="Vector" d="M30 6.56461C29.9998 7.76804 29.5239 8.9226 28.676 9.77661C26.724 11.7446 24.83 13.7966 22.804 15.6926C22.5778 15.8987 22.2811 16.01 21.9752 16.0037C21.6693 15.9974 21.3775 15.8739 21.16 15.6586L15.324 9.77861C14.4752 8.92431 13.9988 7.76891 13.9988 6.56461C13.9988 5.36032 14.4752 4.20492 15.324 3.35061C15.7473 2.92418 16.2508 2.58573 16.8055 2.35477C17.3602 2.1238 17.9551 2.0049 18.556 2.0049C19.1569 2.0049 19.7518 2.1238 20.3065 2.35477C20.8612 2.58573 21.3647 2.92418 21.788 3.35061L22 3.56461L22.212 3.35061C22.8474 2.70834 23.6595 2.26968 24.5451 2.09046C25.4306 1.91124 26.3494 1.99958 27.1845 2.34423C28.0196 2.68888 28.7333 3.27425 29.2347 4.02582C29.7361 4.77739 30.0025 5.66116 30 6.56461Z" stroke="#F8F8F8" stroke-width="3.6" stroke-linejoin="round"/>
<path id="Vector_2" d="M34 34.0044L41.648 26.3564C41.8731 26.1316 41.9997 25.8265 42 25.5084V15.0044C42 14.2087 41.6839 13.4457 41.1213 12.8831C40.5587 12.3205 39.7956 12.0044 39 12.0044C38.2044 12.0044 37.4413 12.3205 36.8787 12.8831C36.3161 13.4457 36 14.2087 36 15.0044V24.0044" stroke="#F8F8F8" stroke-width="3.6" stroke-linecap="round" stroke-linejoin="round"/>
<path id="Vector_3" d="M34 26.0044L35.716 24.2884C35.8065 24.1986 35.8782 24.0917 35.927 23.974C35.9758 23.8562 36.0006 23.7299 36 23.6024C35.9986 23.4228 35.9479 23.247 35.8533 23.0943C35.7588 22.9416 35.6241 22.8178 35.464 22.7364L34.578 22.2944C33.8274 21.9191 32.9777 21.7894 32.1493 21.9236C31.3209 22.0578 30.5557 22.4492 29.962 23.0424L28.172 24.8324C27.4218 25.5824 27.0002 26.5996 27 27.6604V34.0044M10 34.0044L2.352 26.3564C2.12689 26.1316 2.00028 25.8265 2 25.5084V15.0044C2 14.2087 2.31607 13.4457 2.87868 12.8831C3.44129 12.3205 4.20435 12.0044 5 12.0044C5.79565 12.0044 6.55871 12.3205 7.12132 12.8831C7.68393 13.4457 8 14.2087 8 15.0044V24.0044" stroke="#F8F8F8" stroke-width="3.6" stroke-linecap="round" stroke-linejoin="round"/>
<path id="Vector_4" d="M10 26.0049L8.284 24.2889C8.10481 24.1051 8.00313 23.8595 8 23.6029C8 23.2369 8.208 22.9029 8.536 22.7369L9.422 22.2949C10.1726 21.9195 11.0223 21.7898 11.8507 21.9241C12.6791 22.0583 13.4443 22.4497 14.038 23.0429L15.828 24.8329C16.5782 25.5828 16.9998 26.6001 17 27.6609V34.0049" stroke="#F8F8F8" stroke-width="3.6" stroke-linecap="round" stroke-linejoin="round"/>
</g>
</svg>
