<svg width="38" height="42" viewBox="0 0 38 42" fill="none" xmlns="http://www.w3.org/2000/svg">
<g id="Group">
<path id="Vector" d="M19 0C19.7131 0 20.4161 0.0386335 21.109 0.1159C21.357 0.143346 21.5972 0.219374 21.8158 0.339642C22.0345 0.45991 22.2273 0.622063 22.3832 0.816843C22.5392 1.01162 22.6553 1.23522 22.7248 1.47485C22.7944 1.71449 22.816 1.96549 22.7886 2.2135C22.7612 2.46151 22.6851 2.70169 22.5649 2.92033C22.4446 3.13896 22.2824 3.33176 22.0877 3.48773C21.8929 3.64369 21.6693 3.75977 21.4296 3.82932C21.19 3.89887 20.939 3.92055 20.691 3.8931C17.5599 3.54282 14.3973 4.17419 11.6407 5.69985C8.88407 7.22552 6.66967 9.5701 5.30379 12.4093C3.9379 15.2485 3.48802 18.4419 4.01639 21.5479C4.54476 24.654 6.02526 27.519 8.25311 29.7469C10.4809 31.9747 13.346 33.4552 16.4521 33.9836C19.5581 34.512 22.7515 34.0621 25.5907 32.6962C28.4299 31.3303 30.7745 29.1159 32.3001 26.3593C33.8258 23.6027 34.4572 20.4401 34.1069 17.309C34.0795 17.061 34.1011 16.81 34.1707 16.5704C34.2402 16.3307 34.3563 16.1071 34.5123 15.9123C34.8273 15.519 35.2856 15.2668 35.7865 15.2114C36.2874 15.156 36.7898 15.3018 37.1832 15.6168C37.3779 15.7727 37.5401 15.9655 37.6604 16.1842C37.7806 16.4028 37.8567 16.643 37.8841 16.891C37.9601 17.5839 37.9987 18.2869 38 19C38 29.4937 29.4937 38 19 38C8.5063 38 0 29.4937 0 19C0 8.5063 8.5063 0 19 0ZM18.9392 11.1663C19.0644 11.6541 18.9909 12.1716 18.7347 12.6052C18.4786 13.0388 18.0608 13.3529 17.5731 13.4786C16.2334 13.8296 15.0671 14.656 14.2919 15.8036C13.5167 16.9513 13.1855 18.3418 13.3602 19.7157C13.5349 21.0896 14.2035 22.353 15.2413 23.2701C16.2791 24.1873 17.6151 24.6955 19 24.7C20.2641 24.7005 21.4925 24.2809 22.492 23.507C23.4915 22.7331 24.2054 21.6489 24.5214 20.425C24.6561 19.9469 24.9726 19.5405 25.4033 19.2929C25.8339 19.0454 26.3444 18.9763 26.8253 19.1005C27.3063 19.2247 27.7195 19.5323 27.9764 19.9575C28.2333 20.3826 28.3135 20.8915 28.1998 21.375C27.6169 23.6093 26.2406 25.5549 24.3279 26.8485C22.4152 28.142 20.097 28.695 17.8063 28.4041C15.5157 28.1131 13.4093 26.9982 11.8807 25.2676C10.3521 23.537 9.50583 21.309 9.5 19C9.49967 16.8936 10.1994 14.8469 11.4891 13.1816C12.7789 11.5163 14.5855 10.3268 16.625 9.8002C16.8667 9.73792 17.1182 9.72385 17.3653 9.75879C17.6124 9.79374 17.8502 9.87702 18.0651 10.0039C18.28 10.1307 18.4678 10.2987 18.6178 10.4981C18.7677 10.6976 18.877 10.9246 18.9392 11.1663ZM31.3576 0.2413C31.7044 0.38509 32.0008 0.6284 32.2095 0.940518C32.4181 1.25264 32.5296 1.61957 32.5299 1.995V5.472H36.005C36.3807 5.47208 36.748 5.58356 37.0604 5.79234C37.3727 6.00112 37.6162 6.29783 37.76 6.64496C37.9038 6.99209 37.9414 7.37405 37.8681 7.74256C37.7948 8.11107 37.6139 8.44958 37.3483 8.7153L30.628 15.428C30.2718 15.7843 29.7886 15.9846 29.2847 15.9847H24.7L21.2268 19.4598C20.8703 19.8163 20.3867 20.0166 19.8826 20.0166C19.3784 20.0166 18.8948 19.8163 18.5383 19.4598C18.1818 19.1033 17.9815 18.6197 17.9815 18.1155C17.9815 17.6114 18.1818 17.1278 18.5383 16.7713L22.0134 13.3V8.7134C22.0135 8.20953 22.2138 7.72634 22.5701 7.3701L29.2866 0.6517C29.5523 0.385828 29.8909 0.204741 30.2596 0.13135C30.6282 0.0579583 31.0103 0.0955607 31.3576 0.2394M28.7299 6.5797L25.8134 9.5V12.1866H28.5L31.4184 9.2701H30.6299C30.126 9.2701 29.6427 9.06992 29.2864 8.7136C28.9301 8.35728 28.7299 7.87401 28.7299 7.3701V6.5797Z" fill="white"/>
</g>
</svg>
