<svg width="68" height="68" viewBox="0 0 68 68" fill="none" xmlns="http://www.w3.org/2000/svg">
<path d="M18.4166 53.8334C14.8825 53.8334 11.8745 52.5999 9.39246 50.133C6.90857 47.6699 5.66663 44.6694 5.66663 41.1315C5.66663 37.8845 6.77635 35.003 8.99579 32.487C11.2152 29.971 13.974 28.6195 17.272 28.4325C17.9085 24.3053 19.8068 20.8959 22.967 18.2042C26.1271 15.5125 29.8047 14.1667 34 14.1667C38.726 14.1667 42.7408 15.8185 46.0445 19.1222C49.3481 22.4259 51 26.4407 51 31.1667V34H52.7453C55.4577 34.0869 57.7338 35.0833 59.5736 36.9892C61.4134 38.8951 62.3333 41.2042 62.3333 43.9167C62.3333 46.6952 61.3756 49.0431 59.4603 50.9604C57.5412 52.8757 55.1933 53.8334 52.4166 53.8334H18.4166ZM18.4166 51H52.4166C54.4 51 56.0763 50.3153 57.4458 48.9459C58.8152 47.5764 59.5 45.9 59.5 43.9167C59.5 41.9334 58.8152 40.257 57.4458 38.8875C56.0763 37.5181 54.4 36.8334 52.4166 36.8334H48.1666V31.1667C48.1666 27.2472 46.7849 23.9058 44.0215 21.1424C41.258 18.3789 37.9175 16.9981 34 17C30.0824 17.0019 26.7419 18.3836 23.9785 21.1452C21.215 23.9067 19.8333 27.2472 19.8333 31.1667H18.4166C15.6777 31.1667 13.3402 32.1347 11.4041 34.0709C9.46801 36.007 8.49996 38.3445 8.49996 41.0834C8.49996 43.8222 9.46801 46.1597 11.4041 48.0959C13.3402 50.032 15.6777 51 18.4166 51Z" fill="white"/>
</svg>
