<svg width="30" height="30" viewBox="0 0 30 30" fill="none" xmlns="http://www.w3.org/2000/svg">
<path d="M4.0625 7.65625V10H10.4469C10.6538 10 10.8525 9.9175 10.9987 9.77125L13.1138 7.65625L10.9987 5.54125C10.8524 5.3949 10.6539 5.31263 10.4469 5.3125H6.40625C5.78465 5.3125 5.18851 5.55943 4.74897 5.99897C4.30943 6.43851 4.0625 7.03465 4.0625 7.65625ZM2.5 7.65625C2.5 6.62025 2.91155 5.62668 3.64411 4.89411C4.37668 4.16155 5.37025 3.75 6.40625 3.75H10.4469C11.0683 3.75005 11.6643 3.99689 12.1037 4.43625L14.5425 6.875H23.5938C24.6298 6.875 25.6233 7.28655 26.3559 8.01911C27.0884 8.75168 27.5 9.74525 27.5 10.7812V21.7188C27.5 22.7548 27.0884 23.7483 26.3559 24.4809C25.6233 25.2134 24.6298 25.625 23.5938 25.625H6.40625C5.37025 25.625 4.37668 25.2134 3.64411 24.4809C2.91155 23.7483 2.5 22.7548 2.5 21.7188V7.65625ZM4.0625 11.5625V21.7188C4.0625 22.3404 4.30943 22.9365 4.74897 23.376C5.18851 23.8156 5.78465 24.0625 6.40625 24.0625H23.5938C24.2154 24.0625 24.8115 23.8156 25.251 23.376C25.6906 22.9365 25.9375 22.3404 25.9375 21.7188V10.7812C25.9375 10.1596 25.6906 9.56351 25.251 9.12397C24.8115 8.68443 24.2154 8.4375 23.5938 8.4375H14.5425L12.1037 10.8763C11.6643 11.3156 11.0683 11.5624 10.4469 11.5625H4.0625Z" fill="currentColor"/>
</svg>
