<svg width="30" height="30" viewBox="0 0 30 30" fill="none" xmlns="http://www.w3.org/2000/svg">
<circle cx="15" cy="15" r="15" fill="#5C5C5C"/>
<path d="M21 14.998H16V19.998C16 20.2633 15.8946 20.5176 15.7071 20.7052C15.5196 20.8927 15.2652 20.998 15 20.998C14.7348 20.998 14.4804 20.8927 14.2929 20.7052C14.1054 20.5176 14 20.2633 14 19.998V14.998H9C8.73478 14.998 8.48043 14.8927 8.29289 14.7052C8.10536 14.5176 8 14.2633 8 13.998C8 13.7328 8.10536 13.4785 8.29289 13.2909C8.48043 13.1034 8.73478 12.998 9 12.998H14V7.99805C14 7.73283 14.1054 7.47848 14.2929 7.29094C14.4804 7.1034 14.7348 6.99805 15 6.99805C15.2652 6.99805 15.5196 7.1034 15.7071 7.29094C15.8946 7.47848 16 7.73283 16 7.99805V12.998H21C21.2652 12.998 21.5196 13.1034 21.7071 13.2909C21.8946 13.4785 22 13.7328 22 13.998C22 14.2633 21.8946 14.5176 21.7071 14.7052C21.5196 14.8927 21.2652 14.998 21 14.998Z" fill="black"/>
</svg>
