<svg width="40" height="40" viewBox="0 0 40 40" fill="none" xmlns="http://www.w3.org/2000/svg">
<path d="M20.0012 3.33301C29.2062 3.33301 36.6678 10.7947 36.6678 19.9997C36.6678 29.2047 29.2062 36.6663 20.0012 36.6663C17.3049 36.6699 14.6483 36.0166 12.2612 34.763L5.11115 36.6247C4.87225 36.6869 4.62123 36.6856 4.38297 36.6209C4.14472 36.5563 3.9275 36.4304 3.75285 36.256C3.57819 36.0815 3.45217 35.8644 3.38726 35.6262C3.32236 35.388 3.32083 35.137 3.38282 34.898L5.24282 27.7497C3.98588 25.36 3.33084 22.6998 3.33449 19.9997C3.33449 10.7947 10.7962 3.33301 20.0012 3.33301ZM20.0012 25.833C19.5591 25.833 19.1352 26.0086 18.8226 26.3212C18.5101 26.6337 18.3345 27.0576 18.3345 27.4997C18.3345 27.9417 18.5101 28.3656 18.8226 28.6782C19.1352 28.9907 19.5591 29.1663 20.0012 29.1663C20.4432 29.1663 20.8671 28.9907 21.1797 28.6782C21.4922 28.3656 21.6678 27.9417 21.6678 27.4997C21.6678 27.0576 21.4922 26.6337 21.1797 26.3212C20.8671 26.0086 20.4432 25.833 20.0012 25.833ZM20.0012 11.2497C18.7856 11.2497 17.6198 11.7326 16.7602 12.5921C15.9007 13.4516 15.4178 14.6174 15.4178 15.833C15.4179 16.1497 15.5382 16.4546 15.7544 16.686C15.9707 16.9174 16.2667 17.0581 16.5826 17.0797C16.8986 17.1013 17.211 17.0021 17.4567 16.8023C17.7023 16.6024 17.863 16.3168 17.9062 16.003L17.9295 15.6197C17.9858 15.0898 18.243 14.6016 18.6482 14.2555C19.0534 13.9095 19.5758 13.7318 20.108 13.7591C20.6402 13.7865 21.1416 14.0167 21.5093 14.4024C21.8769 14.7882 22.0828 15.3001 22.0845 15.833C22.0845 16.7313 21.8595 17.1747 21.0095 18.053L20.5028 18.5697C19.2462 19.8763 18.7512 20.8147 18.7512 22.4997C18.7512 22.8312 18.8829 23.1491 19.1173 23.3836C19.3517 23.618 19.6696 23.7497 20.0012 23.7497C20.3327 23.7497 20.6506 23.618 20.885 23.3836C21.1195 23.1491 21.2512 22.8312 21.2512 22.4997C21.2512 21.6013 21.4762 21.158 22.3262 20.2797L22.8328 19.763C24.0895 18.4563 24.5845 17.518 24.5845 15.833C24.5845 14.6174 24.1016 13.4516 23.2421 12.5921C22.3825 11.7326 21.2167 11.2497 20.0012 11.2497Z" fill="#A6ABBC"/>
</svg>
