<svg width="65" height="65" viewBox="0 0 65 65" fill="none" xmlns="http://www.w3.org/2000/svg">
<rect width="65" height="65" rx="32.5" fill="white"/>
<path d="M36.875 45.6245V33.9578C36.875 33.5711 36.7214 33.2001 36.4479 32.9266C36.1744 32.6532 35.8034 32.4995 35.4167 32.4995H29.5833C29.1966 32.4995 28.8256 32.6532 28.5521 32.9266C28.2786 33.2001 28.125 33.5711 28.125 33.9578V45.6245" stroke="#F15A25" stroke-width="3" stroke-linecap="round" stroke-linejoin="round"/>
<path d="M19.375 29.5835C19.3749 29.1592 19.4674 28.74 19.6459 28.3552C19.8245 27.9703 20.0849 27.629 20.409 27.3552L30.6173 18.6066C31.1437 18.1617 31.8107 17.9176 32.5 17.9176C33.1893 17.9176 33.8563 18.1617 34.3827 18.6066L44.591 27.3552C44.9151 27.629 45.1755 27.9703 45.3541 28.3552C45.5326 28.74 45.6251 29.1592 45.625 29.5835V42.7085C45.625 43.4821 45.3177 44.2239 44.7707 44.7709C44.2237 45.3179 43.4819 45.6252 42.7083 45.6252H22.2917C21.5181 45.6252 20.7763 45.3179 20.2293 44.7709C19.6823 44.2239 19.375 43.4821 19.375 42.7085V29.5835Z" stroke="#F15A25" stroke-width="3" stroke-linecap="round" stroke-linejoin="round"/>
</svg>
