<svg width="41" height="41" viewBox="0 0 41 41" fill="none" xmlns="http://www.w3.org/2000/svg">
<circle opacity="0.9" cx="20.2467" cy="20.2467" r="20.2467" fill="#A6ABBC"/>
<path d="M20.6782 9.96191C22.0421 9.96191 23.3502 10.5037 24.3147 11.4682C25.2792 12.4327 25.821 13.7408 25.821 15.1047C25.821 16.4687 25.2792 17.7768 24.3147 18.7412C23.3502 19.7057 22.0421 20.2475 20.6782 20.2475C19.3142 20.2475 18.0061 19.7057 17.0417 18.7412C16.0772 17.7768 15.5354 16.4687 15.5354 15.1047C15.5354 13.7408 16.0772 12.4327 17.0417 11.4682C18.0061 10.5037 19.3142 9.96191 20.6782 9.96191ZM20.6782 22.8189C26.361 22.8189 30.9638 25.1203 30.9638 27.9617V30.5331H10.3926V27.9617C10.3926 25.1203 14.9954 22.8189 20.6782 22.8189Z" fill="black"/>
</svg>
