<svg width="26" height="26" viewBox="0 0 26 26" fill="none" xmlns="http://www.w3.org/2000/svg">
<g clip-path="url(#clip0_732_1610)">
<path d="M25.9742 12.9488L22.9906 2.61257C22.8931 2.26035 22.5726 2.0166 22.2074 2.0166H3.53654C3.16847 2.0166 2.84632 2.26401 2.75085 2.62031L0.0240989 12.43C-0.0262761 12.6206 -0.00152024 12.8111 0.0748548 12.9768C0.0309798 13.1239 0.000130146 13.2771 0.000130146 13.4383V22.3584C0.000130146 23.2558 0.727724 23.9834 1.62513 23.9834H24.3751C25.2725 23.9834 26.0001 23.2558 26.0001 22.3584V13.4383C26.0001 13.3949 25.9908 13.3538 25.9875 13.3112C26.0087 13.1946 26.0083 13.0715 25.9742 12.9488ZM4.16163 3.64163L21.589 3.6416L23.9533 11.8133H16.3784C16.3418 13.7637 14.959 15.106 13 15.106C11.041 15.106 9.68338 13.7633 9.64682 11.8133H1.88297L4.16163 3.64163ZM24.375 22.3584H1.62508V13.4383H8.30586C9.01517 15.4805 10.7376 16.731 13.0001 16.731C15.2625 16.731 17.0101 15.4805 17.7194 13.4383H24.375V22.3584Z" fill="currentColor"/>
</g>
<defs>
<clipPath id="clip0_732_1610">
<rect width="26" height="26" fill="white"/>
</clipPath>
</defs>
</svg>
