<svg width="239" height="46" viewBox="0 0 239 46" fill="none" xmlns="http://www.w3.org/2000/svg">
<rect x="0.5" y="0.5" width="237.703" height="45" stroke="black"/>
<path d="M51.6307 39H43.8963V17.1818H51.6946C53.8892 17.1818 55.7784 17.6186 57.3622 18.4922C58.946 19.3587 60.1641 20.6051 61.0163 22.2315C61.8757 23.858 62.3054 25.804 62.3054 28.0696C62.3054 30.3423 61.8757 32.2955 61.0163 33.929C60.1641 35.5625 58.9389 36.8161 57.3409 37.6896C55.75 38.5632 53.8466 39 51.6307 39ZM48.5092 35.0476H51.4389C52.8026 35.0476 53.9496 34.8061 54.88 34.3232C55.8175 33.8331 56.5206 33.0767 56.9893 32.054C57.4652 31.0241 57.7031 29.696 57.7031 28.0696C57.7031 26.4574 57.4652 25.1399 56.9893 24.1172C56.5206 23.0945 55.821 22.3416 54.8906 21.8587C53.9602 21.3757 52.8132 21.1342 51.4496 21.1342H48.5092V35.0476ZM85.7722 28.0909C85.7722 30.4702 85.3212 32.4943 84.4192 34.1634C83.5243 35.8324 82.3027 37.1072 80.7544 37.9879C79.2132 38.8615 77.4803 39.2983 75.5556 39.2983C73.6167 39.2983 71.8766 38.858 70.3354 37.9773C68.7942 37.0966 67.5762 35.8217 66.6813 34.1527C65.7864 32.4837 65.339 30.4631 65.339 28.0909C65.339 25.7116 65.7864 23.6875 66.6813 22.0185C67.5762 20.3494 68.7942 19.0781 70.3354 18.2045C71.8766 17.3239 73.6167 16.8835 75.5556 16.8835C77.4803 16.8835 79.2132 17.3239 80.7544 18.2045C82.3027 19.0781 83.5243 20.3494 84.4192 22.0185C85.3212 23.6875 85.7722 25.7116 85.7722 28.0909ZM81.0953 28.0909C81.0953 26.5497 80.8645 25.25 80.4029 24.1918C79.9483 23.1335 79.3056 22.331 78.4746 21.7841C77.6436 21.2372 76.6706 20.9638 75.5556 20.9638C74.4405 20.9638 73.4675 21.2372 72.6365 21.7841C71.8056 22.331 71.1593 23.1335 70.6976 24.1918C70.2431 25.25 70.0158 26.5497 70.0158 28.0909C70.0158 29.6321 70.2431 30.9318 70.6976 31.9901C71.1593 33.0483 71.8056 33.8509 72.6365 34.3977C73.4675 34.9446 74.4405 35.218 75.5556 35.218C76.6706 35.218 77.6436 34.9446 78.4746 34.3977C79.3056 33.8509 79.9483 33.0483 80.4029 31.9901C80.8645 30.9318 81.0953 29.6321 81.0953 28.0909ZM87.3622 20.9851V17.1818H105.281V20.9851H98.6016V39H94.0419V20.9851H87.3622ZM127.286 28.0909C127.286 30.4702 126.835 32.4943 125.933 34.1634C125.038 35.8324 123.816 37.1072 122.268 37.9879C120.727 38.8615 118.994 39.2983 117.069 39.2983C115.13 39.2983 113.39 38.858 111.849 37.9773C110.308 37.0966 109.09 35.8217 108.195 34.1527C107.3 32.4837 106.853 30.4631 106.853 28.0909C106.853 25.7116 107.3 23.6875 108.195 22.0185C109.09 20.3494 110.308 19.0781 111.849 18.2045C113.39 17.3239 115.13 16.8835 117.069 16.8835C118.994 16.8835 120.727 17.3239 122.268 18.2045C123.816 19.0781 125.038 20.3494 125.933 22.0185C126.835 23.6875 127.286 25.7116 127.286 28.0909ZM122.609 28.0909C122.609 26.5497 122.378 25.25 121.917 24.1918C121.462 23.1335 120.819 22.331 119.988 21.7841C119.157 21.2372 118.184 20.9638 117.069 20.9638C115.954 20.9638 114.981 21.2372 114.15 21.7841C113.319 22.331 112.673 23.1335 112.211 24.1918C111.757 25.25 111.529 26.5497 111.529 28.0909C111.529 29.6321 111.757 30.9318 112.211 31.9901C112.673 33.0483 113.319 33.8509 114.15 34.3977C114.981 34.9446 115.954 35.218 117.069 35.218C118.184 35.218 119.157 34.9446 119.988 34.3977C120.819 33.8509 121.462 33.0483 121.917 31.9901C122.378 30.9318 122.609 29.6321 122.609 28.0909ZM130.703 39V17.1818H139.311C140.959 17.1818 142.365 17.4766 143.53 18.0661C144.702 18.6484 145.593 19.4759 146.204 20.5483C146.822 21.6136 147.131 22.8672 147.131 24.3089C147.131 25.7578 146.818 27.0043 146.193 28.0483C145.568 29.0852 144.662 29.8807 143.476 30.4347C142.297 30.9886 140.87 31.2656 139.194 31.2656H133.43V27.5582H138.448C139.329 27.5582 140.06 27.4375 140.643 27.196C141.225 26.9545 141.658 26.5923 141.942 26.1094C142.233 25.6264 142.379 25.0263 142.379 24.3089C142.379 23.5845 142.233 22.9737 141.942 22.4766C141.658 21.9794 141.221 21.603 140.632 21.3473C140.05 21.0845 139.314 20.9531 138.427 20.9531H135.316V39H130.703ZM142.486 29.071L147.908 39H142.816L137.51 29.071H142.486ZM150.39 39V17.1818H165.092V20.9851H155.003V26.1839H164.336V29.9872H155.003V35.1967H165.135V39H150.39ZM172.52 39H167.577L175.109 17.1818H181.054L188.575 39H183.632L178.167 22.1676H177.996L172.52 39ZM172.211 30.424H183.887V34.0249H172.211V30.424ZM198.935 39H191.201V17.1818H198.999C201.194 17.1818 203.083 17.6186 204.667 18.4922C206.251 19.3587 207.469 20.6051 208.321 22.2315C209.18 23.858 209.61 25.804 209.61 28.0696C209.61 30.3423 209.18 32.2955 208.321 33.929C207.469 35.5625 206.244 36.8161 204.646 37.6896C203.055 38.5632 201.151 39 198.935 39ZM195.814 35.0476H198.744C200.107 35.0476 201.254 34.8061 202.185 34.3232C203.122 33.8331 203.825 33.0767 204.294 32.054C204.77 31.0241 205.008 29.696 205.008 28.0696C205.008 26.4574 204.77 25.1399 204.294 24.1172C203.825 23.0945 203.126 22.3416 202.195 21.8587C201.265 21.3757 200.118 21.1342 198.754 21.1342H195.814V35.0476Z" fill="white"/>
<path fill-rule="evenodd" clip-rule="evenodd" d="M13.6027 0.000926018L13.6027 13.606L-5.62668e-05 13.606V13.6047C-5.62668e-05 6.09186 6.08999 0.00147152 13.6027 0.000926018Z" fill="#F15A25"/>
<path fill-rule="evenodd" clip-rule="evenodd" d="M39.3077 39.3677L13.6144 39.3677L13.6144 13.6093C27.8047 13.6107 39.3078 25.1146 39.3078 39.3052C39.3078 39.3261 39.3078 39.3469 39.3077 39.3677Z" fill="#F15A25"/>
<path fill-rule="evenodd" clip-rule="evenodd" d="M213 39.2908V19.6416H238.693C238.692 30.4928 227.19 39.2894 213 39.2908Z" fill="#F15A25"/>
<path fill-rule="evenodd" clip-rule="evenodd" d="M238.703 0.000196457V19.6494H213.01C213.01 8.79805 224.513 0.00126076 238.703 0.000196457Z" fill="#F15A25"/>
</svg>
