<svg width="22" height="28" viewBox="0 0 22 28" fill="none" xmlns="http://www.w3.org/2000/svg">
<path d="M0.976763 13.4419H21.155C21.155 13.4419 21.7758 20.653 19.9133 23.249C18.0507 25.845 14.0147 24.9797 12.7729 25.845C11.5312 26.7104 11.2208 27.2873 11.2208 27.2873C11.2208 27.2873 11.2208 26.3506 9.66868 25.845C8.11654 25.3395 5.01226 25.845 2.83927 23.249C0.666275 20.653 0.976763 13.4419 0.976763 13.4419Z" fill="#F15A25"/>
<path d="M3.13436 4.7876C7.47953 2.48004 9.65334 3.05693 9.65334 3.05693C9.65334 3.05693 10.0161 2.18714 9.96459 1.6147C9.9102 1.01009 9.65417 0.460921 9.34291 0.172476C9.03165 -0.11597 9.96459 -0.115825 10.8959 0.749367C11.8272 1.61456 13.068 3.05693 13.068 3.05693C13.068 3.05693 14.9298 2.76849 18.6557 4.7876C22.3817 6.80672 22.0699 12.2872 21.4499 12.2871C20.8298 12.287 1.27262 12.5755 0.651756 12.2871C0.0308932 11.9987 -1.21081 7.09517 3.13436 4.7876Z" fill="#F15A25"/>
</svg>
