<svg width="65" height="65" viewBox="0 0 65 65" fill="none" xmlns="http://www.w3.org/2000/svg">
<rect width="65" height="65" rx="32.5" fill="#3B3B3B"/>
<path d="M32.5 17C33.1193 17 33.7298 17.0336 34.3315 17.1007C34.5469 17.1245 34.7555 17.1905 34.9453 17.295C35.1352 17.3994 35.3026 17.5402 35.4381 17.7094C35.5735 17.8785 35.6743 18.0727 35.7347 18.2808C35.7951 18.4889 35.8139 18.7069 35.7901 18.9222C35.7663 19.1376 35.7002 19.3462 35.5958 19.5361C35.4914 19.7259 35.3505 19.8934 35.1814 20.0288C35.0122 20.1643 34.8181 20.2651 34.61 20.3255C34.4018 20.3859 34.1839 20.4047 33.9685 20.3808C31.2494 20.0767 28.5029 20.625 26.109 21.9499C23.7151 23.2748 21.7921 25.3109 20.6059 27.7765C19.4198 30.2421 19.0291 33.0153 19.4879 35.7127C19.9468 38.41 21.2325 40.8981 23.1672 42.8328C25.1019 44.7675 27.59 46.0532 30.2873 46.5121C32.9847 46.9709 35.7579 46.5802 38.2235 45.3941C40.6891 44.2079 42.7252 42.2849 44.0501 39.891C45.375 37.4971 45.9233 34.7506 45.6192 32.0315C45.5953 31.8161 45.6141 31.5982 45.6745 31.39C45.7349 31.1819 45.8357 30.9878 45.9712 30.8186C46.2447 30.477 46.6428 30.258 47.0777 30.2099C47.5127 30.1618 47.949 30.2884 48.2906 30.5619C48.4598 30.6974 48.6006 30.8648 48.705 31.0547C48.8095 31.2445 48.8755 31.4531 48.8993 31.6685C48.9653 32.2702 48.9989 32.8807 49 33.5C49 42.6129 41.6129 50 32.5 50C23.3871 50 16 42.6129 16 33.5C16 24.3871 23.3871 17 32.5 17ZM32.4472 26.6971C32.5559 27.1206 32.4921 27.5701 32.2696 27.9466C32.0472 28.3231 31.6843 28.5959 31.2608 28.7051C30.0974 29.0099 29.0846 29.7276 28.4114 30.7242C27.7382 31.7209 27.4506 32.9284 27.6023 34.1216C27.754 35.3147 28.3347 36.4118 29.2359 37.2083C30.1371 38.0047 31.2973 38.4461 32.5 38.45C33.5978 38.4505 34.6645 38.086 35.5325 37.414C36.4005 36.7419 37.0205 35.8004 37.2949 34.7375C37.4119 34.3223 37.6868 33.9694 38.0607 33.7544C38.4347 33.5394 38.878 33.4794 39.2957 33.5873C39.7134 33.6951 40.0722 33.9623 40.2953 34.3315C40.5184 34.7007 40.588 35.1426 40.4893 35.5625C39.9831 37.5028 38.7879 39.1924 37.1269 40.3158C35.4658 41.4391 33.4526 41.9193 31.4634 41.6667C29.4742 41.414 27.6449 40.4458 26.3175 38.9429C24.99 37.44 24.2551 35.5052 24.25 33.5C24.2497 31.6708 24.8574 29.8934 25.9774 28.4472C27.0975 27.001 28.6664 25.968 30.4375 25.5107C30.6474 25.4566 30.8658 25.4444 31.0804 25.4747C31.295 25.5051 31.5015 25.5774 31.6881 25.6876C31.8747 25.7977 32.0378 25.9436 32.1681 26.1168C32.2983 26.29 32.3932 26.4872 32.4472 26.6971ZM43.2316 17.2096C43.5328 17.3344 43.7902 17.5457 43.9714 17.8168C44.1526 18.0878 44.2494 18.4065 44.2497 18.7325V21.752H47.2675C47.5938 21.7521 47.9127 21.8489 48.184 22.0302C48.4553 22.2115 48.6667 22.4692 48.7916 22.7706C48.9164 23.0721 48.9491 23.4038 48.8855 23.7238C48.8218 24.0438 48.6647 24.3378 48.434 24.5685L42.598 30.398C42.2886 30.7075 41.869 30.8814 41.4314 30.8814H37.45L34.4338 33.8993C34.1242 34.2089 33.7043 34.3828 33.2664 34.3828C32.8286 34.3828 32.4087 34.2089 32.0991 33.8993C31.7894 33.5897 31.6155 33.1698 31.6155 32.7319C31.6155 32.2941 31.7894 31.8742 32.0991 31.5645L35.1169 28.55V24.5669C35.117 24.1293 35.2909 23.7097 35.6003 23.4004L41.4331 17.5659C41.6638 17.3351 41.9579 17.1778 42.278 17.1141C42.5982 17.0503 42.93 17.083 43.2316 17.2079M40.9496 22.7139L38.4169 25.25V27.5831H40.75L43.2844 25.0504H42.5996C42.162 25.0504 41.7424 24.8765 41.4329 24.5671C41.1235 24.2576 40.9496 23.838 40.9496 23.4004V22.7139Z" fill="white"/>
</svg>
