<svg width="149" height="42" viewBox="0 0 149 42" fill="none" xmlns="http://www.w3.org/2000/svg">
<rect x="6" width="143" height="42" rx="5" fill="white"/>
<path d="M33.4482 12.6738V28.5645H31.5674V20.5312H29.8096V27.7559H27.9814V12.9727H29.8096V18.9316H31.5674V12.6738H33.4482ZM22.4619 14.502V22.8867C23.833 22.8604 25.3359 22.7461 26.9971 22.4121L27.1904 24.1172C25.0459 24.5039 23.2354 24.6094 21.5479 24.6094H20.4932V14.502H22.4619ZM54.1201 20.3203V21.8672H47.8271V23.3965H52.3447V28.5645H50.3936V24.9785H41.2354V23.3965H45.8936V21.8672H39.6357V20.3203H54.1201ZM43.4502 13.0605V14.6426H50.3057V13.0605H52.2393V19.1426H41.5166V13.0605H43.4502ZM43.4502 17.5781H50.3057V16.1016H43.4502V17.5781ZM63.2783 14.2207V24.627H55.7549V14.2207H63.2783ZM57.6709 15.75V23.0625H61.3271V15.75H57.6709ZM67.6377 12.6738V18.7734H70.0811V20.4258H67.6377V28.5645H65.6865V12.6738H67.6377ZM83.6338 14.1504V16.0488C83.6338 18.3516 83.6338 20.5488 82.9307 23.9062L80.9795 23.7305C81.3047 22.3418 81.4893 21.1201 81.5947 19.9863L72.2256 20.4785L71.9619 18.8965L81.6826 18.5273C81.7178 17.6748 81.7178 16.8574 81.7178 16.0488V15.7324H72.4365V14.1504H83.6338ZM85.2334 24.9434V26.543H70.749V24.9434H85.2334ZM100.825 25.1016V26.7188H86.3057V25.1016H92.5635V22.5176H88.0283V17.3145H97.1689V15.3457H87.9932V13.7637H99.1025V18.8613H89.9795V20.918H99.4717V22.5176H94.4971V25.1016H100.825ZM119.353 12.6738V28.582H117.384V12.6738H119.353ZM110.792 13.834C113.183 13.834 114.923 16.0137 114.94 19.4414C114.923 22.9043 113.183 25.0664 110.792 25.0664C108.384 25.0664 106.644 22.9043 106.644 19.4414C106.644 16.0137 108.384 13.834 110.792 13.834ZM110.792 15.5918C109.438 15.5918 108.524 17.0156 108.524 19.4414C108.524 21.8848 109.438 23.3086 110.792 23.3086C112.128 23.3086 113.042 21.8848 113.042 19.4414C113.042 17.0156 112.128 15.5918 110.792 15.5918ZM136.192 20.2852V21.8496H121.69V20.2852H127.983V18.7734H123.466V13.3945H134.435V14.9238H125.417V17.2266H134.522V18.7734H129.899V20.2852H136.192ZM128.915 22.7637C132.343 22.7637 134.399 23.8008 134.417 25.6641C134.399 27.5098 132.343 28.5645 128.915 28.5645C125.452 28.5645 123.378 27.5098 123.378 25.6641C123.378 23.8008 125.452 22.7637 128.915 22.7637ZM128.915 24.2578C126.595 24.2578 125.347 24.75 125.364 25.6641C125.347 26.5781 126.595 27.0527 128.915 27.0527C131.183 27.0527 132.448 26.5781 132.466 25.6641C132.448 24.75 131.183 24.2578 128.915 24.2578Z" fill="black"/>
<path d="M0 21L8.96835 14.9378L8.96835 27.0622L0 21Z" fill="white"/>
</svg>
