<svg width="143" height="48" viewBox="0 0 143 48" fill="none" xmlns="http://www.w3.org/2000/svg">
<rect width="143" height="42" rx="5" fill="white"/>
<path d="M27.4482 12.6738V28.5645H25.5674V20.5312H23.8096V27.7559H21.9814V12.9727H23.8096V18.9316H25.5674V12.6738H27.4482ZM16.4619 14.502V22.8867C17.833 22.8604 19.3359 22.7461 20.9971 22.4121L21.1904 24.1172C19.0459 24.5039 17.2354 24.6094 15.5479 24.6094H14.4932V14.502H16.4619ZM48.1201 20.3203V21.8672H41.8271V23.3965H46.3447V28.5645H44.3936V24.9785H35.2354V23.3965H39.8936V21.8672H33.6357V20.3203H48.1201ZM37.4502 13.0605V14.6426H44.3057V13.0605H46.2393V19.1426H35.5166V13.0605H37.4502ZM37.4502 17.5781H44.3057V16.1016H37.4502V17.5781ZM57.2783 14.2207V24.627H49.7549V14.2207H57.2783ZM51.6709 15.75V23.0625H55.3271V15.75H51.6709ZM61.6377 12.6738V18.7734H64.0811V20.4258H61.6377V28.5645H59.6865V12.6738H61.6377ZM77.6338 14.1504V16.0488C77.6338 18.3516 77.6338 20.5488 76.9307 23.9062L74.9795 23.7305C75.3047 22.3418 75.4893 21.1201 75.5947 19.9863L66.2256 20.4785L65.9619 18.8965L75.6826 18.5273C75.7178 17.6748 75.7178 16.8574 75.7178 16.0488V15.7324H66.4365V14.1504H77.6338ZM79.2334 24.9434V26.543H64.749V24.9434H79.2334ZM94.8252 25.1016V26.7188H80.3057V25.1016H86.5635V22.5176H82.0283V17.3145H91.1689V15.3457H81.9932V13.7637H93.1025V18.8613H83.9795V20.918H93.4717V22.5176H88.4971V25.1016H94.8252ZM113.353 12.6738V28.582H111.384V12.6738H113.353ZM104.792 13.834C107.183 13.834 108.923 16.0137 108.94 19.4414C108.923 22.9043 107.183 25.0664 104.792 25.0664C102.384 25.0664 100.644 22.9043 100.644 19.4414C100.644 16.0137 102.384 13.834 104.792 13.834ZM104.792 15.5918C103.438 15.5918 102.524 17.0156 102.524 19.4414C102.524 21.8848 103.438 23.3086 104.792 23.3086C106.128 23.3086 107.042 21.8848 107.042 19.4414C107.042 17.0156 106.128 15.5918 104.792 15.5918ZM130.192 20.2852V21.8496H115.69V20.2852H121.983V18.7734H117.466V13.3945H128.435V14.9238H119.417V17.2266H128.522V18.7734H123.899V20.2852H130.192ZM122.915 22.7637C126.343 22.7637 128.399 23.8008 128.417 25.6641C128.399 27.5098 126.343 28.5645 122.915 28.5645C119.452 28.5645 117.378 27.5098 117.378 25.6641C117.378 23.8008 119.452 22.7637 122.915 22.7637ZM122.915 24.2578C120.595 24.2578 119.347 24.75 119.364 25.6641C119.347 26.5781 120.595 27.0527 122.915 27.0527C125.183 27.0527 126.448 26.5781 126.466 25.6641C126.448 24.75 125.183 24.2578 122.915 24.2578Z" fill="black"/>
<path d="M72 47.9578L65.9378 38.9894H78.0622L72 47.9578Z" fill="white"/>
</svg>
