<svg width="65" height="65" viewBox="0 0 65 65" fill="none" xmlns="http://www.w3.org/2000/svg">
<rect width="65" height="65" rx="32.5" fill="white"/>
<path d="M32.7168 17.3334C30.5828 17.3334 28.4697 17.7537 26.4982 18.5703C24.5266 19.387 22.7353 20.5839 21.2263 22.0929C18.1788 25.1404 16.4668 29.2736 16.4668 33.5834C16.4668 37.8931 18.1788 42.0264 21.2263 45.0739C22.7353 46.5828 24.5266 47.7798 26.4982 48.5964C28.4697 49.4131 30.5828 49.8334 32.7168 49.8334C37.0266 49.8334 41.1598 48.1213 44.2073 45.0739C47.2547 42.0264 48.9668 37.8931 48.9668 33.5834C48.9668 31.4494 48.5465 29.3363 47.7298 27.3648C46.9132 25.3932 45.7162 23.6018 44.2073 22.0929C42.6983 20.5839 40.9069 19.387 38.9354 18.5703C36.9639 17.7537 34.8508 17.3334 32.7168 17.3334ZM24.7055 43.7884C25.4043 42.3259 29.6618 40.8959 32.7168 40.8959C35.7718 40.8959 40.0293 42.3259 40.728 43.7884C38.4516 45.6011 35.6268 46.5866 32.7168 46.5834C29.6943 46.5834 26.9155 45.5434 24.7055 43.7884ZM43.0518 41.4321C40.728 38.6046 35.0893 37.6459 32.7168 37.6459C30.3443 37.6459 24.7055 38.6046 22.3818 41.4321C20.6533 39.1808 19.7165 36.4217 19.7168 33.5834C19.7168 26.4171 25.5505 20.5834 32.7168 20.5834C39.883 20.5834 45.7168 26.4171 45.7168 33.5834C45.7168 36.5409 44.7093 39.2709 43.0518 41.4321ZM32.7168 23.8334C29.5643 23.8334 27.0293 26.3684 27.0293 29.5209C27.0293 32.6734 29.5643 35.2084 32.7168 35.2084C35.8693 35.2084 38.4043 32.6734 38.4043 29.5209C38.4043 26.3684 35.8693 23.8334 32.7168 23.8334ZM32.7168 31.9584C32.0703 31.9584 31.4503 31.7016 30.9932 31.2444C30.5361 30.7873 30.2793 30.1673 30.2793 29.5209C30.2793 28.8744 30.5361 28.2544 30.9932 27.7973C31.4503 27.3402 32.0703 27.0834 32.7168 27.0834C33.3633 27.0834 33.9832 27.3402 34.4404 27.7973C34.8975 28.2544 35.1543 28.8744 35.1543 29.5209C35.1543 30.1673 34.8975 30.7873 34.4404 31.2444C33.9832 31.7016 33.3633 31.9584 32.7168 31.9584Z" fill="#F15A25"/>
</svg>
