<svg width="775" height="28" viewBox="0 0 775 28" fill="none" xmlns="http://www.w3.org/2000/svg">
<path fill-rule="evenodd" clip-rule="evenodd" d="M9.44946 0.0278263L9.44946 9.47852L0.000106812 9.47852V9.47798C0.000106812 4.25907 4.23065 0.0282574 9.44946 0.0278263Z" fill="#F15A25"/>
<path fill-rule="evenodd" clip-rule="evenodd" d="M23.6181 27.3755L9.4563 27.3755L9.4563 9.48163C17.2778 9.48231 23.6181 17.4739 23.6181 27.3319C23.6181 27.3464 23.6181 27.361 23.6181 27.3755Z" fill="#F15A25"/>
<path fill-rule="evenodd" clip-rule="evenodd" d="M23.6184 27.3229V13.6729H37.9941C37.994 21.2109 31.558 27.3218 23.6184 27.3229Z" fill="#F15A25"/>
<path fill-rule="evenodd" clip-rule="evenodd" d="M37.9998 0.0257015V13.6758H23.6232C23.6233 6.13746 30.0597 0.0263891 37.9998 0.0257015Z" fill="#F15A25"/>
<path d="M59.7612 21.6685C56.6753 21.6685 54.8003 19.3833 54.8003 16.1997C54.8003 12.9575 56.7339 10.7114 59.7222 10.7114C62.144 10.7114 63.9019 12.1372 64.1167 14.2856H62.0854C61.8706 13.2896 61.0698 12.4497 59.7612 12.4497C58.0425 12.4497 56.8901 13.8755 56.8901 16.1411C56.8901 18.4653 58.0229 19.8911 59.7612 19.8911C60.9331 19.8911 61.8315 19.2466 62.0854 18.0942H64.1167C63.8823 20.145 62.2612 21.6685 59.7612 21.6685ZM74.937 21.6685C72.3784 21.6685 70.5034 19.5981 70.5034 16.1802C70.5034 12.7231 72.3979 10.7114 74.9565 10.7114C76.9292 10.7114 77.6519 11.9028 78.0229 12.5669H78.1206V7.31299H80.2104V21.4536H78.1792V19.7935H78.0229C77.6323 20.4966 76.8706 21.6685 74.937 21.6685ZM75.4058 19.8911C77.1831 19.8911 78.1792 18.3677 78.1792 16.1411C78.1792 13.9341 77.2026 12.4888 75.4058 12.4888C73.5503 12.4888 72.6323 14.0513 72.6323 16.1411C72.6323 18.27 73.5894 19.8911 75.4058 19.8911ZM87.4175 21.6685C84.4097 21.6685 82.4565 19.481 82.4565 16.1997C82.4565 12.8989 84.4097 10.7114 87.4175 10.7114C90.4058 10.7114 92.3589 12.8989 92.3589 16.1997C92.3589 19.481 90.4058 21.6685 87.4175 21.6685ZM87.4175 19.9302C89.3315 19.9302 90.2495 18.231 90.2495 16.1997C90.2495 14.1685 89.3315 12.4302 87.4175 12.4302C85.4644 12.4302 84.5464 14.1685 84.5464 16.1997C84.5464 18.231 85.4644 19.9302 87.4175 19.9302ZM99.3706 10.8481V12.5083H97.2026V18.3286C97.2026 19.52 97.8081 19.7349 98.4722 19.7544C98.7651 19.7544 99.2339 19.7153 99.5269 19.6958V21.5122C99.2339 21.5513 98.7847 21.5903 98.2183 21.5903C96.5776 21.5903 95.1128 20.6919 95.1323 18.7583V12.5083H93.5698V10.8481H95.1323V8.30908H97.2026V10.8481H99.3706ZM105.777 21.6685C102.769 21.6685 100.816 19.481 100.816 16.1997C100.816 12.8989 102.769 10.7114 105.777 10.7114C108.765 10.7114 110.718 12.8989 110.718 16.1997C110.718 19.481 108.765 21.6685 105.777 21.6685ZM105.777 19.9302C107.691 19.9302 108.609 18.231 108.609 16.1997C108.609 14.1685 107.691 12.4302 105.777 12.4302C103.824 12.4302 102.906 14.1685 102.906 16.1997C102.906 18.231 103.824 19.9302 105.777 19.9302ZM112.769 21.4536V10.8481H114.781V12.5278H114.898C115.289 11.395 116.343 10.6919 117.593 10.6919C117.847 10.6919 118.257 10.7114 118.472 10.731V12.7231C118.296 12.6841 117.808 12.606 117.378 12.606C115.933 12.606 114.859 13.6021 114.859 14.9888V21.4536H112.769ZM124.253 21.6685C121.128 21.6685 119.214 19.52 119.214 16.2192C119.214 12.9575 121.167 10.7114 124.117 10.7114C126.539 10.7114 128.824 12.2153 128.824 16.0435V16.7856H121.285C121.343 18.7974 122.525 19.9497 124.273 19.9497C125.464 19.9497 126.226 19.4419 126.578 18.7974H128.687C128.218 20.5161 126.578 21.6685 124.253 21.6685ZM121.304 15.2231H126.773C126.773 13.6021 125.738 12.4302 124.136 12.4302C122.466 12.4302 121.382 13.7192 121.304 15.2231ZM130.406 18.4653C130.406 16.0435 132.457 15.4185 134.371 15.2817C135.074 15.2329 136.666 15.145 137.164 15.1255L137.144 14.2856C137.144 13.0942 136.421 12.3911 134.996 12.3911C133.765 12.3911 133.023 12.9575 132.808 13.7388H130.738C130.933 11.981 132.574 10.7114 135.074 10.7114C136.753 10.7114 139.234 11.3364 139.234 14.4028V21.4536H137.203V20.0083H137.125C136.714 20.8091 135.738 21.688 133.98 21.688C131.968 21.688 130.406 20.5356 130.406 18.4653ZM132.437 18.4849C132.437 19.5005 133.277 20.0278 134.449 20.0278C136.148 20.0278 137.164 18.895 137.164 17.6255V16.6489L134.664 16.8247C133.296 16.9224 132.437 17.4302 132.437 18.4849ZM145.718 21.6685C143.16 21.6685 141.285 19.5981 141.285 16.1802C141.285 12.7231 143.179 10.7114 145.738 10.7114C147.71 10.7114 148.433 11.9028 148.804 12.5669H148.902V7.31299H150.992V21.4536H148.96V19.7935H148.804C148.414 20.4966 147.652 21.6685 145.718 21.6685ZM146.187 19.8911C147.964 19.8911 148.96 18.3677 148.96 16.1411C148.96 13.9341 147.984 12.4888 146.187 12.4888C144.332 12.4888 143.414 14.0513 143.414 16.1411C143.414 18.27 144.371 19.8911 146.187 19.8911Z" fill="#D9D9D9"/>
<path d="M240.742 8.41553V6.56006H251.699V8.41553H247.304V20.7007H245.156V8.41553H240.742ZM256.738 20.9155C253.613 20.9155 251.699 18.7671 251.699 15.4663C251.699 12.2046 253.652 9.9585 256.601 9.9585C259.023 9.9585 261.308 11.4624 261.308 15.2905V16.0327H253.769C253.828 18.0444 255.009 19.1968 256.757 19.1968C257.949 19.1968 258.71 18.689 259.062 18.0444H261.171C260.703 19.7632 259.062 20.9155 256.738 20.9155ZM253.789 14.4702H259.257C259.257 12.8491 258.222 11.6772 256.621 11.6772C254.951 11.6772 253.867 12.9663 253.789 14.4702ZM263.378 20.7007V10.0952H265.39V11.7749H265.507C265.898 10.6421 266.953 9.93896 268.203 9.93896C268.457 9.93896 268.867 9.9585 269.082 9.97803V11.9702C268.906 11.9312 268.417 11.853 267.988 11.853C266.542 11.853 265.468 12.8491 265.468 14.2358V20.7007H263.378ZM270.644 20.7007V10.0952H272.656V11.8335H272.773C273.222 10.6421 274.257 9.9585 275.664 9.9585C277.07 9.9585 278.066 10.6616 278.515 11.8335H278.632C279.14 10.6812 280.273 9.9585 281.816 9.9585C283.73 9.9585 285.097 11.1694 285.097 13.5913V20.7007H283.007V13.7866C283.007 12.3608 282.109 11.7554 281.015 11.7554C279.667 11.7554 278.906 12.6733 278.906 13.9429V20.7007H276.835V13.6694C276.835 12.5171 276.035 11.7554 274.902 11.7554C273.73 11.7554 272.734 12.7319 272.734 14.1577V20.7007H270.644ZM293.574 12.9858C293.378 12.146 292.714 11.5991 291.562 11.5991C290.371 11.5991 289.511 12.2241 289.531 13.0249C289.511 13.6499 290.019 14.0991 291.191 14.3726L292.871 14.7632C294.824 15.1929 295.761 16.1304 295.781 17.6343C295.761 19.5483 294.16 20.9155 291.445 20.9155C288.906 20.9155 287.382 19.7827 287.128 17.8101H289.257C289.433 18.7671 290.175 19.2358 291.425 19.2358C292.773 19.2358 293.632 18.689 293.652 17.7905C293.632 17.1069 293.125 16.6577 292.011 16.4038L290.351 16.0522C288.437 15.6226 287.441 14.6069 287.441 13.1421C287.441 11.2476 289.082 9.9585 291.542 9.9585C293.906 9.9585 295.371 11.1694 295.585 12.9858H293.574Z" fill="#D9D9D9"/>
<path d="M385.445 20.7007V6.56006H390.484C393.765 6.56006 395.386 8.53271 395.386 11.1499C395.386 13.7476 393.765 15.7397 390.484 15.7397H387.593V20.7007H385.445ZM387.593 13.9038H390.269C392.359 13.9038 393.218 12.7319 393.218 11.1499C393.218 9.54834 392.359 8.396 390.269 8.396H387.593V13.9038ZM397.476 20.7007V10.0952H399.488V11.7749H399.605C399.996 10.6421 401.05 9.93896 402.3 9.93896C402.554 9.93896 402.964 9.9585 403.179 9.97803V11.9702C403.003 11.9312 402.515 11.853 402.085 11.853C400.64 11.853 399.566 12.8491 399.566 14.2358V20.7007H397.476ZM404.742 20.7007V10.0952H406.832V20.7007H404.742ZM405.796 8.45459C405.074 8.45459 404.468 7.90771 404.468 7.22412C404.468 6.54053 405.074 5.99365 405.796 5.99365C406.5 5.99365 407.105 6.54053 407.105 7.22412C407.105 7.90771 406.5 8.45459 405.796 8.45459ZM418.472 10.0952L414.625 20.7007H412.378L408.531 10.0952H410.777L413.453 18.2397H413.55L416.226 10.0952H418.472ZM419.351 17.7124C419.351 15.2905 421.402 14.6655 423.316 14.5288C424.019 14.48 425.611 14.3921 426.109 14.3726L426.089 13.5327C426.089 12.3413 425.367 11.6382 423.941 11.6382C422.71 11.6382 421.968 12.2046 421.753 12.9858H419.683C419.878 11.228 421.519 9.9585 424.019 9.9585C425.699 9.9585 428.179 10.5835 428.179 13.6499V20.7007H426.148V19.2554H426.07C425.66 20.0562 424.683 20.9351 422.925 20.9351C420.914 20.9351 419.351 19.7827 419.351 17.7124ZM421.382 17.7319C421.382 18.7476 422.222 19.2749 423.394 19.2749C425.093 19.2749 426.109 18.1421 426.109 16.8726V15.896L423.609 16.0718C422.242 16.1694 421.382 16.6772 421.382 17.7319ZM435.191 20.9155C432.105 20.9155 430.23 18.6304 430.23 15.4468C430.23 12.2046 432.164 9.9585 435.152 9.9585C437.574 9.9585 439.332 11.3843 439.546 13.5327H437.515C437.3 12.5366 436.5 11.6968 435.191 11.6968C433.472 11.6968 432.32 13.1226 432.32 15.3882C432.32 17.7124 433.453 19.1382 435.191 19.1382C436.363 19.1382 437.261 18.4937 437.515 17.3413H439.546C439.312 19.3921 437.691 20.9155 435.191 20.9155ZM442.808 24.6851C442.378 24.6851 441.968 24.6655 441.695 24.6265V22.8882C441.929 22.9077 442.339 22.9272 442.632 22.9272C443.277 22.9272 443.824 22.8687 444.312 21.5405L444.566 20.8374L440.679 10.0952H442.906L445.582 18.3179H445.699L448.375 10.0952H450.621L446.246 22.1069C445.64 23.7866 444.546 24.6851 442.808 24.6851Z" fill="#D9D9D9"/>
<path d="M548.14 10.2905C548.003 8.98193 546.851 8.22021 545.23 8.22021C543.492 8.22021 542.398 9.09912 542.398 10.3101C542.398 11.6577 543.863 12.1655 544.976 12.439L546.343 12.8101C548.16 13.2397 550.406 14.2358 550.425 16.7944C550.406 19.1772 548.511 20.9351 545.171 20.9351C542.007 20.9351 540.015 19.353 539.878 16.7749H542.027C542.164 18.3179 543.511 19.0601 545.171 19.0601C546.968 19.0601 548.277 18.1421 548.296 16.7554C548.277 15.5249 547.125 15.0171 545.621 14.6265L543.941 14.1772C541.675 13.5522 540.25 12.3999 540.25 10.4272C540.25 7.98584 542.437 6.36475 545.289 6.36475C548.16 6.36475 550.171 8.00537 550.23 10.2905H548.14ZM557.125 20.9155C554 20.9155 552.085 18.7671 552.085 15.4663C552.085 12.2046 554.039 9.9585 556.988 9.9585C559.41 9.9585 561.695 11.4624 561.695 15.2905V16.0327H554.156C554.214 18.0444 555.396 19.1968 557.144 19.1968C558.335 19.1968 559.097 18.689 559.449 18.0444H561.558C561.089 19.7632 559.449 20.9155 557.125 20.9155ZM554.175 14.4702H559.644C559.644 12.8491 558.609 11.6772 557.007 11.6772C555.337 11.6772 554.253 12.9663 554.175 14.4702ZM568.257 20.9155C565.171 20.9155 563.296 18.6304 563.296 15.4468C563.296 12.2046 565.23 9.9585 568.218 9.9585C570.64 9.9585 572.398 11.3843 572.613 13.5327H570.582C570.367 12.5366 569.566 11.6968 568.257 11.6968C566.539 11.6968 565.386 13.1226 565.386 15.3882C565.386 17.7124 566.519 19.1382 568.257 19.1382C569.429 19.1382 570.328 18.4937 570.582 17.3413H572.613C572.378 19.3921 570.757 20.9155 568.257 20.9155ZM581.324 16.2866V10.0952H583.394V20.7007H581.363V18.8647H581.246C580.757 19.9976 579.664 20.8374 578.082 20.8374C576.031 20.8374 574.585 19.4702 574.585 16.8335V10.0952H576.675V16.5796C576.675 18.0249 577.554 18.9429 578.824 18.9429C579.976 18.9429 581.324 18.103 581.324 16.2866ZM585.933 20.7007V10.0952H587.945V11.7749H588.062C588.453 10.6421 589.507 9.93896 590.757 9.93896C591.011 9.93896 591.421 9.9585 591.636 9.97803V11.9702C591.46 11.9312 590.972 11.853 590.542 11.853C589.097 11.853 588.023 12.8491 588.023 14.2358V20.7007H585.933ZM593.199 20.7007V10.0952H595.289V20.7007H593.199ZM594.253 8.45459C593.531 8.45459 592.925 7.90771 592.925 7.22412C592.925 6.54053 593.531 5.99365 594.253 5.99365C594.957 5.99365 595.562 6.54053 595.562 7.22412C595.562 7.90771 594.957 8.45459 594.253 8.45459ZM602.789 10.0952V11.7554H600.621V17.5757C600.621 18.7671 601.226 18.9819 601.89 19.0015C602.183 19.0015 602.652 18.9624 602.945 18.9429V20.7593C602.652 20.7983 602.203 20.8374 601.636 20.8374C599.996 20.8374 598.531 19.939 598.55 18.0054V11.7554H596.988V10.0952H598.55V7.55615H600.621V10.0952H602.789ZM606.109 24.6851C605.679 24.6851 605.269 24.6655 604.996 24.6265V22.8882C605.23 22.9077 605.64 22.9272 605.933 22.9272C606.578 22.9272 607.125 22.8687 607.613 21.5405L607.867 20.8374L603.98 10.0952H606.207L608.882 18.3179H609L611.675 10.0952H613.921L609.546 22.1069C608.941 23.7866 607.847 24.6851 606.109 24.6851Z" fill="#D9D9D9"/>
<path d="M713.015 11.1694C712.664 9.35303 711.16 8.3374 709.363 8.3374C706.921 8.3374 705.105 10.2124 705.105 13.6304C705.105 17.0679 706.941 18.9233 709.363 18.9233C711.14 18.9233 712.644 17.9272 713.015 16.1304L715.183 16.1499C714.734 18.9429 712.449 20.896 709.343 20.896C705.652 20.896 702.976 18.1421 702.976 13.6304C702.976 9.09912 705.671 6.36475 709.343 6.36475C712.332 6.36475 714.695 8.12256 715.183 11.1694H713.015ZM721.824 20.9155C718.816 20.9155 716.863 18.728 716.863 15.4468C716.863 12.146 718.816 9.9585 721.824 9.9585C724.812 9.9585 726.765 12.146 726.765 15.4468C726.765 18.728 724.812 20.9155 721.824 20.9155ZM721.824 19.1772C723.738 19.1772 724.656 17.478 724.656 15.4468C724.656 13.4155 723.738 11.6772 721.824 11.6772C719.871 11.6772 718.953 13.4155 718.953 15.4468C718.953 17.478 719.871 19.1772 721.824 19.1772ZM730.906 14.4116V20.7007H728.816V10.0952H730.828V11.8335H730.945C731.453 10.7007 732.488 9.9585 734.07 9.9585C736.257 9.9585 737.683 11.3257 737.683 13.9624V20.7007H735.613V14.2163C735.613 12.6733 734.773 11.7554 733.367 11.7554C731.941 11.7554 730.906 12.7124 730.906 14.4116ZM745.183 10.0952V11.7554H743.015V17.5757C743.015 18.7671 743.621 18.9819 744.285 19.0015C744.578 19.0015 745.046 18.9624 745.339 18.9429V20.7593C745.046 20.7983 744.597 20.8374 744.031 20.8374C742.39 20.8374 740.925 19.939 740.945 18.0054V11.7554H739.382V10.0952H740.945V7.55615H743.015V10.0952H745.183ZM746.726 17.7124C746.726 15.2905 748.777 14.6655 750.691 14.5288C751.394 14.48 752.986 14.3921 753.484 14.3726L753.464 13.5327C753.464 12.3413 752.742 11.6382 751.316 11.6382C750.085 11.6382 749.343 12.2046 749.128 12.9858H747.058C747.253 11.228 748.894 9.9585 751.394 9.9585C753.074 9.9585 755.554 10.5835 755.554 13.6499V20.7007H753.523V19.2554H753.445C753.035 20.0562 752.058 20.9351 750.3 20.9351C748.289 20.9351 746.726 19.7827 746.726 17.7124ZM748.757 17.7319C748.757 18.7476 749.597 19.2749 750.769 19.2749C752.468 19.2749 753.484 18.1421 753.484 16.8726V15.896L750.984 16.0718C749.617 16.1694 748.757 16.6772 748.757 17.7319ZM762.566 20.9155C759.48 20.9155 757.605 18.6304 757.605 15.4468C757.605 12.2046 759.539 9.9585 762.527 9.9585C764.949 9.9585 766.707 11.3843 766.921 13.5327H764.89C764.675 12.5366 763.875 11.6968 762.566 11.6968C760.847 11.6968 759.695 13.1226 759.695 15.3882C759.695 17.7124 760.828 19.1382 762.566 19.1382C763.738 19.1382 764.636 18.4937 764.89 17.3413H766.921C766.687 19.3921 765.066 20.9155 762.566 20.9155ZM773.855 10.0952V11.7554H771.687V17.5757C771.687 18.7671 772.292 18.9819 772.957 19.0015C773.25 19.0015 773.718 18.9624 774.011 18.9429V20.7593C773.718 20.7983 773.269 20.8374 772.703 20.8374C771.062 20.8374 769.597 19.939 769.617 18.0054V11.7554H768.054V10.0952H769.617V7.55615H771.687V10.0952H773.855Z" fill="#D9D9D9"/>
</svg>
