<svg width="197" height="112" viewBox="0 0 197 112" fill="none" xmlns="http://www.w3.org/2000/svg">
<rect x="0.859719" y="0.859719" width="194.296" height="110.044" rx="16.3347" fill="#212121" stroke="#F15A25" stroke-width="1.71944"/>
<g filter="url(#filter0_i_1639_2311)">
<path d="M21.5857 74.3911H41.1884C41.1884 74.3911 41.7915 81.3966 39.9821 83.9185C38.1726 86.4405 34.2517 85.5998 33.0454 86.4405C31.8391 87.2812 31.5376 87.8416 31.5376 87.8416C31.5376 87.8416 31.5376 86.9317 30.0297 86.4405C28.5218 85.9493 25.5061 86.4405 23.3951 83.9185C21.2841 81.3966 21.5857 74.3911 21.5857 74.3911Z" fill="#F15A25"/>
<path d="M23.6812 65.9809C27.9024 63.7391 30.0142 64.2996 30.0142 64.2996C30.0142 64.2996 30.3666 63.4546 30.3166 62.8985C30.2638 62.3111 30.015 61.7776 29.7127 61.4974C29.4103 61.2172 30.3166 61.2173 31.2213 62.0578C32.126 62.8983 33.3315 64.2996 33.3315 64.2996C33.3315 64.2996 35.1402 64.0194 38.7599 65.9809C42.3795 67.9424 42.0766 73.2666 41.4743 73.2665C40.8719 73.2663 21.8726 73.5466 21.2694 73.2665C20.6662 72.9863 19.46 68.2226 23.6812 65.9809Z" fill="#F15A25"/>
</g>
<g filter="url(#filter1_i_1639_2311)">
<path d="M54.8254 74.3911H74.4281C74.4281 74.3911 75.0313 81.3966 73.2218 83.9185C71.4124 86.4405 67.4915 85.5998 66.2852 86.4405C65.0789 87.2812 64.7773 87.8416 64.7773 87.8416C64.7773 87.8416 64.7773 86.9317 63.2694 86.4405C61.7616 85.9493 58.7458 86.4405 56.6348 83.9185C54.5238 81.3966 54.8254 74.3911 54.8254 74.3911Z" fill="#F15A25"/>
<path d="M56.9209 65.9809C61.1422 63.7391 63.254 64.2996 63.254 64.2996C63.254 64.2996 63.6064 63.4546 63.5564 62.8985C63.5035 62.3111 63.2548 61.7776 62.9524 61.4974C62.65 61.2172 63.5564 61.2173 64.4611 62.0578C65.3658 62.8983 66.5713 64.2996 66.5713 64.2996C66.5713 64.2996 68.3799 64.0194 71.9996 65.9809C75.6193 67.9424 75.3164 73.2666 74.714 73.2665C74.1117 73.2663 55.1123 73.5466 54.5091 73.2665C53.906 72.9863 52.6997 68.2226 56.9209 65.9809Z" fill="#F15A25"/>
</g>
<g filter="url(#filter2_i_1639_2311)">
<path d="M88.0642 74.3911H107.667C107.667 74.3911 108.27 81.3966 106.461 83.9185C104.651 86.4405 100.73 85.5998 99.5239 86.4405C98.3176 87.2812 98.0161 87.8416 98.0161 87.8416C98.0161 87.8416 98.0161 86.9317 96.5082 86.4405C95.0003 85.9493 91.9846 86.4405 89.8736 83.9185C87.7626 81.3966 88.0642 74.3911 88.0642 74.3911Z" fill="#F15A25"/>
<path d="M90.1597 65.9809C94.3809 63.7391 96.4927 64.2996 96.4927 64.2996C96.4927 64.2996 96.8451 63.4546 96.7951 62.8985C96.7423 62.3111 96.4935 61.7776 96.1912 61.4974C95.8888 61.2172 96.7951 61.2173 97.6998 62.0578C98.6046 62.8983 99.8101 64.2996 99.8101 64.2996C99.8101 64.2996 101.619 64.0194 105.238 65.9809C108.858 67.9424 108.555 73.2666 107.953 73.2665C107.35 73.2663 88.3511 73.5466 87.7479 73.2665C87.1448 72.9863 85.9385 68.2226 90.1597 65.9809Z" fill="#F15A25"/>
</g>
<g filter="url(#filter3_i_1639_2311)">
<path d="M121.306 74.3911H140.909C140.909 74.3911 141.512 81.3966 139.703 83.9185C137.893 86.4405 133.972 85.5998 132.766 86.4405C131.56 87.2812 131.258 87.8416 131.258 87.8416C131.258 87.8416 131.258 86.9317 129.75 86.4405C128.243 85.9493 125.227 86.4405 123.116 83.9185C121.005 81.3966 121.306 74.3911 121.306 74.3911Z" fill="#F15A25"/>
<path d="M123.402 65.9809C127.623 63.7391 129.735 64.2996 129.735 64.2996C129.735 64.2996 130.087 63.4546 130.037 62.8985C129.984 62.3111 129.736 61.7776 129.433 61.4974C129.131 61.2172 130.037 61.2173 130.942 62.0578C131.847 62.8983 133.052 64.2996 133.052 64.2996C133.052 64.2996 134.861 64.0194 138.481 65.9809C142.1 67.9424 141.797 73.2666 141.195 73.2665C140.593 73.2663 121.593 73.5466 120.99 73.2665C120.387 72.9863 119.181 68.2226 123.402 65.9809Z" fill="#F15A25"/>
</g>
<g filter="url(#filter4_i_1639_2311)">
<path d="M154.549 74.3911H174.152C174.152 74.3911 174.755 81.3966 172.946 83.9185C171.136 86.4405 167.215 85.5998 166.009 86.4405C164.803 87.2812 164.501 87.8416 164.501 87.8416C164.501 87.8416 164.501 86.9317 162.993 86.4405C161.485 85.9493 158.47 86.4405 156.359 83.9185C154.248 81.3966 154.549 74.3911 154.549 74.3911Z" fill="#F15A25"/>
<path d="M156.645 65.9809C160.866 63.7391 162.978 64.2996 162.978 64.2996C162.978 64.2996 163.33 63.4546 163.28 62.8985C163.227 62.3111 162.979 61.7776 162.676 61.4974C162.374 61.2172 163.28 61.2173 164.185 62.0578C165.09 62.8983 166.295 64.2996 166.295 64.2996C166.295 64.2996 168.104 64.0194 171.723 65.9809C175.343 67.9424 175.04 73.2666 174.438 73.2665C173.836 73.2663 154.836 73.5466 154.233 73.2665C153.63 72.9863 152.424 68.2226 156.645 65.9809Z" fill="#F15A25"/>
</g>
<path d="M21.0058 21.8085C22.6928 21.8085 23.9488 22.8552 23.9611 24.3205C23.9488 25.7981 22.6928 26.8325 21.0058 26.8325C19.3065 26.8325 18.0505 25.7981 18.0505 24.3205C18.0505 22.8552 19.3065 21.8085 21.0058 21.8085ZM21.0058 22.9414C20.07 22.9414 19.3804 23.4709 19.3804 24.3205C19.3804 25.1825 20.07 25.7243 21.0058 25.7243C21.9416 25.7243 22.6312 25.1825 22.6312 24.3205C22.6312 23.4709 21.9416 22.9414 21.0058 22.9414ZM27.1257 21.4514V27.0788H25.7466V21.4514H27.1257ZM27.1257 27.559V30.465H21.1043V31.3639H27.4582V32.4475H19.7621V29.4553H25.7589V28.6303H19.7375V27.559H27.1257ZM38.8976 27.6575V28.7657H34.477V32.5707H33.1225V28.7657H28.7511V27.6575H38.8976ZM37.9617 22.0794V23.163H34.6247C34.7048 24.3821 36.1701 25.5519 38.3681 25.8351L37.8755 26.9064C35.9792 26.6416 34.5016 25.7735 33.8243 24.5668C33.1471 25.7735 31.6694 26.6416 29.7978 26.9064L29.2806 25.8351C31.4663 25.5519 32.9316 24.3821 33.0363 23.163H29.6869V22.0794H37.9617ZM42.801 21.8085C44.488 21.8085 45.744 22.8552 45.7563 24.3205C45.744 25.7981 44.488 26.8325 42.801 26.8325C41.1017 26.8325 39.8457 25.7981 39.8457 24.3205C39.8457 22.8552 41.1017 21.8085 42.801 21.8085ZM42.801 22.9414C41.8652 22.9414 41.1756 23.4709 41.1756 24.3205C41.1756 25.1825 41.8652 25.7243 42.801 25.7243C43.7368 25.7243 44.4264 25.1825 44.4264 24.3205C44.4264 23.4709 43.7368 22.9414 42.801 22.9414ZM48.9209 21.4514V27.0788H47.5418V21.4514H48.9209ZM48.9209 27.559V30.465H42.8995V31.3639H49.2534V32.4475H41.5573V29.4553H47.5541V28.6303H41.5327V27.559H48.9209ZM57.7375 24.616C57.7375 26.4385 58.8088 28.3594 60.6066 29.1105L59.8554 30.1941C58.5379 29.6277 57.5774 28.4579 57.0726 27.0418C56.5554 28.5687 55.5826 29.8493 54.2774 30.465L53.4893 29.3937C55.2501 28.581 56.3461 26.5123 56.3461 24.616V23.6802H53.8956V22.5473H60.1756V23.6802H57.7375V24.616ZM62.7984 21.4514V32.583H61.4193V21.4514H62.7984ZM66.2955 22.2272V26.4385C67.7239 26.42 69.2385 26.3153 70.8762 25.9828L71.024 27.1034C69.1892 27.4851 67.4776 27.5836 65.8399 27.5836H64.9164V22.2272H66.2955ZM73.2158 21.4637V24.653H74.7673V25.7981H73.2158V29.4676H71.849V21.4637H73.2158ZM73.5852 31.2531V32.3613H66.0985V28.7042H67.4776V31.2531H73.5852ZM82.3033 24.1235C82.291 26.106 83.2884 28.1254 85.0123 28.9504L84.175 30.0464C82.9682 29.4368 82.1001 28.2609 81.626 26.8448C81.1396 28.3594 80.2284 29.6154 78.954 30.2557L78.1166 29.1598C79.9021 28.3101 80.9242 26.1799 80.9365 24.1235V22.3503H82.3033V24.1235ZM87.0441 21.4514V25.8105H88.7557V26.9803H87.0441V32.583H85.6772V21.4514H87.0441ZM98.4835 21.4514V32.5953H97.1043V21.4514H98.4835ZM92.4867 22.2641C94.1614 22.2641 95.3804 23.791 95.3927 26.1922C95.3804 28.618 94.1614 30.1326 92.4867 30.1326C90.7997 30.1326 89.5807 28.618 89.5807 26.1922C89.5807 23.791 90.7997 22.2641 92.4867 22.2641ZM92.4867 23.4955C91.5385 23.4955 90.8982 24.4929 90.8982 26.1922C90.8982 27.9038 91.5385 28.9012 92.4867 28.9012C93.4225 28.9012 94.0629 27.9038 94.0629 26.1922C94.0629 24.4929 93.4225 23.4955 92.4867 23.4955ZM109.172 27.2881V28.3717H101.365V22.3257H109.073V23.4339H102.756V24.7761H108.815V25.8474H102.756V27.2881H109.172ZM110.292 30.1079V31.2285H100.121V30.1079H110.292ZM117.545 31.6102C115.76 31.6102 114.454 30.5512 114.405 29.0736H115.969C116.018 29.8001 116.695 30.3173 117.545 30.3173C118.542 30.3173 119.257 29.5908 119.257 28.6057C119.257 27.5836 118.518 26.8571 117.496 26.8571C116.806 26.8448 116.301 27.0911 116.018 27.6206H114.528L115.07 22.572H120.34V23.9141H116.388L116.117 26.2784H116.203C116.548 25.8843 117.2 25.6011 117.927 25.6011C119.589 25.6011 120.808 26.8448 120.808 28.5564C120.808 30.3419 119.466 31.6102 117.545 31.6102ZM131.065 21.4514V32.583H129.699V21.4514H131.065ZM121.843 29.4922C122.729 29.4861 123.733 29.4861 124.785 29.4553V28.4333C123.529 28.2362 122.717 27.4666 122.717 26.4138C122.717 25.1578 123.825 24.3205 125.45 24.3205C127.088 24.3205 128.221 25.1578 128.221 26.4138C128.221 27.4605 127.402 28.2239 126.152 28.421V29.406C127.131 29.363 128.116 29.2829 129.046 29.1598L129.145 30.1818C126.694 30.6005 124.047 30.6251 122.04 30.6251L121.843 29.4922ZM128.849 22.732V23.8156H122.076V22.732H124.785V21.4884H126.152V22.732H128.849ZM125.45 25.3672C124.613 25.3795 124.01 25.7612 124.022 26.4138C124.01 27.0541 124.613 27.4359 125.45 27.4235C126.325 27.4359 126.903 27.0541 126.903 26.4138C126.903 25.7612 126.325 25.3795 125.45 25.3672ZM140.843 28.3224C143.145 28.3224 144.561 29.0982 144.574 30.4404C144.561 31.7949 143.145 32.583 140.843 32.583C138.515 32.583 137.075 31.7949 137.075 30.4404C137.075 29.0982 138.515 28.3224 140.843 28.3224ZM140.843 29.3937C139.316 29.3937 138.441 29.7508 138.441 30.4404C138.441 31.13 139.316 31.4994 140.843 31.4994C142.369 31.4994 143.219 31.13 143.219 30.4404C143.219 29.7508 142.369 29.3937 140.843 29.3937ZM144.463 21.4514V24.1112H146.014V25.2563H144.463V28.0515H143.096V21.4514H144.463ZM137.419 22.1533V23.6556H140.018V22.1533H141.372V27.3497H136.065V22.1533H137.419ZM137.419 26.2661H140.018V24.7269H137.419V26.2661ZM156.739 27.0172V28.1131H152.442V30.1572H151.087V28.1131H146.568V27.0172H156.739ZM155.434 21.9563V25.9828H147.861V21.9563H155.434ZM149.191 23.0276V24.9116H154.08V23.0276H149.191ZM155.619 31.2531V32.3613H147.8V29.1351H149.167V31.2531H155.619ZM166.196 21.4514V25.8843H167.908V27.0172H166.196V32.583H164.842V21.4514H166.196ZM163.98 23.163V24.2589H157.417V23.163H160.052V21.6115H161.419V23.163H163.98ZM160.741 24.9854C162.342 24.9854 163.537 26.069 163.537 27.6083C163.537 29.1475 162.342 30.2188 160.741 30.2188C159.116 30.2188 157.922 29.1475 157.934 27.6083C157.922 26.069 159.116 24.9854 160.741 24.9854ZM160.741 26.106C159.867 26.106 159.239 26.697 159.239 27.6083C159.239 28.5195 159.867 29.0982 160.741 29.0859C161.591 29.0982 162.219 28.5195 162.231 27.6083C162.219 26.697 161.591 26.106 160.741 26.106ZM177.673 21.4514V32.583H176.294V21.4514H177.673ZM174.348 22.6335C174.348 25.9459 173.067 28.7657 169.164 30.6128L168.45 29.5169C171.362 28.1316 172.716 26.2476 172.957 23.7171H169.016V22.6335H174.348Z" fill="white"/>
<line x1="14.8999" y1="43.722" x2="180.539" y2="43.722" stroke="#5C5C5C" stroke-width="1.14629"/>
<defs>
<filter id="filter0_i_1639_2311" x="20.6362" y="61.3298" width="21.2063" height="28.4734" filterUnits="userSpaceOnUse" color-interpolation-filters="sRGB">
<feFlood flood-opacity="0" result="BackgroundImageFix"/>
<feBlend mode="normal" in="SourceGraphic" in2="BackgroundImageFix" result="shape"/>
<feColorMatrix in="SourceAlpha" type="matrix" values="0 0 0 0 0 0 0 0 0 0 0 0 0 0 0 0 0 0 127 0" result="hardAlpha"/>
<feOffset dy="1.96172"/>
<feGaussianBlur stdDeviation="0.980861"/>
<feComposite in2="hardAlpha" operator="arithmetic" k2="-1" k3="1"/>
<feColorMatrix type="matrix" values="0 0 0 0 0 0 0 0 0 0 0 0 0 0 0 0 0 0 0.25 0"/>
<feBlend mode="normal" in2="shape" result="effect1_innerShadow_1639_2311"/>
</filter>
<filter id="filter1_i_1639_2311" x="53.876" y="61.3298" width="21.2063" height="28.4734" filterUnits="userSpaceOnUse" color-interpolation-filters="sRGB">
<feFlood flood-opacity="0" result="BackgroundImageFix"/>
<feBlend mode="normal" in="SourceGraphic" in2="BackgroundImageFix" result="shape"/>
<feColorMatrix in="SourceAlpha" type="matrix" values="0 0 0 0 0 0 0 0 0 0 0 0 0 0 0 0 0 0 127 0" result="hardAlpha"/>
<feOffset dy="1.96172"/>
<feGaussianBlur stdDeviation="0.980861"/>
<feComposite in2="hardAlpha" operator="arithmetic" k2="-1" k3="1"/>
<feColorMatrix type="matrix" values="0 0 0 0 0 0 0 0 0 0 0 0 0 0 0 0 0 0 0.25 0"/>
<feBlend mode="normal" in2="shape" result="effect1_innerShadow_1639_2311"/>
</filter>
<filter id="filter2_i_1639_2311" x="87.1147" y="61.3298" width="21.2063" height="28.4734" filterUnits="userSpaceOnUse" color-interpolation-filters="sRGB">
<feFlood flood-opacity="0" result="BackgroundImageFix"/>
<feBlend mode="normal" in="SourceGraphic" in2="BackgroundImageFix" result="shape"/>
<feColorMatrix in="SourceAlpha" type="matrix" values="0 0 0 0 0 0 0 0 0 0 0 0 0 0 0 0 0 0 127 0" result="hardAlpha"/>
<feOffset dy="1.96172"/>
<feGaussianBlur stdDeviation="0.980861"/>
<feComposite in2="hardAlpha" operator="arithmetic" k2="-1" k3="1"/>
<feColorMatrix type="matrix" values="0 0 0 0 0 0 0 0 0 0 0 0 0 0 0 0 0 0 0.25 0"/>
<feBlend mode="normal" in2="shape" result="effect1_innerShadow_1639_2311"/>
</filter>
<filter id="filter3_i_1639_2311" x="120.357" y="61.3298" width="21.2063" height="28.4734" filterUnits="userSpaceOnUse" color-interpolation-filters="sRGB">
<feFlood flood-opacity="0" result="BackgroundImageFix"/>
<feBlend mode="normal" in="SourceGraphic" in2="BackgroundImageFix" result="shape"/>
<feColorMatrix in="SourceAlpha" type="matrix" values="0 0 0 0 0 0 0 0 0 0 0 0 0 0 0 0 0 0 127 0" result="hardAlpha"/>
<feOffset dy="1.96172"/>
<feGaussianBlur stdDeviation="0.980861"/>
<feComposite in2="hardAlpha" operator="arithmetic" k2="-1" k3="1"/>
<feColorMatrix type="matrix" values="0 0 0 0 0 0 0 0 0 0 0 0 0 0 0 0 0 0 0.25 0"/>
<feBlend mode="normal" in2="shape" result="effect1_innerShadow_1639_2311"/>
</filter>
<filter id="filter4_i_1639_2311" x="153.6" y="61.3298" width="21.2063" height="28.4734" filterUnits="userSpaceOnUse" color-interpolation-filters="sRGB">
<feFlood flood-opacity="0" result="BackgroundImageFix"/>
<feBlend mode="normal" in="SourceGraphic" in2="BackgroundImageFix" result="shape"/>
<feColorMatrix in="SourceAlpha" type="matrix" values="0 0 0 0 0 0 0 0 0 0 0 0 0 0 0 0 0 0 127 0" result="hardAlpha"/>
<feOffset dy="1.96172"/>
<feGaussianBlur stdDeviation="0.980861"/>
<feComposite in2="hardAlpha" operator="arithmetic" k2="-1" k3="1"/>
<feColorMatrix type="matrix" values="0 0 0 0 0 0 0 0 0 0 0 0 0 0 0 0 0 0 0.25 0"/>
<feBlend mode="normal" in2="shape" result="effect1_innerShadow_1639_2311"/>
</filter>
</defs>
</svg>
