<svg width="274" height="154" viewBox="0 0 274 154" fill="none" xmlns="http://www.w3.org/2000/svg">
<g clip-path="url(#clip0_1950_1747)">
<rect width="274" height="153.05" rx="8.59833" fill="white"/>
<rect width="274" height="153" rx="8.59833" fill="black"/>
<rect y="124.389" width="274" height="28.6611" fill="#F15A25"/>
<path d="M20.934 62.6185V65.3223H20.0355V59.243H20.9172V61.5101H20.976C21.1943 61.0147 21.6141 60.704 22.3279 60.704C23.2683 60.704 23.8897 61.2834 23.8897 62.4254V65.3223H22.9912V62.5345C22.9912 61.8628 22.6302 61.4765 22.0256 61.4765C21.3958 61.4765 20.934 61.888 20.934 62.6185ZM27.1056 60.7628V61.4765H26.1736V63.9788C26.1736 64.491 26.4339 64.5833 26.7194 64.5917C26.8453 64.5917 27.0469 64.575 27.1728 64.5666V65.3475C27.0469 65.3642 26.8537 65.381 26.6102 65.381C25.9049 65.381 25.2751 64.9948 25.2835 64.1635V61.4765H24.6118V60.7628H25.2835V59.6712H26.1736V60.7628H27.1056ZM30.1117 60.7628V61.4765H29.1797V63.9788C29.1797 64.491 29.44 64.5833 29.7254 64.5917C29.8514 64.5917 30.0529 64.575 30.1789 64.5666V65.3475C30.0529 65.3642 29.8598 65.381 29.6163 65.381C28.911 65.381 28.2812 64.9948 28.2896 64.1635V61.4765H27.6179V60.7628H28.2896V59.6712H29.1797V60.7628H30.1117ZM30.985 67.0352V60.7628H31.8582V61.5017H31.9338C32.0933 61.2162 32.404 60.704 33.2437 60.704C34.3437 60.704 35.1582 61.5689 35.1582 63.0551C35.1582 64.5246 34.3605 65.4146 33.2521 65.4146C32.4208 65.4146 32.0933 64.9108 31.9338 64.6085H31.8834V67.0352H30.985ZM31.8666 63.0383C31.8666 63.9956 32.2865 64.6505 33.0506 64.6505C33.8399 64.6505 34.2513 63.9536 34.2513 63.0383C34.2513 62.1399 33.8483 61.4681 33.0506 61.4681C32.2781 61.4681 31.8666 62.0895 31.8666 63.0383ZM38.6093 62.0055C38.5253 61.6445 38.2398 61.4094 37.7444 61.4094C37.2322 61.4094 36.8627 61.6781 36.8711 62.0223C36.8627 62.291 37.081 62.4841 37.5849 62.6017L38.307 62.7696C39.1467 62.9544 39.5497 63.3574 39.5581 64.004C39.5497 64.8269 38.8612 65.4146 37.694 65.4146C36.6024 65.4146 35.9475 64.9276 35.8383 64.0795H36.7536C36.8291 64.491 37.1482 64.6925 37.6856 64.6925C38.265 64.6925 38.6345 64.4574 38.6429 64.0711C38.6345 63.7773 38.4161 63.5841 37.9375 63.475L37.2238 63.3238C36.4009 63.1391 35.9727 62.7025 35.9727 62.0727C35.9727 61.2582 36.678 60.704 37.736 60.704C38.752 60.704 39.3818 61.2246 39.4741 62.0055H38.6093ZM41.0192 65.381C40.6917 65.381 40.4146 65.1123 40.423 64.7849C40.4146 64.4574 40.6917 64.1887 41.0192 64.1887C41.3382 64.1887 41.6153 64.4574 41.6153 64.7849C41.6153 65.1123 41.3382 65.381 41.0192 65.381ZM41.0192 62.0643C40.6917 62.0643 40.4146 61.7956 40.423 61.4681C40.4146 61.1407 40.6917 60.872 41.0192 60.872C41.3382 60.872 41.6153 61.1407 41.6153 61.4681C41.6153 61.7956 41.3382 62.0643 41.0192 62.0643ZM45.016 58.9575L43.0596 66.2375H42.2619L44.2183 58.9575H45.016ZM47.9969 58.9575L46.0404 66.2375H45.2427L47.1992 58.9575H47.9969ZM51.5571 63.4246V60.7628H52.4472V65.3223H51.5739V64.533H51.5236C51.3136 65.02 50.8434 65.381 50.1633 65.381C49.2816 65.381 48.6602 64.7933 48.6602 63.6597V60.7628H49.5587V63.5505C49.5587 64.1719 49.9366 64.5666 50.4823 64.5666C50.9778 64.5666 51.5571 64.2055 51.5571 63.4246ZM55.2433 65.4146C54.1434 65.4146 53.3373 64.5246 53.3373 63.0551C53.3373 61.5689 54.1518 60.704 55.2517 60.704C56.0998 60.704 56.4105 61.2162 56.57 61.5017H56.612V59.243H57.5105V65.3223H56.6372V64.6085H56.57C56.4021 64.9108 56.0746 65.4146 55.2433 65.4146ZM55.4449 64.6505C56.209 64.6505 56.6372 63.9956 56.6372 63.0383C56.6372 62.0895 56.2174 61.4681 55.4449 61.4681C54.6472 61.4681 54.2525 62.1399 54.2525 63.0383C54.2525 63.9536 54.664 64.6505 55.4449 64.6505ZM58.4677 64.0376C58.4677 62.9964 59.3494 62.7277 60.1723 62.6689C60.4745 62.6479 61.1589 62.6101 61.373 62.6017L61.3646 62.2406C61.3646 61.7284 61.0539 61.4261 60.441 61.4261C59.912 61.4261 59.5929 61.6697 59.5005 62.0055H58.6105C58.6944 61.2498 59.3998 60.704 60.4745 60.704C61.1967 60.704 62.2631 60.9727 62.2631 62.291V65.3223H61.3898V64.7009H61.3562C61.1799 65.0452 60.76 65.423 60.0043 65.423C59.1395 65.423 58.4677 64.9276 58.4677 64.0376ZM59.341 64.046C59.341 64.4826 59.702 64.7093 60.2058 64.7093C60.9364 64.7093 61.373 64.2223 61.373 63.6765V63.2567L60.2982 63.3322C59.7104 63.3742 59.341 63.5925 59.341 64.046ZM64.2447 62.6185V65.3223H63.3462V60.7628H64.2111V61.5101H64.2615C64.4798 61.0231 64.9248 60.704 65.605 60.704C66.5454 60.704 67.1584 61.2918 67.1584 62.4254V65.3223H66.2683V62.5345C66.2683 61.8712 65.9073 61.4765 65.3027 61.4765C64.6897 61.4765 64.2447 61.888 64.2447 62.6185ZM70.1645 67.1276C69.0141 67.1276 68.2584 66.6154 68.1744 65.7673H69.0897C69.1736 66.1955 69.5767 66.4055 70.1728 66.4055C70.8866 66.4055 71.34 66.1032 71.34 65.3894V64.491H71.2812C71.1217 64.7849 70.7942 65.2551 69.9545 65.2551C68.8797 65.2551 68.0485 64.449 68.0485 62.9964C68.0485 61.5437 68.8629 60.704 69.9629 60.704C70.811 60.704 71.1217 61.2162 71.2896 61.5017H71.3484V60.7628H72.2217V65.423C72.2217 66.5902 71.34 67.1276 70.1645 67.1276ZM70.1561 64.5162C70.9202 64.5162 71.3484 63.9536 71.3484 63.0131C71.3484 62.0895 70.9286 61.4681 70.1561 61.4681C69.3584 61.4681 68.9637 62.1399 68.9637 63.0131C68.9637 63.9032 69.3752 64.5162 70.1561 64.5162ZM75.446 60.7628V61.4765H74.514V63.9788C74.514 64.491 74.7743 64.5833 75.0598 64.5917C75.1857 64.5917 75.3873 64.575 75.5132 64.5666V65.3475C75.3873 65.3642 75.1941 65.381 74.9506 65.381C74.2453 65.381 73.6155 64.9948 73.6239 64.1635V61.4765H72.9522V60.7628H73.6239V59.6712H74.514V60.7628H75.446ZM76.1094 64.0376C76.1094 62.9964 76.9911 62.7277 77.8139 62.6689C78.1162 62.6479 78.8006 62.6101 79.0147 62.6017L79.0063 62.2406C79.0063 61.7284 78.6956 61.4261 78.0826 61.4261C77.5536 61.4261 77.2346 61.6697 77.1422 62.0055H76.2521C76.3361 61.2498 77.0414 60.704 78.1162 60.704C78.8384 60.704 79.9047 60.9727 79.9047 62.291V65.3223H79.0315V64.7009H78.9979C78.8216 65.0452 78.4017 65.423 77.646 65.423C76.7811 65.423 76.1094 64.9276 76.1094 64.0376ZM76.9827 64.046C76.9827 64.4826 77.3437 64.7093 77.8475 64.7093C78.578 64.7093 79.0147 64.2223 79.0147 63.6765V63.2567L77.9399 63.3322C77.3521 63.3742 76.9827 63.5925 76.9827 64.046ZM81.8864 62.6185V65.3223H80.9879V60.7628H81.8528V61.5101H81.9032C82.1215 61.0231 82.5665 60.704 83.2467 60.704C84.1871 60.704 84.8001 61.2918 84.8001 62.4254V65.3223H83.91V62.5345C83.91 61.8712 83.549 61.4765 82.9444 61.4765C82.3314 61.4765 81.8864 61.888 81.8864 62.6185ZM87.8061 67.1276C86.6558 67.1276 85.9001 66.6154 85.8161 65.7673H86.7313C86.8153 66.1955 87.2184 66.4055 87.8145 66.4055C88.5283 66.4055 88.9817 66.1032 88.9817 65.3894V64.491H88.9229C88.7634 64.7849 88.4359 65.2551 87.5962 65.2551C86.5214 65.2551 85.6901 64.449 85.6901 62.9964C85.6901 61.5437 86.5046 60.704 87.6046 60.704C88.4527 60.704 88.7634 61.2162 88.9313 61.5017H88.9901V60.7628H89.8634V65.423C89.8634 66.5902 88.9817 67.1276 87.8061 67.1276ZM87.7977 64.5162C88.5618 64.5162 88.9901 63.9536 88.9901 63.0131C88.9901 62.0895 88.5702 61.4681 87.7977 61.4681C87 61.4681 86.6054 62.1399 86.6054 63.0131C86.6054 63.9032 87.0168 64.5162 87.7977 64.5162ZM93.0877 60.7628V61.4765H92.1557V63.9788C92.1557 64.491 92.416 64.5833 92.7015 64.5917C92.8274 64.5917 93.029 64.575 93.1549 64.5666V65.3475C93.029 65.3642 92.8358 65.381 92.5923 65.381C91.887 65.381 91.2572 64.9948 91.2656 64.1635V61.4765H90.5939V60.7628H91.2656V59.6712H92.1557V60.7628H93.0877ZM93.7511 64.0376C93.7511 62.9964 94.6327 62.7277 95.4556 62.6689C95.7579 62.6479 96.4422 62.6101 96.6564 62.6017L96.648 62.2406C96.648 61.7284 96.3373 61.4261 95.7243 61.4261C95.1953 61.4261 94.8762 61.6697 94.7839 62.0055H93.8938C93.9778 61.2498 94.6831 60.704 95.7579 60.704C96.48 60.704 97.5464 60.9727 97.5464 62.291V65.3223H96.6732V64.7009H96.6396C96.4632 65.0452 96.0434 65.423 95.2877 65.423C94.4228 65.423 93.7511 64.9276 93.7511 64.0376ZM94.6243 64.046C94.6243 64.4826 94.9854 64.7093 95.4892 64.7093C96.2197 64.7093 96.6564 64.2223 96.6564 63.6765V63.2567L95.5816 63.3322C94.9938 63.3742 94.6243 63.5925 94.6243 64.046ZM99.5281 62.6185V65.3223H98.6296V60.7628H99.4945V61.5101H99.5449C99.7632 61.0231 100.208 60.704 100.888 60.704C101.829 60.704 102.442 61.2918 102.442 62.4254V65.3223H101.552V62.5345C101.552 61.8712 101.191 61.4765 100.586 61.4765C99.9731 61.4765 99.5281 61.888 99.5281 62.6185ZM105.448 67.1276C104.297 67.1276 103.542 66.6154 103.458 65.7673H104.373C104.457 66.1955 104.86 66.4055 105.456 66.4055C106.17 66.4055 106.623 66.1032 106.623 65.3894V64.491H106.565C106.405 64.7849 106.078 65.2551 105.238 65.2551C104.163 65.2551 103.332 64.449 103.332 62.9964C103.332 61.5437 104.146 60.704 105.246 60.704C106.094 60.704 106.405 61.2162 106.573 61.5017H106.632V60.7628H107.505V65.423C107.505 66.5902 106.623 67.1276 105.448 67.1276ZM105.439 64.5162C106.204 64.5162 106.632 63.9536 106.632 63.0131C106.632 62.0895 106.212 61.4681 105.439 61.4681C104.642 61.4681 104.247 62.1399 104.247 63.0131C104.247 63.9032 104.659 64.5162 105.439 64.5162ZM111.284 62.3666V63.1391H108.588V62.3666H111.284ZM114.298 65.4146C112.971 65.4146 112.165 64.4322 112.165 63.0635C112.165 61.6697 112.997 60.704 114.281 60.704C115.322 60.704 116.078 61.317 116.171 62.2406H115.297C115.205 61.8124 114.861 61.4513 114.298 61.4513C113.559 61.4513 113.064 62.0643 113.064 63.0383C113.064 64.0376 113.551 64.6505 114.298 64.6505C114.802 64.6505 115.188 64.3734 115.297 63.878H116.171C116.07 64.7597 115.373 65.4146 114.298 65.4146ZM118.95 65.4146C117.657 65.4146 116.817 64.4742 116.817 63.0635C116.817 61.6445 117.657 60.704 118.95 60.704C120.235 60.704 121.074 61.6445 121.074 63.0635C121.074 64.4742 120.235 65.4146 118.95 65.4146ZM118.95 64.6673C119.773 64.6673 120.167 63.9368 120.167 63.0635C120.167 62.1903 119.773 61.4429 118.95 61.4429C118.11 61.4429 117.716 62.1903 117.716 63.0635C117.716 63.9368 118.11 64.6673 118.95 64.6673ZM121.956 65.3223V60.7628H122.821V61.4849H122.871C123.039 60.9979 123.493 60.6956 124.03 60.6956C124.139 60.6956 124.315 60.704 124.408 60.7124V61.5689C124.332 61.5521 124.122 61.5185 123.938 61.5185C123.316 61.5185 122.854 61.9468 122.854 62.5429V65.3223H121.956ZM126.633 65.4146C125.533 65.4146 124.727 64.5246 124.727 63.0551C124.727 61.5689 125.541 60.704 126.641 60.704C127.489 60.704 127.8 61.2162 127.96 61.5017H128.002V59.243H128.9V65.3223H128.027V64.6085H127.96C127.792 64.9108 127.464 65.4146 126.633 65.4146ZM126.834 64.6505C127.599 64.6505 128.027 63.9956 128.027 63.0383C128.027 62.0895 127.607 61.4681 126.834 61.4681C126.037 61.4681 125.642 62.1399 125.642 63.0383C125.642 63.9536 126.054 64.6505 126.834 64.6505ZM130.067 65.3223V60.7628H130.966V65.3223H130.067ZM130.521 60.0575C130.21 60.0575 129.95 59.8224 129.95 59.5285C129.95 59.2346 130.21 58.9995 130.521 58.9995C130.823 58.9995 131.083 59.2346 131.083 59.5285C131.083 59.8224 130.823 60.0575 130.521 60.0575ZM132.956 62.6185V65.3223H132.057V60.7628H132.922V61.5101H132.973C133.191 61.0231 133.636 60.704 134.316 60.704C135.256 60.704 135.869 61.2918 135.869 62.4254V65.3223H134.979V62.5345C134.979 61.8712 134.618 61.4765 134.014 61.4765C133.401 61.4765 132.956 61.888 132.956 62.6185ZM138.875 67.1276C137.725 67.1276 136.969 66.6154 136.885 65.7673H137.801C137.885 66.1955 138.288 66.4055 138.884 66.4055C139.598 66.4055 140.051 66.1032 140.051 65.3894V64.491H139.992C139.833 64.7849 139.505 65.2551 138.666 65.2551C137.591 65.2551 136.759 64.449 136.759 62.9964C136.759 61.5437 137.574 60.704 138.674 60.704C139.522 60.704 139.833 61.2162 140.001 61.5017H140.059V60.7628H140.933V65.423C140.933 66.5902 140.051 67.1276 138.875 67.1276ZM138.867 64.5162C139.631 64.5162 140.059 63.9536 140.059 63.0131C140.059 62.0895 139.64 61.4681 138.867 61.4681C138.069 61.4681 137.675 62.1399 137.675 63.0131C137.675 63.9032 138.086 64.5162 138.867 64.5162ZM144.711 62.3666V63.1391H142.016V62.3666H144.711ZM147.726 65.4146C146.433 65.4146 145.593 64.4742 145.593 63.0635C145.593 61.6445 146.433 60.704 147.726 60.704C149.01 60.704 149.85 61.6445 149.85 63.0635C149.85 64.4742 149.01 65.4146 147.726 65.4146ZM147.726 64.6673C148.549 64.6673 148.943 63.9368 148.943 63.0635C148.943 62.1903 148.549 61.4429 147.726 61.4429C146.886 61.4429 146.491 62.1903 146.491 63.0635C146.491 63.9368 146.886 64.6673 147.726 64.6673ZM151.63 59.243V65.3223H150.732V59.243H151.63ZM154.426 65.4146C153.326 65.4146 152.52 64.5246 152.52 63.0551C152.52 61.5689 153.335 60.704 154.435 60.704C155.283 60.704 155.594 61.2162 155.753 61.5017H155.795V59.243H156.694V65.3223H155.82V64.6085H155.753C155.585 64.9108 155.258 65.4146 154.426 65.4146ZM154.628 64.6505C155.392 64.6505 155.82 63.9956 155.82 63.0383C155.82 62.0895 155.4 61.4681 154.628 61.4681C153.83 61.4681 153.436 62.1399 153.436 63.0383C153.436 63.9536 153.847 64.6505 154.628 64.6505ZM159.792 65.4146C158.465 65.4146 157.659 64.4322 157.659 63.0635C157.659 61.6697 158.49 60.704 159.775 60.704C160.816 60.704 161.572 61.317 161.664 62.2406H160.791C160.699 61.8124 160.355 61.4513 159.792 61.4513C159.053 61.4513 158.558 62.0643 158.558 63.0383C158.558 64.0376 159.045 64.6505 159.792 64.6505C160.296 64.6505 160.682 64.3734 160.791 63.878H161.664C161.564 64.7597 160.867 65.4146 159.792 65.4146ZM162.303 64.0376C162.303 62.9964 163.184 62.7277 164.007 62.6689C164.309 62.6479 164.994 62.6101 165.208 62.6017L165.199 62.2406C165.199 61.7284 164.889 61.4261 164.276 61.4261C163.747 61.4261 163.428 61.6697 163.335 62.0055H162.445C162.529 61.2498 163.235 60.704 164.309 60.704C165.032 60.704 166.098 60.9727 166.098 62.291V65.3223H165.225V64.7009H165.191C165.015 65.0452 164.595 65.423 163.839 65.423C162.974 65.423 162.303 64.9276 162.303 64.0376ZM163.176 64.046C163.176 64.4826 163.537 64.7093 164.041 64.7093C164.771 64.7093 165.208 64.2223 165.208 63.6765V63.2567L164.133 63.3322C163.545 63.3742 163.176 63.5925 163.176 64.046ZM169.742 62.0055C169.658 61.6445 169.373 61.4094 168.877 61.4094C168.365 61.4094 167.996 61.6781 168.004 62.0223C167.996 62.291 168.214 62.4841 168.718 62.6017L169.44 62.7696C170.28 62.9544 170.683 63.3574 170.691 64.004C170.683 64.8269 169.994 65.4146 168.827 65.4146C167.735 65.4146 167.08 64.9276 166.971 64.0795H167.886C167.962 64.491 168.281 64.6925 168.818 64.6925C169.398 64.6925 169.767 64.4574 169.776 64.0711C169.767 63.7773 169.549 63.5841 169.07 63.475L168.357 63.3238C167.534 63.1391 167.106 62.7025 167.106 62.0727C167.106 61.2582 167.811 60.704 168.869 60.704C169.885 60.704 170.515 61.2246 170.607 62.0055H169.742ZM173.697 60.7628V61.4765H172.765V63.9788C172.765 64.491 173.025 64.5833 173.311 64.5917C173.437 64.5917 173.638 64.575 173.764 64.5666V65.3475C173.638 65.3642 173.445 65.381 173.202 65.381C172.496 65.381 171.867 64.9948 171.875 64.1635V61.4765H171.203V60.7628H171.875V59.6712H172.765V60.7628H173.697ZM176.871 59.243V65.3223H175.939V60.1666H175.905L174.453 61.1155V60.2338L175.964 59.243H176.871ZM180.389 65.4146C179.046 65.4146 178.223 64.491 178.223 63.0719C178.223 61.6697 179.063 60.704 180.331 60.704C181.372 60.704 182.354 61.3506 182.354 62.9964V63.3154H179.113C179.138 64.1803 179.646 64.6757 180.398 64.6757C180.91 64.6757 181.237 64.4574 181.389 64.1803H182.295C182.094 64.9192 181.389 65.4146 180.389 65.4146ZM179.121 62.6437H181.472C181.472 61.9468 181.027 61.4429 180.339 61.4429C179.621 61.4429 179.155 61.9971 179.121 62.6437ZM183.832 65.381C183.505 65.381 183.227 65.1123 183.236 64.7849C183.227 64.4574 183.505 64.1887 183.832 64.1887C184.151 64.1887 184.428 64.4574 184.428 64.7849C184.428 65.1123 184.151 65.381 183.832 65.381ZM187.644 60.7628V61.4765H186.712V63.9788C186.712 64.491 186.972 64.5833 187.258 64.5917C187.384 64.5917 187.585 64.575 187.711 64.5666V65.3475C187.585 65.3642 187.392 65.381 187.149 65.381C186.443 65.381 185.814 64.9948 185.822 64.1635V61.4765H185.15V60.7628H185.822V59.6712H186.712V60.7628H187.644ZM188.517 65.3223V60.7628H189.416V65.3223H188.517ZM188.971 60.0575C188.66 60.0575 188.4 59.8224 188.4 59.5285C188.4 59.2346 188.66 58.9995 188.971 58.9995C189.273 58.9995 189.533 59.2346 189.533 59.5285C189.533 59.8224 189.273 60.0575 188.971 60.0575ZM193.068 62.0055C192.985 61.6445 192.699 61.4094 192.204 61.4094C191.691 61.4094 191.322 61.6781 191.33 62.0223C191.322 62.291 191.54 62.4841 192.044 62.6017L192.766 62.7696C193.606 62.9544 194.009 63.3574 194.017 64.004C194.009 64.8269 193.32 65.4146 192.153 65.4146C191.062 65.4146 190.407 64.9276 190.298 64.0795H191.213C191.288 64.491 191.607 64.6925 192.145 64.6925C192.724 64.6925 193.094 64.4574 193.102 64.0711C193.094 63.7773 192.875 63.5841 192.397 63.475L191.683 63.3238C190.86 63.1391 190.432 62.7025 190.432 62.0727C190.432 61.2582 191.137 60.704 192.195 60.704C193.211 60.704 193.841 61.2246 193.933 62.0055H193.068ZM197.023 60.7628V61.4765H196.091V63.9788C196.091 64.491 196.352 64.5833 196.637 64.5917C196.763 64.5917 196.965 64.575 197.091 64.5666V65.3475C196.965 65.3642 196.771 65.381 196.528 65.381C195.823 65.381 195.193 64.9948 195.201 64.1635V61.4765H194.53V60.7628H195.201V59.6712H196.091V60.7628H197.023ZM199.778 65.4146C198.484 65.4146 197.645 64.4742 197.645 63.0635C197.645 61.6445 198.484 60.704 199.778 60.704C201.062 60.704 201.902 61.6445 201.902 63.0635C201.902 64.4742 201.062 65.4146 199.778 65.4146ZM199.778 64.6673C200.6 64.6673 200.995 63.9368 200.995 63.0635C200.995 62.1903 200.6 61.4429 199.778 61.4429C198.938 61.4429 198.543 62.1903 198.543 63.0635C198.543 63.9368 198.938 64.6673 199.778 64.6673ZM202.784 65.3223V60.7628H203.648V61.4849H203.699C203.867 60.9979 204.32 60.6956 204.858 60.6956C204.967 60.6956 205.143 60.704 205.235 60.7124V61.5689C205.16 61.5521 204.95 61.5185 204.765 61.5185C204.144 61.5185 203.682 61.9468 203.682 62.5429V65.3223H202.784ZM206.604 67.0352C206.419 67.0352 206.243 67.0268 206.125 67.01V66.2627C206.226 66.2711 206.403 66.2795 206.529 66.2795C206.806 66.2795 207.041 66.2543 207.251 65.6833L207.36 65.381L205.689 60.7628H206.646L207.796 64.2979H207.847L208.997 60.7628H209.963L208.082 65.9268C207.822 66.649 207.351 67.0352 206.604 67.0352ZM210.996 65.381C210.668 65.381 210.391 65.1123 210.399 64.7849C210.391 64.4574 210.668 64.1887 210.996 64.1887C211.315 64.1887 211.592 64.4574 211.592 64.7849C211.592 65.1123 211.315 65.381 210.996 65.381ZM214.606 65.4146C213.28 65.4146 212.473 64.4322 212.473 63.0635C212.473 61.6697 213.305 60.704 214.589 60.704C215.631 60.704 216.386 61.317 216.479 62.2406H215.605C215.513 61.8124 215.169 61.4513 214.606 61.4513C213.867 61.4513 213.372 62.0643 213.372 63.0383C213.372 64.0376 213.859 64.6505 214.606 64.6505C215.11 64.6505 215.496 64.3734 215.605 63.878H216.479C216.378 64.7597 215.681 65.4146 214.606 65.4146ZM219.258 65.4146C217.965 65.4146 217.125 64.4742 217.125 63.0635C217.125 61.6445 217.965 60.704 219.258 60.704C220.543 60.704 221.382 61.6445 221.382 63.0635C221.382 64.4742 220.543 65.4146 219.258 65.4146ZM219.258 64.6673C220.081 64.6673 220.476 63.9368 220.476 63.0635C220.476 62.1903 220.081 61.4429 219.258 61.4429C218.418 61.4429 218.024 62.1903 218.024 63.0635C218.024 63.9368 218.418 64.6673 219.258 64.6673ZM222.264 65.3223V60.7628H223.129V61.5101H223.179C223.373 60.9979 223.818 60.704 224.422 60.704C225.027 60.704 225.455 61.0063 225.648 61.5101H225.698C225.917 61.0147 226.404 60.704 227.067 60.704C227.89 60.704 228.478 61.2246 228.478 62.2658V65.3223H227.579V62.3498C227.579 61.7368 227.193 61.4765 226.723 61.4765C226.143 61.4765 225.816 61.8712 225.816 62.417V65.3223H224.926V62.2994C224.926 61.804 224.582 61.4765 224.095 61.4765C223.591 61.4765 223.163 61.8964 223.163 62.5093V65.3223H222.264Z" fill="#A6ABBC"/>
<path d="M21.0166 54.6378V42.8274H24.157V44.0343H22.5191V53.4309H24.157V54.6378H21.0166ZM25.1792 52.1255V50.9678L28.3319 47.926C29.2309 47.0269 29.6989 46.4974 29.6989 45.7462C29.6989 44.921 29.0462 44.3915 28.1718 44.3915C27.2481 44.3915 26.657 44.9703 26.6693 45.8693H25.1422C25.1299 44.1821 26.3984 43.086 28.1841 43.086C30.0068 43.086 31.2383 44.1698 31.2383 45.6723C31.2383 46.6821 30.7457 47.4949 28.9969 49.1452L27.4082 50.7215V50.7831H31.3738V52.1255H25.1792ZM35.8935 52.1255H32.8639V43.2092H35.9427C38.6029 43.2092 40.2162 44.8841 40.2162 47.655C40.2162 50.4383 38.6029 52.1255 35.8935 52.1255ZM34.4649 50.7339H35.8073C37.6669 50.7339 38.6152 49.7117 38.6152 47.655C38.6152 45.6107 37.6669 44.6008 35.8565 44.6008H34.4649V50.7339ZM53.7753 42.0885V53.2216H52.4699V42.0885H53.7753ZM51.4108 42.3594V52.692H50.1177V47.5688H48.1349C47.4822 48.8496 46.4354 49.958 44.859 50.8693L44.0832 49.8964C46.3923 48.5356 47.4452 46.793 47.6546 44.5516H44.6497V43.4432H49.0093C49.0093 44.5208 48.88 45.5306 48.5783 46.4728H50.1177V42.3594H51.4108ZM64.3419 42.1008V48.4063H62.9625V42.1008H64.3419ZM64.3419 48.9481V53.0861H56.9527V48.9481H64.3419ZM58.3074 50.0319V51.9777H62.9995V50.0319H58.3074ZM58.2704 42.6304C59.9822 42.6304 61.263 43.7141 61.263 45.2905C61.263 46.8176 59.9822 47.926 58.2704 47.926C56.5463 47.926 55.2655 46.8176 55.2655 45.2905C55.2655 43.7141 56.5463 42.6304 58.2704 42.6304ZM58.2704 43.788C57.2975 43.788 56.5955 44.3668 56.6078 45.2905C56.5955 46.1895 57.2975 46.7683 58.2704 46.7683C59.231 46.7683 59.9207 46.1895 59.9207 45.2905C59.9207 44.3668 59.231 43.788 58.2704 43.788ZM69.0217 54.6378H65.8813V53.4309H67.5192V44.0343H65.8813V42.8274H69.0217V54.6378ZM77.4207 52.1255L77.8025 49.8225H75.8813L75.4995 52.1255H74.2803L74.6621 49.8225H73.4059L73.603 48.6156H74.8591L75.167 46.7191H73.9232L74.1202 45.5122H75.3764L75.7458 43.2092H76.965L76.5956 45.5122H78.5168L78.8862 43.2092H80.0931L79.7237 45.5122H80.9798L80.7705 46.7191H79.5143L79.2064 48.6156H80.4626L80.2656 49.8225H79.0094L78.6276 52.1255H77.4207ZM76.0783 48.6156H77.9995L78.3074 46.7191H76.3862L76.0783 48.6156ZM91.0538 42.0885V53.2216H89.7483V42.0885H91.0538ZM88.6892 42.3594V52.692H87.3961V47.5688H85.4134C84.7606 48.8496 83.7138 49.958 82.1375 50.8693L81.3616 49.8964C83.6707 48.5356 84.7237 46.793 84.9331 44.5516H81.9281V43.4432H86.2877C86.2877 44.5208 86.1584 45.5306 85.8567 46.4728H87.3961V42.3594H88.6892ZM101.62 42.1008V48.4063H100.241V42.1008H101.62ZM101.62 48.9481V53.0861H94.2311V48.9481H101.62ZM95.5858 50.0319V51.9777H100.278V50.0319H95.5858ZM95.5489 42.6304C97.2607 42.6304 98.5415 43.7141 98.5415 45.2905C98.5415 46.8176 97.2607 47.926 95.5489 47.926C93.8247 47.926 92.5439 46.8176 92.5439 45.2905C92.5439 43.7141 93.8247 42.6304 95.5489 42.6304ZM95.5489 43.788C94.5759 43.788 93.874 44.3668 93.8863 45.2905C93.874 46.1895 94.5759 46.7683 95.5489 46.7683C96.5095 46.7683 97.1991 46.1895 97.1991 45.2905C97.1991 44.3668 96.5095 43.788 95.5489 43.788ZM115.844 42.0885V53.2216H114.527V47.5196H113.344V52.6797H112.051V42.2856H113.344V46.3866H114.527V42.0885H115.844ZM110.955 43.2954V50.3521H106.583V43.2954H110.955ZM107.864 44.3792V49.2683H109.675V44.3792H107.864ZM126.423 42.0885V53.2216H125.069V42.0885H126.423ZM119.133 43.1723V49.256C120.697 49.2314 122.359 49.0898 124.071 48.7511L124.244 49.8964C122.285 50.3028 120.463 50.426 118.739 50.426H117.778V43.1723H119.133ZM137.372 42.0885V53.2339H136.005V47.1501H133.862V46.0294H136.005V42.0885H137.372ZM132.125 45.0442C132.125 46.9654 133.16 49.0097 134.958 49.7856L134.145 50.8816C132.852 50.2659 131.928 49.0282 131.448 47.5565C130.949 49.1267 130.007 50.4506 128.714 51.1033L127.889 50.0319C129.675 49.1944 130.721 47.0762 130.734 45.0442V44.3053H128.345V43.1846H134.514V44.3053H132.125V45.0442ZM147.581 43.0491V48.3077H142.31V43.0491H147.581ZM143.652 44.1452V47.224H146.239V44.1452H143.652ZM150.709 42.0885V45.3521H152.261V46.4974H150.709V50.2166H149.342V42.0885H150.709ZM151.152 51.8915V52.9999H143.579V49.4284H144.946V51.8915H151.152ZM162.988 46.5467V47.6304H152.827V46.5467H162.988ZM161.781 44.7486V45.8324H154.12V42.3718H161.682V43.4678H155.487V44.7486H161.781ZM161.707 48.3939V51.1895H155.377V52.0393H162.015V53.1107H154.034V50.2043H160.364V49.4284H154.022V48.3939H161.707ZM173.024 42.0885V53.2216H171.645V42.0885H173.024ZM169.699 43.2708C169.699 46.5836 168.419 49.4038 164.515 51.2511L163.8 50.155C166.713 48.7696 168.068 46.8853 168.308 44.3545H164.367V43.2708H169.699Z" fill="white"/>
<path opacity="0.9" d="M22.6738 22.4988C22.6738 24.0304 23.1978 25.5318 24.4573 26.2069L23.7923 27.0936C22.9711 26.6351 22.432 25.8391 22.1297 24.8667C21.7921 25.9399 21.2077 26.8366 20.3563 27.3455L19.6409 26.5293C20.981 25.7434 21.5856 24.1211 21.5856 22.5694V20.937H22.6738V22.4988ZM27.6514 20.1309V29.2398H26.5733V24.6249H25.6362V28.7964H24.5782V20.2922H25.6362V23.7181H26.5733V20.1309H27.6514ZM37.0323 27.2548V28.1818H28.7094V27.2548H32.2965V25.7736H29.6969V22.7911H34.9365V21.6625H29.6767V20.7557H36.0449V23.6778H30.8154V24.8567H36.2565V25.7736H33.4049V27.2548H37.0323ZM44.7003 20.9169V25.2194H40.3877V20.9169H44.7003ZM41.486 21.8137V24.3327H43.602V21.8137H41.486ZM47.2597 20.1309V22.8011H48.5292V23.7382H47.2597V26.7812H46.1412V20.1309H47.2597ZM47.6224 28.1516V29.0584H41.4256V26.1363H42.544V28.1516H47.6224ZM57.3056 23.7785V24.6652H48.9928V23.7785H57.3056ZM56.3181 22.3074V23.1941H50.0507V20.3627H56.2375V21.2595H51.1692V22.3074H56.3181ZM56.2577 25.2899V27.5772H51.0785V28.2725H56.5096V29.1491H49.9802V26.7711H55.1594V26.1363H49.9701V25.2899H56.2577ZM65.5177 20.1309V29.2398H64.3891V20.1309H65.5177ZM62.7971 21.0983C62.7971 23.8087 61.7492 26.1162 58.555 27.6276L57.9706 26.7308C60.3536 25.5973 61.462 24.0556 61.6585 21.985H58.4341V21.0983H62.7971Z" fill="white"/>
<path d="M28.3249 87.5879V88.394H26.8695V90.1405H28.2801V90.9354H25.1341V91.7975H29.187V92.6372H20.0401V91.7975H24.0706V90.9354H20.9245V90.1405H22.3464V88.394H20.8798V87.5879H28.3249ZM28.0338 93.3537V95.6153H22.1897V96.4549H28.3137V97.261H21.1485V94.8651H26.9814V94.1262H21.1373V93.3537H28.0338ZM23.3988 90.1405H25.8059V88.394H23.3988V90.1405ZM35.0424 88.2597V89.1441H31.5157V94.0367C33.1951 94.0311 34.3538 93.9695 35.6693 93.712L35.7925 94.5853C34.3482 94.8539 33.1279 94.9211 31.2358 94.9211H30.4409V88.2597H35.0424ZM38.3227 87.3304V97.3842H37.2591V91.7975H34.4714V90.913H37.2591V87.3304H38.3227ZM43.7974 95.369C43.3608 95.369 42.9913 95.0107 43.0025 94.5741C42.9913 94.1374 43.3608 93.7792 43.7974 93.7792C44.2229 93.7792 44.5923 94.1374 44.5923 94.5741C44.5923 95.0107 44.2229 95.369 43.7974 95.369ZM43.7974 90.9466C43.3608 90.9466 42.9913 90.5884 43.0025 90.1517C42.9913 89.7151 43.3608 89.3568 43.7974 89.3568C44.2229 89.3568 44.5923 89.7151 44.5923 90.1517C44.5923 90.5884 44.2229 90.9466 43.7974 90.9466Z" fill="white"/>
<path d="M126.214 133.615V143.669H125.15V138.093H123.079V137.22H125.15V133.615H126.214ZM121.422 136.436C121.422 138.138 122.486 139.963 124.031 140.646L123.393 141.497C122.234 140.937 121.338 139.767 120.896 138.396C120.448 139.857 119.536 141.105 118.377 141.698L117.728 140.87C119.262 140.142 120.336 138.239 120.347 136.436V135.496H118.131V134.623H123.65V135.496H121.422V136.436ZM131.252 135.462C131.252 136.739 132.137 137.903 133.659 138.384L133.155 139.213C132.013 138.849 131.179 138.093 130.737 137.142C130.301 138.239 129.422 139.107 128.218 139.526L127.67 138.676C129.237 138.161 130.177 136.862 130.189 135.474V135.194H127.983V134.332H133.413V135.194H131.252V135.462ZM135.63 133.615V136.101H137.085V136.974H135.63V139.638H134.566V133.615H135.63ZM132.394 139.885C134.465 139.885 135.719 140.568 135.719 141.743C135.719 142.93 134.465 143.635 132.394 143.624C130.301 143.635 129.024 142.93 129.024 141.743C129.024 140.568 130.301 139.885 132.394 139.885ZM132.394 140.724C130.939 140.724 130.077 141.094 130.088 141.743C130.077 142.415 130.939 142.784 132.394 142.784C133.838 142.784 134.678 142.415 134.678 141.743C134.678 141.094 133.838 140.724 132.394 140.724ZM145.471 133.615V137.679H147.083V138.564H145.471V143.646H144.418V133.615H145.471ZM143.545 135.182V136.056H137.6V135.182H140.074V133.749H141.138V135.182H143.545ZM140.612 136.795C142.045 136.795 143.097 137.758 143.108 139.123C143.097 140.5 142.045 141.452 140.612 141.463C139.168 141.452 138.115 140.5 138.115 139.123C138.115 137.758 139.168 136.795 140.612 136.795ZM140.612 137.668C139.761 137.668 139.123 138.261 139.134 139.123C139.123 139.997 139.761 140.579 140.612 140.568C141.463 140.579 142.09 139.997 142.09 139.123C142.09 138.261 141.463 137.668 140.612 137.668ZM155.905 133.615V143.646H154.83V133.615H155.905ZM152.916 134.69C152.916 137.623 151.662 140.176 148.225 141.822L147.665 140.959C150.335 139.689 151.634 137.881 151.841 135.541H148.147V134.69H152.916Z" fill="white"/>
<rect x="55.8891" y="79.3913" width="71.0795" height="25.795" rx="7.73849" fill="#3B3B3B" stroke="#5C5C5C" stroke-width="1.71967"/>
<path d="M70.989 89.2514V95.1863H66.757V89.2514H70.989ZM67.7041 90.0071V94.4104H70.062V90.0071H67.7041ZM73.7297 88.3849V97.4333H72.7724V88.3849H73.7297ZM83.423 93.1106V93.8764H79.8358V95.5389H78.8887V93.8764H75.1605V93.1106H83.423ZM82.506 96.4458V97.2217H76.1883V94.753H77.1354V96.4458H82.506ZM77.1959 88.667V89.7653H81.3775V88.667H82.3347V92.3146H76.2487V88.667H77.1959ZM77.1959 91.5488H81.3775V90.4807H77.1959V91.5488ZM92.3404 93.7454V94.5011H90.2647V97.4131H89.2974V94.5011H87.1209V97.4131H86.1637V94.5011H84.0779V93.7454H92.3404ZM91.363 88.7073V91.1256H86.0428V92.1231H91.5544V92.899H85.0855V90.4102H90.3856V89.4932H85.0553V88.7073H91.363Z" fill="white"/>
<g clip-path="url(#clip1_1950_1747)">
<path fill-rule="evenodd" clip-rule="evenodd" d="M110.156 95.5529L106.373 91.4995L107.319 90.4863L110.629 94.0331L113.939 90.4863L114.885 91.4995L111.102 95.5529C110.976 95.6872 110.806 95.7627 110.629 95.7627C110.452 95.7627 110.282 95.6872 110.156 95.5529Z" fill="white"/>
</g>
</g>
<defs>
<clipPath id="clip0_1950_1747">
<rect width="274" height="153.05" rx="8.59833" fill="white"/>
</clipPath>
<clipPath id="clip1_1950_1747">
<rect width="8.59833" height="16.0502" fill="white" transform="matrix(0 1 -1 0 118.657 88.2751)"/>
</clipPath>
</defs>
</svg>
