<svg width="197" height="112" viewBox="0 0 197 112" fill="none" xmlns="http://www.w3.org/2000/svg">
<rect x="0.859719" y="0.859719" width="194.296" height="110.044" rx="16.3347" fill="#212121" stroke="#5C5C5C" stroke-width="1.71944"/>
<g filter="url(#filter0_i_1639_2261)">
<path d="M21.5872 73.9712H41.1898C41.1898 73.9712 41.793 80.9766 39.9835 83.4986C38.1741 86.0206 34.2532 85.1799 33.0469 86.0206C31.8406 86.8612 31.539 87.4217 31.539 87.4217C31.539 87.4217 31.539 86.5117 30.0312 86.0206C28.5233 85.5294 25.5076 86.0206 23.3965 83.4986C21.2855 80.9766 21.5872 73.9712 21.5872 73.9712Z" fill="#F05925"/>
<path d="M23.6827 65.561C27.9039 63.3192 30.0157 63.8797 30.0157 63.8797C30.0157 63.8797 30.3681 63.0347 30.3181 62.4786C30.2652 61.8912 30.0165 61.3577 29.7141 61.0775C29.4117 60.7972 30.3181 60.7974 31.2228 61.6379C32.1275 62.4784 33.333 63.8797 33.333 63.8797C33.333 63.8797 35.1416 63.5994 38.7613 65.561C42.381 67.5225 42.0781 72.8467 41.4757 72.8466C40.8734 72.8464 21.874 73.1267 21.2709 72.8466C20.6677 72.5664 19.4614 67.8027 23.6827 65.561Z" fill="#F05925"/>
</g>
<g filter="url(#filter1_i_1639_2261)">
<path d="M54.8252 73.9712H74.4279C74.4279 73.9712 75.031 80.9766 73.2216 83.4986C71.4121 86.0206 67.4912 85.1799 66.2849 86.0206C65.0786 86.8612 64.7771 87.4217 64.7771 87.4217C64.7771 87.4217 64.7771 86.5117 63.2692 86.0206C61.7613 85.5294 58.7456 86.0206 56.6346 83.4986C54.5236 80.9766 54.8252 73.9712 54.8252 73.9712Z" fill="#F15A25"/>
<path d="M56.9207 65.561C61.1419 63.3192 63.2537 63.8797 63.2537 63.8797C63.2537 63.8797 63.6061 63.0347 63.5561 62.4786C63.5033 61.8912 63.2545 61.3577 62.9522 61.0775C62.6498 60.7972 63.5561 60.7974 64.4608 61.6379C65.3655 62.4784 66.571 63.8797 66.571 63.8797C66.571 63.8797 68.3797 63.5994 71.9994 65.561C75.619 67.5225 75.3161 72.8467 74.7138 72.8466C74.1114 72.8464 55.1121 73.1267 54.5089 72.8466C53.9057 72.5664 52.6995 67.8027 56.9207 65.561Z" fill="#F15A25"/>
</g>
<g filter="url(#filter2_i_1639_2261)">
<path d="M88.0711 73.9712H107.674C107.674 73.9712 108.277 80.9766 106.467 83.4986C104.658 86.0206 100.737 85.1799 99.5308 86.0206C98.3245 86.8612 98.0229 87.4217 98.0229 87.4217C98.0229 87.4217 98.0229 86.5117 96.515 86.0206C95.0072 85.5294 91.9914 86.0206 89.8804 83.4986C87.7694 80.9766 88.0711 73.9712 88.0711 73.9712Z" fill="#5C5C5C"/>
<path d="M90.1665 65.561C94.3878 63.3192 96.4996 63.8797 96.4996 63.8797C96.4996 63.8797 96.852 63.0347 96.802 62.4786C96.7491 61.8912 96.5004 61.3577 96.198 61.0775C95.8956 60.7972 96.802 60.7974 97.7067 61.6379C98.6114 62.4784 99.8169 63.8797 99.8169 63.8797C99.8169 63.8797 101.626 63.5994 105.245 65.561C108.865 67.5225 108.562 72.8467 107.96 72.8466C107.357 72.8464 88.3579 73.1267 87.7547 72.8466C87.1516 72.5664 85.9453 67.8027 90.1665 65.561Z" fill="#5C5C5C"/>
</g>
<g filter="url(#filter3_i_1639_2261)">
<path d="M121.31 73.9712H140.913C140.913 73.9712 141.516 80.9766 139.707 83.4986C137.897 86.0206 133.976 85.1799 132.77 86.0206C131.564 86.8612 131.262 87.4217 131.262 87.4217C131.262 87.4217 131.262 86.5117 129.754 86.0206C128.246 85.5294 125.231 86.0206 123.12 83.4986C121.009 80.9766 121.31 73.9712 121.31 73.9712Z" fill="#5C5C5C"/>
<path d="M123.406 65.561C127.627 63.3192 129.739 63.8797 129.739 63.8797C129.739 63.8797 130.091 63.0347 130.041 62.4786C129.988 61.8912 129.74 61.3577 129.437 61.0775C129.135 60.7972 130.041 60.7974 130.946 61.6379C131.851 62.4784 133.056 63.8797 133.056 63.8797C133.056 63.8797 134.865 63.5994 138.484 65.561C142.104 67.5225 141.801 72.8467 141.199 72.8466C140.597 72.8464 121.597 73.1267 120.994 72.8466C120.391 72.5664 119.185 67.8027 123.406 65.561Z" fill="#5C5C5C"/>
</g>
<g filter="url(#filter4_i_1639_2261)">
<path d="M154.554 73.9712H174.157C174.157 73.9712 174.76 80.9766 172.951 83.4986C171.141 86.0206 167.22 85.1799 166.014 86.0206C164.808 86.8612 164.506 87.4217 164.506 87.4217C164.506 87.4217 164.506 86.5117 162.998 86.0206C161.49 85.5294 158.475 86.0206 156.364 83.4986C154.253 80.9766 154.554 73.9712 154.554 73.9712Z" fill="#5C5C5C"/>
<path d="M156.65 65.561C160.871 63.3192 162.983 63.8797 162.983 63.8797C162.983 63.8797 163.335 63.0347 163.285 62.4786C163.232 61.8912 162.984 61.3577 162.681 61.0775C162.379 60.7972 163.285 60.7974 164.19 61.6379C165.095 62.4784 166.3 63.8797 166.3 63.8797C166.3 63.8797 168.109 63.5994 171.728 65.561C175.348 67.5225 175.045 72.8467 174.443 72.8466C173.84 72.8464 154.841 73.1267 154.238 72.8466C153.635 72.5664 152.428 67.8027 156.65 65.561Z" fill="#5C5C5C"/>
</g>
<path d="M37.0983 21.0456V25.2692H38.8099V26.3898H37.0983V32.1895H35.7315V21.0456H37.0983ZM34.0445 22.1046V23.2129H30.2027V28.323C31.9327 28.323 33.2996 28.2368 34.8326 27.9659L34.9927 29.1234C33.2688 29.419 31.7665 29.4682 29.7594 29.4682H28.8359V22.1046H34.0445ZM49.4366 27.1163V28.2122H39.2655V27.1163H49.4366ZM48.4269 30.8473V31.9556H40.5708V28.9141H41.9499V30.8473H48.4269ZM48.1806 21.3412V24.3088H41.913V25.2569H48.4023V26.2913H40.5585V23.3237H46.8138V22.4125H40.5215V21.3412H48.1806ZM57.145 23.7177C57.1327 25.7002 58.1301 27.7197 59.854 28.5447L59.0167 29.6406C57.8099 29.0311 56.9418 27.8551 56.4677 26.439C55.9814 27.9536 55.0701 29.2096 53.7957 29.8499L52.9583 28.754C54.7438 27.9044 55.7659 25.7741 55.7782 23.7177V21.9445H57.145V23.7177ZM61.8858 21.0456V25.4047H63.5974V26.5745H61.8858V32.1772H60.5189V21.0456H61.8858ZM72.8449 21.058V23.767H74.4088V24.9121H72.8449V27.6704H71.4781V21.058H72.8449ZM72.8449 28.163V32.0418H65.6414V28.163H72.8449ZM66.9836 29.2342V30.9335H71.5028V29.2342H66.9836ZM69.5695 21.6244V24.8875H65.8631V26.0819C67.7532 26.0758 69.0462 26.0142 70.5669 25.7618L70.7147 26.8454C69.0523 27.1532 67.6116 27.2025 65.4075 27.2025H64.4963V23.8532H68.2273V22.7203H64.484V21.6244H69.5695ZM78.5708 21.8214C80.3317 21.8091 81.6246 22.9296 81.6369 24.5058C81.6246 26.0943 80.3317 27.2025 78.5708 27.2025C76.8223 27.2025 75.517 26.0943 75.517 24.5058C75.517 22.9296 76.8223 21.8091 78.5708 21.8214ZM78.5708 23.0035C77.598 23.0035 76.8715 23.5823 76.8715 24.5058C76.8715 25.4416 77.598 26.0081 78.5708 26.0081C79.5559 26.0081 80.2947 25.4416 80.2947 24.5058C80.2947 23.5823 79.5559 23.0035 78.5708 23.0035ZM84.2351 21.0456V32.1895H82.8683V21.0456H84.2351ZM75.0122 28.7417C77.0193 28.7417 79.8022 28.7171 82.2033 28.3723L82.3142 29.3697C79.8145 29.8499 77.1424 29.8622 75.1845 29.8622L75.0122 28.7417ZM98.4574 21.0456V32.1772H97.1521V21.0456H98.4574ZM96.0932 21.3166V31.6477H94.8002V26.5252H92.8177C92.1651 27.8059 91.1184 28.9141 89.5423 29.8253L88.7665 28.8525C91.0753 27.4919 92.1282 25.7495 92.3375 23.5084H89.333V22.4002H93.692C93.692 23.4776 93.5627 24.4873 93.261 25.4293H94.8002V21.3166H96.0932ZM103.962 23.7177C103.949 25.7618 105.021 27.8059 106.831 28.5816L106.018 29.6775C104.737 29.0865 103.795 27.9044 103.284 26.4514C102.773 28.0213 101.819 29.302 100.465 29.9361L99.6272 28.791C101.487 27.9906 102.57 25.8603 102.57 23.7177V21.9445H103.962V23.7177ZM109.01 21.0456V32.1895H107.631V21.0456H109.01ZM120.794 25.5648V26.6484H116.386V27.4857H119.526V30.2193H113.197V31.032H119.834V32.0787H111.855V29.2342H118.184V28.5201H111.842V27.4857H115.019V26.6484H110.648V25.5648H120.794ZM119.489 21.3904V24.8629H111.929V21.3904H119.489ZM113.271 22.4617V23.7916H118.122V22.4617H113.271ZM128.072 31.2044C126.286 31.2044 124.981 30.1455 124.932 28.6678H126.496C126.545 29.3943 127.222 29.9115 128.072 29.9115C129.069 29.9115 129.783 29.185 129.783 28.1999C129.783 27.1779 129.045 26.4514 128.023 26.4514C127.333 26.439 126.828 26.6853 126.545 27.2148H125.055L125.597 22.1662H130.867V23.5084H126.914L126.643 25.8726H126.73C127.074 25.4786 127.727 25.1954 128.454 25.1954C130.116 25.1954 131.335 26.439 131.335 28.1506C131.335 29.9361 129.993 31.2044 128.072 31.2044ZM141.592 21.0456V32.1772H140.225V21.0456H141.592ZM132.369 29.0865C133.256 29.0803 134.259 29.0803 135.312 29.0495V28.0275C134.056 27.8305 133.244 27.0609 133.244 26.0081C133.244 24.7521 134.352 23.9147 135.977 23.9147C137.615 23.9147 138.748 24.7521 138.748 26.0081C138.748 27.0547 137.929 27.8182 136.679 28.0152V29.0003C137.658 28.9572 138.643 28.8772 139.573 28.754L139.671 29.776C137.221 30.1947 134.573 30.2193 132.566 30.2193L132.369 29.0865ZM139.376 22.3263V23.4099H132.603V22.3263H135.312V21.0826H136.679V22.3263H139.376ZM135.977 24.9614C135.14 24.9737 134.536 25.3554 134.549 26.0081C134.536 26.6484 135.14 27.0301 135.977 27.0178C136.851 27.0301 137.43 26.6484 137.43 26.0081C137.43 25.3554 136.851 24.9737 135.977 24.9614ZM156.381 29.7145V30.835H146.21V29.7145H150.594V27.5473H147.33V21.7845H148.697V23.6069H153.857V21.7845H155.223V27.5473H151.948V29.7145H156.381ZM148.697 26.439H153.857V24.7028H148.697V26.439ZM166.404 21.0456V32.1772H165.025V21.0456H166.404ZM163.08 22.2278C163.08 25.5401 161.799 28.36 157.896 30.207L157.181 29.1111C160.094 27.7258 161.448 25.8418 161.688 23.3114H157.748V22.2278H163.08Z" fill="white"/>
<line x1="14.9011" y1="43.9901" x2="180.54" y2="43.9901" stroke="#5C5C5C" stroke-width="1.14629"/>
<defs>
<filter id="filter0_i_1639_2261" x="20.6377" y="60.9099" width="21.2063" height="28.4734" filterUnits="userSpaceOnUse" color-interpolation-filters="sRGB">
<feFlood flood-opacity="0" result="BackgroundImageFix"/>
<feBlend mode="normal" in="SourceGraphic" in2="BackgroundImageFix" result="shape"/>
<feColorMatrix in="SourceAlpha" type="matrix" values="0 0 0 0 0 0 0 0 0 0 0 0 0 0 0 0 0 0 127 0" result="hardAlpha"/>
<feOffset dy="1.96172"/>
<feGaussianBlur stdDeviation="0.980861"/>
<feComposite in2="hardAlpha" operator="arithmetic" k2="-1" k3="1"/>
<feColorMatrix type="matrix" values="0 0 0 0 0 0 0 0 0 0 0 0 0 0 0 0 0 0 0.25 0"/>
<feBlend mode="normal" in2="shape" result="effect1_innerShadow_1639_2261"/>
</filter>
<filter id="filter1_i_1639_2261" x="53.8757" y="60.9099" width="21.2063" height="28.4734" filterUnits="userSpaceOnUse" color-interpolation-filters="sRGB">
<feFlood flood-opacity="0" result="BackgroundImageFix"/>
<feBlend mode="normal" in="SourceGraphic" in2="BackgroundImageFix" result="shape"/>
<feColorMatrix in="SourceAlpha" type="matrix" values="0 0 0 0 0 0 0 0 0 0 0 0 0 0 0 0 0 0 127 0" result="hardAlpha"/>
<feOffset dy="1.96172"/>
<feGaussianBlur stdDeviation="0.980861"/>
<feComposite in2="hardAlpha" operator="arithmetic" k2="-1" k3="1"/>
<feColorMatrix type="matrix" values="0 0 0 0 0 0 0 0 0 0 0 0 0 0 0 0 0 0 0.25 0"/>
<feBlend mode="normal" in2="shape" result="effect1_innerShadow_1639_2261"/>
</filter>
<filter id="filter2_i_1639_2261" x="87.1216" y="60.9099" width="21.2063" height="28.4734" filterUnits="userSpaceOnUse" color-interpolation-filters="sRGB">
<feFlood flood-opacity="0" result="BackgroundImageFix"/>
<feBlend mode="normal" in="SourceGraphic" in2="BackgroundImageFix" result="shape"/>
<feColorMatrix in="SourceAlpha" type="matrix" values="0 0 0 0 0 0 0 0 0 0 0 0 0 0 0 0 0 0 127 0" result="hardAlpha"/>
<feOffset dy="1.96172"/>
<feGaussianBlur stdDeviation="0.980861"/>
<feComposite in2="hardAlpha" operator="arithmetic" k2="-1" k3="1"/>
<feColorMatrix type="matrix" values="0 0 0 0 0 0 0 0 0 0 0 0 0 0 0 0 0 0 0.25 0"/>
<feBlend mode="normal" in2="shape" result="effect1_innerShadow_1639_2261"/>
</filter>
<filter id="filter3_i_1639_2261" x="120.361" y="60.9099" width="21.2063" height="28.4734" filterUnits="userSpaceOnUse" color-interpolation-filters="sRGB">
<feFlood flood-opacity="0" result="BackgroundImageFix"/>
<feBlend mode="normal" in="SourceGraphic" in2="BackgroundImageFix" result="shape"/>
<feColorMatrix in="SourceAlpha" type="matrix" values="0 0 0 0 0 0 0 0 0 0 0 0 0 0 0 0 0 0 127 0" result="hardAlpha"/>
<feOffset dy="1.96172"/>
<feGaussianBlur stdDeviation="0.980861"/>
<feComposite in2="hardAlpha" operator="arithmetic" k2="-1" k3="1"/>
<feColorMatrix type="matrix" values="0 0 0 0 0 0 0 0 0 0 0 0 0 0 0 0 0 0 0.25 0"/>
<feBlend mode="normal" in2="shape" result="effect1_innerShadow_1639_2261"/>
</filter>
<filter id="filter4_i_1639_2261" x="153.605" y="60.9099" width="21.2063" height="28.4734" filterUnits="userSpaceOnUse" color-interpolation-filters="sRGB">
<feFlood flood-opacity="0" result="BackgroundImageFix"/>
<feBlend mode="normal" in="SourceGraphic" in2="BackgroundImageFix" result="shape"/>
<feColorMatrix in="SourceAlpha" type="matrix" values="0 0 0 0 0 0 0 0 0 0 0 0 0 0 0 0 0 0 127 0" result="hardAlpha"/>
<feOffset dy="1.96172"/>
<feGaussianBlur stdDeviation="0.980861"/>
<feComposite in2="hardAlpha" operator="arithmetic" k2="-1" k3="1"/>
<feColorMatrix type="matrix" values="0 0 0 0 0 0 0 0 0 0 0 0 0 0 0 0 0 0 0.25 0"/>
<feBlend mode="normal" in2="shape" result="effect1_innerShadow_1639_2261"/>
</filter>
</defs>
</svg>
