<svg width="197" height="112" viewBox="0 0 197 112" fill="none" xmlns="http://www.w3.org/2000/svg">
<rect x="0.859719" y="0.859719" width="194.296" height="110.044" rx="16.3347" fill="#212121" stroke="#5C5C5C" stroke-width="1.71944"/>
<path d="M49.3274 21.8868V28.6717H47.9483V21.8868H49.3274ZM45.7564 22.5518V25.8149H41.9885V27.0093C43.8971 27.0032 45.2454 26.9416 46.8401 26.7015L47.0124 27.7974C45.2516 28.0806 43.7493 28.1299 41.5944 28.1299H40.6463V24.7928H44.4019V23.6723H40.6216V22.5518H45.7564ZM45.5841 28.8687C47.9483 28.8687 49.389 29.6198 49.389 30.9374C49.389 32.2303 47.9483 32.9938 45.5841 32.9938C43.2075 32.9938 41.7791 32.2303 41.7791 30.9374C41.7791 29.6198 43.2075 28.8687 45.5841 28.8687ZM45.5841 29.94C44.0079 29.94 43.1336 30.2848 43.1336 30.9374C43.1336 31.5777 44.0079 31.9225 45.5841 31.9225C47.1479 31.9225 48.0222 31.5777 48.0222 30.9374C48.0222 30.2848 47.1479 29.94 45.5841 29.94ZM59.9787 22.9089V24.2387C59.9787 25.8518 59.9787 27.391 59.4862 29.7429L58.1194 29.6198C58.3472 28.647 58.4765 27.7912 58.5504 26.997L51.9872 27.3418L51.8025 26.2335L58.6119 25.975C58.6366 25.3777 58.6366 24.8052 58.6366 24.2387V24.0171H52.1349V22.9089H59.9787ZM61.0993 30.4695V31.59H50.9528V30.4695H61.0993ZM69.8543 28.8317C72.2678 28.844 73.7947 29.6075 73.807 30.9251C73.7947 32.218 72.2678 32.9938 69.8543 32.9938C67.4532 32.9938 65.9139 32.218 65.9139 30.9251C65.9139 29.6075 67.4532 28.844 69.8543 28.8317ZM69.8543 29.8661C68.2535 29.8661 67.2808 30.2478 67.2931 30.9251C67.2808 31.5777 68.2535 31.9348 69.8543 31.9348C71.4674 31.9348 72.4402 31.5777 72.4525 30.9251C72.4402 30.2478 71.4674 29.8661 69.8543 29.8661ZM73.7331 22.404V23.3275C73.7331 24.2018 73.7331 25.1376 73.4253 26.2828L72.0708 26.1597C72.3478 25.0761 72.3663 24.2941 72.3663 23.4876H66.0248V22.404H73.7331ZM74.9645 26.9231V28.0313H64.8673V26.9231H68.783V24.9037H70.1375V26.9231H74.9645ZM85.899 28.1175V29.2258H83.424V33.0061H82.0325V29.2258H79.5698V33.0061H78.1661V29.2258H75.7279V28.1175H85.899ZM80.7889 22.2685C83.1531 22.2809 84.8031 23.2413 84.8031 24.7559C84.8031 26.2459 83.1531 27.194 80.7889 27.194C78.4123 27.194 76.7869 26.2459 76.7992 24.7559C76.7869 23.2413 78.4123 22.2809 80.7889 22.2685ZM80.7889 23.3768C79.2127 23.3768 78.1907 23.8816 78.203 24.7559C78.1907 25.6056 79.2127 26.1104 80.7889 26.1104C82.365 26.1104 83.3871 25.6056 83.3871 24.7559C83.3871 23.8816 82.365 23.3768 80.7889 23.3768ZM93.1641 32.0333C91.3786 32.0333 90.0734 30.9743 90.0241 29.4967H91.588C91.6372 30.2232 92.3145 30.7404 93.1641 30.7404C94.1615 30.7404 94.8757 30.0138 94.8757 29.0288C94.8757 28.0067 94.1369 27.2802 93.1149 27.2802C92.4253 27.2679 91.9204 27.5142 91.6372 28.0437H90.1473L90.6891 22.9951H95.9593V24.3372H92.0066L91.7357 26.7015H91.8219C92.1667 26.3074 92.8193 26.0242 93.5458 26.0242C95.2082 26.0242 96.4272 27.2679 96.4272 28.9795C96.4272 30.765 95.085 32.0333 93.1641 32.0333ZM106.685 21.8745V33.0061H105.318V21.8745H106.685ZM97.4616 29.9153C98.3482 29.9092 99.3517 29.9092 100.405 29.8784V28.8564C99.1486 28.6593 98.3359 27.8897 98.3359 26.8369C98.3359 25.5809 99.4441 24.7436 101.069 24.7436C102.707 24.7436 103.84 25.5809 103.84 26.8369C103.84 27.8836 103.021 28.647 101.771 28.844V29.8291C102.75 29.786 103.735 29.706 104.665 29.5829L104.764 30.6049C102.313 31.0236 99.6657 31.0482 97.6586 31.0482L97.4616 29.9153ZM104.468 23.1551V24.2387H97.6955V23.1551H100.405V21.9114H101.771V23.1551H104.468ZM101.069 25.7903C100.232 25.8026 99.6288 26.1843 99.6411 26.8369C99.6288 27.4772 100.232 27.859 101.069 27.8466C101.944 27.859 102.523 27.4772 102.523 26.8369C102.523 26.1843 101.944 25.8026 101.069 25.7903ZM120.562 21.8745V33.0184H119.183V21.8745H120.562ZM114.565 22.6872C116.24 22.6872 117.459 24.2141 117.471 26.6153C117.459 29.0411 116.24 30.5557 114.565 30.5557C112.878 30.5557 111.659 29.0411 111.659 26.6153C111.659 24.2141 112.878 22.6872 114.565 22.6872ZM114.565 23.9186C113.617 23.9186 112.977 24.916 112.977 26.6153C112.977 28.3269 113.617 29.3243 114.565 29.3243C115.501 29.3243 116.141 28.3269 116.141 26.6153C116.141 24.916 115.501 23.9186 114.565 23.9186ZM126.14 23.6477C126.14 25.0514 127.051 26.369 128.763 26.9108L128.024 27.9821C126.824 27.5757 125.962 26.763 125.488 25.7287C124.995 26.9108 124.096 27.8405 122.815 28.2899L122.077 27.2186C123.874 26.5906 124.761 25.113 124.773 23.5245V22.4656H126.14V23.6477ZM130.979 21.8745V24.5835H132.531V25.7164H130.979V28.5362H129.613V21.8745H130.979ZM127.359 28.7825C129.662 28.7702 131.078 29.5582 131.09 30.8758C131.078 32.218 129.662 32.9938 127.359 32.9938C125.032 32.9938 123.591 32.218 123.591 30.8758C123.591 29.5582 125.032 28.7702 127.359 28.7825ZM127.359 29.8538C125.832 29.8538 124.958 30.2232 124.958 30.8758C124.958 31.5654 125.832 31.9102 127.359 31.9102C128.886 31.9102 129.736 31.5654 129.736 30.8758C129.736 30.2232 128.886 29.8538 127.359 29.8538ZM141.815 21.8745V26.3074H143.527V27.4403H141.815V33.0061H140.461V21.8745H141.815ZM139.599 23.5861V24.682H133.036V23.5861H135.671V22.0346H137.038V23.5861H139.599ZM136.361 25.4085C137.961 25.4085 139.156 26.4921 139.156 28.0313C139.156 29.5706 137.961 30.6418 136.361 30.6418C134.735 30.6418 133.541 29.5706 133.553 28.0313C133.541 26.4921 134.735 25.4085 136.361 25.4085ZM136.361 26.5291C135.486 26.5291 134.858 27.1201 134.858 28.0313C134.858 28.9426 135.486 29.5213 136.361 29.509C137.21 29.5213 137.838 28.9426 137.85 28.0313C137.838 27.1201 137.21 26.5291 136.361 26.5291ZM153.292 21.8745V33.0061H151.913V21.8745H153.292ZM149.967 23.0566C149.967 26.369 148.687 29.1888 144.783 31.0359L144.069 29.94C146.981 28.5547 148.336 26.6707 148.576 24.1402H144.635V23.0566H149.967Z" fill="white"/>
<g filter="url(#filter0_i_1639_2286)">
<path d="M21.582 75.2148H41.1847C41.1847 75.2148 41.7879 82.2203 39.9784 84.7423C38.169 87.2642 34.2481 86.4236 33.0418 87.2642C31.8355 88.1049 31.5339 88.6653 31.5339 88.6653C31.5339 88.6653 31.5339 87.7554 30.026 87.2642C28.5182 86.7731 25.5024 87.2642 23.3914 84.7423C21.2804 82.2203 21.582 75.2148 21.582 75.2148Z" fill="#F05925"/>
<path d="M23.6775 66.8046C27.8988 64.5629 30.0106 65.1233 30.0106 65.1233C30.0106 65.1233 30.363 64.2783 30.3129 63.7222C30.2601 63.1348 30.0114 62.6013 29.709 62.3211C29.4066 62.0409 30.3129 62.041 31.2177 62.8816C32.1224 63.7221 33.3279 65.1233 33.3279 65.1233C33.3279 65.1233 35.1365 64.8431 38.7562 66.8046C42.3759 68.7661 42.073 74.0903 41.4706 74.0902C40.8683 74.0901 21.8689 74.3703 21.2657 74.0902C20.6626 73.8101 19.4563 69.0464 23.6775 66.8046Z" fill="#F05925"/>
</g>
<g filter="url(#filter1_i_1639_2286)">
<path d="M54.8262 74.9509H74.4289C74.4289 74.9509 75.032 81.9564 73.2226 84.4783C71.4131 87.0003 67.4922 86.1597 66.2859 87.0003C65.0796 87.841 64.778 88.4014 64.778 88.4014C64.778 88.4014 64.778 87.4915 63.2702 87.0003C61.7623 86.5091 58.7466 87.0003 56.6356 84.4783C54.5245 81.9564 54.8262 74.9509 54.8262 74.9509Z" fill="#F05925"/>
<path d="M56.9217 66.5407C61.1429 64.299 63.2547 64.8594 63.2547 64.8594C63.2547 64.8594 63.6071 64.0144 63.5571 63.4583C63.5042 62.8709 63.2555 62.3374 62.9531 62.0572C62.6508 61.777 63.5571 61.7771 64.4618 62.6176C65.3665 63.4582 66.572 64.8594 66.572 64.8594C66.572 64.8594 68.3806 64.5792 72.0003 66.5407C75.62 68.5022 75.3171 73.8264 74.7148 73.8263C74.1124 73.8261 55.113 74.1064 54.5099 73.8263C53.9067 73.5462 52.7004 68.7824 56.9217 66.5407Z" fill="#F05925"/>
</g>
<g filter="url(#filter2_i_1639_2286)">
<path d="M88.0679 74.9509H107.671C107.671 74.9509 108.274 81.9564 106.464 84.4783C104.655 87.0003 100.734 86.1597 99.5276 87.0003C98.3213 87.841 98.0197 88.4014 98.0197 88.4014C98.0197 88.4014 98.0197 87.4915 96.5119 87.0003C95.004 86.5091 91.9883 87.0003 89.8773 84.4783C87.7662 81.9564 88.0679 74.9509 88.0679 74.9509Z" fill="#F05925"/>
<path d="M90.1634 66.5407C94.3846 64.299 96.4964 64.8594 96.4964 64.8594C96.4964 64.8594 96.8488 64.0144 96.7988 63.4583C96.7459 62.8709 96.4972 62.3374 96.1948 62.0572C95.8925 61.777 96.7988 61.7771 97.7035 62.6176C98.6082 63.4582 99.8137 64.8594 99.8137 64.8594C99.8137 64.8594 101.622 64.5792 105.242 66.5407C108.862 68.5022 108.559 73.8264 107.956 73.8263C107.354 73.8261 88.3547 74.1064 87.7516 73.8263C87.1484 73.5462 85.9421 68.7824 90.1634 66.5407Z" fill="#F05925"/>
</g>
<g filter="url(#filter3_i_1639_2286)">
<path d="M121.308 74.9509H140.911C140.911 74.9509 141.514 81.9564 139.705 84.4783C137.895 87.0003 133.974 86.1597 132.768 87.0003C131.562 87.841 131.26 88.4014 131.26 88.4014C131.26 88.4014 131.26 87.4915 129.752 87.0003C128.244 86.5091 125.229 87.0003 123.118 84.4783C121.007 81.9564 121.308 74.9509 121.308 74.9509Z" fill="#5C5C5C"/>
<path d="M123.404 66.5407C127.625 64.299 129.737 64.8594 129.737 64.8594C129.737 64.8594 130.089 64.0144 130.039 63.4583C129.986 62.8709 129.738 62.3374 129.435 62.0572C129.133 61.777 130.039 61.7771 130.944 62.6176C131.849 63.4582 133.054 64.8594 133.054 64.8594C133.054 64.8594 134.863 64.5792 138.483 66.5407C142.102 68.5022 141.799 73.8264 141.197 73.8263C140.595 73.8261 121.595 74.1064 120.992 73.8263C120.389 73.5462 119.183 68.7824 123.404 66.5407Z" fill="#5C5C5C"/>
</g>
<g filter="url(#filter4_i_1639_2286)">
<path d="M154.55 75.2148H174.153C174.153 75.2148 174.756 82.2203 172.947 84.7423C171.137 87.2642 167.216 86.4236 166.01 87.2642C164.804 88.1049 164.502 88.6653 164.502 88.6653C164.502 88.6653 164.502 87.7554 162.994 87.2642C161.486 86.7731 158.471 87.2642 156.36 84.7423C154.249 82.2203 154.55 75.2148 154.55 75.2148Z" fill="#5C5C5C"/>
<path d="M156.646 66.8046C160.867 64.5629 162.979 65.1233 162.979 65.1233C162.979 65.1233 163.331 64.2783 163.281 63.7222C163.228 63.1348 162.98 62.6013 162.677 62.3211C162.375 62.0409 163.281 62.041 164.186 62.8816C165.091 63.7221 166.296 65.1233 166.296 65.1233C166.296 65.1233 168.105 64.8431 171.724 66.8046C175.344 68.7661 175.041 74.0903 174.439 74.0902C173.837 74.0901 154.837 74.3703 154.234 74.0902C153.631 73.8101 152.425 69.0464 156.646 66.8046Z" fill="#5C5C5C"/>
</g>
<line x1="15.4758" y1="44.9613" x2="181.115" y2="44.9613" stroke="#5C5C5C" stroke-width="1.14629"/>
<defs>
<filter id="filter0_i_1639_2286" x="20.6326" y="62.1536" width="21.2063" height="28.4734" filterUnits="userSpaceOnUse" color-interpolation-filters="sRGB">
<feFlood flood-opacity="0" result="BackgroundImageFix"/>
<feBlend mode="normal" in="SourceGraphic" in2="BackgroundImageFix" result="shape"/>
<feColorMatrix in="SourceAlpha" type="matrix" values="0 0 0 0 0 0 0 0 0 0 0 0 0 0 0 0 0 0 127 0" result="hardAlpha"/>
<feOffset dy="1.96172"/>
<feGaussianBlur stdDeviation="0.980861"/>
<feComposite in2="hardAlpha" operator="arithmetic" k2="-1" k3="1"/>
<feColorMatrix type="matrix" values="0 0 0 0 0 0 0 0 0 0 0 0 0 0 0 0 0 0 0.25 0"/>
<feBlend mode="normal" in2="shape" result="effect1_innerShadow_1639_2286"/>
</filter>
<filter id="filter1_i_1639_2286" x="53.8767" y="61.8896" width="21.2063" height="28.4734" filterUnits="userSpaceOnUse" color-interpolation-filters="sRGB">
<feFlood flood-opacity="0" result="BackgroundImageFix"/>
<feBlend mode="normal" in="SourceGraphic" in2="BackgroundImageFix" result="shape"/>
<feColorMatrix in="SourceAlpha" type="matrix" values="0 0 0 0 0 0 0 0 0 0 0 0 0 0 0 0 0 0 127 0" result="hardAlpha"/>
<feOffset dy="1.96172"/>
<feGaussianBlur stdDeviation="0.980861"/>
<feComposite in2="hardAlpha" operator="arithmetic" k2="-1" k3="1"/>
<feColorMatrix type="matrix" values="0 0 0 0 0 0 0 0 0 0 0 0 0 0 0 0 0 0 0.25 0"/>
<feBlend mode="normal" in2="shape" result="effect1_innerShadow_1639_2286"/>
</filter>
<filter id="filter2_i_1639_2286" x="87.1184" y="61.8896" width="21.2063" height="28.4734" filterUnits="userSpaceOnUse" color-interpolation-filters="sRGB">
<feFlood flood-opacity="0" result="BackgroundImageFix"/>
<feBlend mode="normal" in="SourceGraphic" in2="BackgroundImageFix" result="shape"/>
<feColorMatrix in="SourceAlpha" type="matrix" values="0 0 0 0 0 0 0 0 0 0 0 0 0 0 0 0 0 0 127 0" result="hardAlpha"/>
<feOffset dy="1.96172"/>
<feGaussianBlur stdDeviation="0.980861"/>
<feComposite in2="hardAlpha" operator="arithmetic" k2="-1" k3="1"/>
<feColorMatrix type="matrix" values="0 0 0 0 0 0 0 0 0 0 0 0 0 0 0 0 0 0 0.25 0"/>
<feBlend mode="normal" in2="shape" result="effect1_innerShadow_1639_2286"/>
</filter>
<filter id="filter3_i_1639_2286" x="120.359" y="61.8896" width="21.2063" height="28.4734" filterUnits="userSpaceOnUse" color-interpolation-filters="sRGB">
<feFlood flood-opacity="0" result="BackgroundImageFix"/>
<feBlend mode="normal" in="SourceGraphic" in2="BackgroundImageFix" result="shape"/>
<feColorMatrix in="SourceAlpha" type="matrix" values="0 0 0 0 0 0 0 0 0 0 0 0 0 0 0 0 0 0 127 0" result="hardAlpha"/>
<feOffset dy="1.96172"/>
<feGaussianBlur stdDeviation="0.980861"/>
<feComposite in2="hardAlpha" operator="arithmetic" k2="-1" k3="1"/>
<feColorMatrix type="matrix" values="0 0 0 0 0 0 0 0 0 0 0 0 0 0 0 0 0 0 0.25 0"/>
<feBlend mode="normal" in2="shape" result="effect1_innerShadow_1639_2286"/>
</filter>
<filter id="filter4_i_1639_2286" x="153.601" y="62.1536" width="21.2063" height="28.4734" filterUnits="userSpaceOnUse" color-interpolation-filters="sRGB">
<feFlood flood-opacity="0" result="BackgroundImageFix"/>
<feBlend mode="normal" in="SourceGraphic" in2="BackgroundImageFix" result="shape"/>
<feColorMatrix in="SourceAlpha" type="matrix" values="0 0 0 0 0 0 0 0 0 0 0 0 0 0 0 0 0 0 127 0" result="hardAlpha"/>
<feOffset dy="1.96172"/>
<feGaussianBlur stdDeviation="0.980861"/>
<feComposite in2="hardAlpha" operator="arithmetic" k2="-1" k3="1"/>
<feColorMatrix type="matrix" values="0 0 0 0 0 0 0 0 0 0 0 0 0 0 0 0 0 0 0.25 0"/>
<feBlend mode="normal" in2="shape" result="effect1_innerShadow_1639_2286"/>
</filter>
</defs>
</svg>
