<svg width="197" height="112" viewBox="0 0 197 112" fill="none" xmlns="http://www.w3.org/2000/svg">
<rect x="0.859719" y="0.859719" width="194.296" height="110.044" rx="16.3347" fill="#212121" stroke="#5C5C5C" stroke-width="1.71944"/>
<g filter="url(#filter0_i_1639_2337)">
<path d="M21.5813 75.2185H41.184C41.184 75.2185 41.7871 82.224 39.9777 84.7459C38.1682 87.2679 34.2473 86.4272 33.041 87.2679C31.8347 88.1085 31.5332 88.669 31.5332 88.669C31.5332 88.669 31.5332 87.7591 30.0253 87.2679C28.5174 86.7767 25.5017 87.2679 23.3907 84.7459C21.2797 82.224 21.5813 75.2185 21.5813 75.2185Z" fill="#F15A25"/>
<path d="M23.6768 66.8083C27.898 64.5665 30.0098 65.127 30.0098 65.127C30.0098 65.127 30.3622 64.282 30.3122 63.7259C30.2594 63.1385 30.0106 62.605 29.7083 62.3248C29.4059 62.0446 30.3122 62.0447 31.2169 62.8852C32.1217 63.7257 33.3271 65.127 33.3271 65.127C33.3271 65.127 35.1358 64.8467 38.7555 66.8083C42.3751 68.7698 42.0722 74.094 41.4699 74.0939C40.8675 74.0937 21.8682 74.374 21.265 74.0939C20.6618 73.8137 19.4556 69.05 23.6768 66.8083Z" fill="#F15A25"/>
</g>
<g filter="url(#filter1_i_1639_2337)">
<path d="M54.823 75.2185H74.4257C74.4257 75.2185 75.0288 82.224 73.2194 84.7459C71.4099 87.2679 67.489 86.4272 66.2827 87.2679C65.0764 88.1085 64.7749 88.669 64.7749 88.669C64.7749 88.669 64.7749 87.7591 63.267 87.2679C61.7591 86.7767 58.7434 87.2679 56.6324 84.7459C54.5214 82.224 54.823 75.2185 54.823 75.2185Z" fill="#5C5C5C"/>
<path d="M56.9185 66.8083C61.1397 64.5665 63.2515 65.127 63.2515 65.127C63.2515 65.127 63.6039 64.282 63.5539 63.7259C63.5011 63.1385 63.2523 62.605 62.95 62.3248C62.6476 62.0446 63.5539 62.0447 64.4586 62.8852C65.3633 63.7257 66.5688 65.127 66.5688 65.127C66.5688 65.127 68.3775 64.8467 71.9972 66.8083C75.6168 68.7698 75.3139 74.094 74.7116 74.0939C74.1092 74.0937 55.1099 74.374 54.5067 74.0939C53.9035 73.8137 52.6973 69.05 56.9185 66.8083Z" fill="#5C5C5C"/>
</g>
<g filter="url(#filter2_i_1639_2337)">
<path d="M88.0686 75.2185H107.671C107.671 75.2185 108.274 82.224 106.465 84.7459C104.656 87.2679 100.735 86.4272 99.5283 87.2679C98.322 88.1085 98.0205 88.669 98.0205 88.669C98.0205 88.669 98.0205 87.7591 96.5126 87.2679C95.0047 86.7767 91.989 87.2679 89.878 84.7459C87.767 82.224 88.0686 75.2185 88.0686 75.2185Z" fill="#5C5C5C"/>
<path d="M90.1641 66.8083C94.3853 64.5665 96.4971 65.127 96.4971 65.127C96.4971 65.127 96.8495 64.282 96.7995 63.7259C96.7467 63.1385 96.4979 62.605 96.1956 62.3248C95.8932 62.0446 96.7995 62.0447 97.7042 62.8852C98.609 63.7257 99.8144 65.127 99.8144 65.127C99.8144 65.127 101.623 64.8467 105.243 66.8083C108.862 68.7698 108.56 74.094 107.957 74.0939C107.355 74.0937 88.3555 74.374 87.7523 74.0939C87.1492 73.8137 85.9429 69.05 90.1641 66.8083Z" fill="#5C5C5C"/>
</g>
<g filter="url(#filter3_i_1639_2337)">
<path d="M121.304 75.2185H140.907C140.907 75.2185 141.51 82.224 139.701 84.7459C137.891 87.2679 133.97 86.4272 132.764 87.2679C131.558 88.1085 131.256 88.669 131.256 88.669C131.256 88.669 131.256 87.7591 129.748 87.2679C128.241 86.7767 125.225 87.2679 123.114 84.7459C121.003 82.224 121.304 75.2185 121.304 75.2185Z" fill="#5C5C5C"/>
<path d="M123.4 66.8083C127.621 64.5665 129.733 65.127 129.733 65.127C129.733 65.127 130.085 64.282 130.035 63.7259C129.983 63.1385 129.734 62.605 129.431 62.3248C129.129 62.0446 130.035 62.0447 130.94 62.8852C131.845 63.7257 133.05 65.127 133.05 65.127C133.05 65.127 134.859 64.8467 138.479 66.8083C142.098 68.7698 141.795 74.094 141.193 74.0939C140.591 74.0937 121.591 74.374 120.988 74.0939C120.385 73.8137 119.179 69.05 123.4 66.8083Z" fill="#5C5C5C"/>
</g>
<g filter="url(#filter4_i_1639_2337)">
<path d="M154.554 75.2185H174.157C174.157 75.2185 174.76 82.224 172.951 84.7459C171.141 87.2679 167.22 86.4272 166.014 87.2679C164.808 88.1085 164.506 88.669 164.506 88.669C164.506 88.669 164.506 87.7591 162.998 87.2679C161.491 86.7767 158.475 87.2679 156.364 84.7459C154.253 82.224 154.554 75.2185 154.554 75.2185Z" fill="#5C5C5C"/>
<path d="M156.65 66.8083C160.871 64.5665 162.983 65.127 162.983 65.127C162.983 65.127 163.335 64.282 163.285 63.7259C163.233 63.1385 162.984 62.605 162.681 62.3248C162.379 62.0446 163.285 62.0447 164.19 62.8852C165.095 63.7257 166.3 65.127 166.3 65.127C166.3 65.127 168.109 64.8467 171.729 66.8083C175.348 68.7698 175.045 74.094 174.443 74.0939C173.841 74.0937 154.841 74.374 154.238 74.0939C153.635 73.8137 152.429 69.05 156.65 66.8083Z" fill="#5C5C5C"/>
</g>
<path d="M57.5387 27.438V28.5216H53.1304V29.5929H56.295V33.2131H54.9282V30.7011H48.5128V29.5929H51.7759V28.5216H47.3922V27.438H57.5387ZM50.0643 22.3524V23.4607H54.8666V22.3524H56.2211V26.613H48.7098V22.3524H50.0643ZM50.0643 25.5171H54.8666V24.4827H50.0643V25.5171ZM63.9541 23.1651V30.4548H58.6839V23.1651H63.9541ZM60.0261 24.2364V29.3589H62.5873V24.2364H60.0261ZM67.0079 22.0815V26.3544H68.7195V27.5119H67.0079V33.2131H65.6411V22.0815H67.0079ZM75.1719 22.7834C75.1596 25.788 73.6327 27.832 69.9386 28.9033L69.4337 27.8074C71.1392 27.3395 72.2474 26.6745 72.9062 25.8495L69.5938 26.0958L69.3845 25.0122L73.4726 24.8521C73.5896 24.5504 73.6635 24.2241 73.7066 23.8793H69.9509V22.7834H75.1719ZM78.4596 22.0939V28.694H77.0805V22.0939H78.4596ZM74.7163 28.8541C77.0312 28.8541 78.4966 29.6545 78.4966 31.0336C78.4966 32.4127 77.0312 33.1885 74.7163 33.1885C72.352 33.1885 70.8867 32.4127 70.8867 31.0336C70.8867 29.6545 72.352 28.8541 74.7163 28.8541ZM74.7163 29.9377C73.1278 29.9377 72.2659 30.3194 72.2659 31.0336C72.2659 31.7355 73.1278 32.1295 74.7163 32.1295C76.2432 32.1295 77.1298 31.7355 77.1298 31.0336C77.1298 30.3194 76.2432 29.9377 74.7163 29.9377ZM86.6113 32.2403C84.8258 32.2403 83.5206 31.1813 83.4713 29.7037H85.0351C85.0844 30.4302 85.7616 30.9474 86.6113 30.9474C87.6087 30.9474 88.3229 30.2209 88.3229 29.2358C88.3229 28.2138 87.5841 27.4872 86.562 27.4872C85.8725 27.4749 85.3676 27.7212 85.0844 28.2507H83.5944L84.1362 23.2021H89.4065V24.5443H85.4538L85.1829 26.9085H85.2691C85.6139 26.5145 86.2665 26.2312 86.993 26.2312C88.6554 26.2312 89.8744 27.4749 89.8744 29.1865C89.8744 30.972 88.5322 32.2403 86.6113 32.2403ZM100.415 22.0815V33.2131H99.0974V27.4996H97.9029V32.6959H96.6223V22.3771H97.9029V26.3913H99.0974V22.0815H100.415ZM95.6742 23.4853C95.6742 26.4898 94.726 29.0757 91.5614 30.8858L90.7733 29.9377C93.1437 28.5647 94.1473 26.8038 94.3443 24.5812H91.2905V23.4853H95.6742ZM114.009 22.0815V33.2254H112.63V22.0815H114.009ZM108.012 22.8942C109.687 22.8942 110.906 24.4211 110.918 26.8223C110.906 29.2481 109.687 30.7627 108.012 30.7627C106.325 30.7627 105.106 29.2481 105.106 26.8223C105.106 24.4211 106.325 22.8942 108.012 22.8942ZM108.012 24.1256C107.064 24.1256 106.424 25.123 106.424 26.8223C106.424 28.5339 107.064 29.5313 108.012 29.5313C108.948 29.5313 109.589 28.5339 109.589 26.8223C109.589 25.123 108.948 24.1256 108.012 24.1256ZM119.587 23.8547C119.587 25.2585 120.499 26.576 122.21 27.1178L121.471 28.1891C120.271 27.7828 119.409 26.9701 118.935 25.9357C118.442 27.1178 117.543 28.0475 116.263 28.497L115.524 27.4257C117.322 26.7977 118.208 25.32 118.221 23.7316V22.6726H119.587V23.8547ZM124.427 22.0815V24.7905H125.978V25.9234H124.427V28.7432H123.06V22.0815H124.427ZM120.806 28.9895C123.109 28.9772 124.525 29.7653 124.537 31.0828C124.525 32.425 123.109 33.2008 120.806 33.2008C118.479 33.2008 117.038 32.425 117.038 31.0828C117.038 29.7653 118.479 28.9772 120.806 28.9895ZM120.806 30.0608C119.279 30.0608 118.405 30.4302 118.405 31.0828C118.405 31.7724 119.279 32.1172 120.806 32.1172C122.333 32.1172 123.183 31.7724 123.183 31.0828C123.183 30.4302 122.333 30.0608 120.806 30.0608ZM135.263 22.0815V26.5145H136.974V27.6473H135.263V33.2131H133.908V22.0815H135.263ZM133.046 23.7931V24.8891H126.483V23.7931H129.118V22.2416H130.485V23.7931H133.046ZM129.808 25.6156C131.408 25.6156 132.603 26.6992 132.603 28.2384C132.603 29.7776 131.408 30.8489 129.808 30.8489C128.182 30.8489 126.988 29.7776 127 28.2384C126.988 26.6992 128.182 25.6156 129.808 25.6156ZM129.808 26.7361C128.933 26.7361 128.305 27.3272 128.305 28.2384C128.305 29.1496 128.933 29.7283 129.808 29.716C130.657 29.7283 131.285 29.1496 131.298 28.2384C131.285 27.3272 130.657 26.7361 129.808 26.7361ZM146.739 22.0815V33.2131H145.36V22.0815H146.739ZM143.414 23.2637C143.414 26.576 142.134 29.3959 138.23 31.2429L137.516 30.147C140.428 28.7617 141.783 26.8777 142.023 24.3473H138.082V23.2637H143.414Z" fill="white"/>
<line x1="15.4341" y1="46.255" x2="179.775" y2="46.255" stroke="#5C5C5C" stroke-width="1.14629"/>
<defs>
<filter id="filter0_i_1639_2337" x="20.6318" y="62.1572" width="21.2065" height="28.4734" filterUnits="userSpaceOnUse" color-interpolation-filters="sRGB">
<feFlood flood-opacity="0" result="BackgroundImageFix"/>
<feBlend mode="normal" in="SourceGraphic" in2="BackgroundImageFix" result="shape"/>
<feColorMatrix in="SourceAlpha" type="matrix" values="0 0 0 0 0 0 0 0 0 0 0 0 0 0 0 0 0 0 127 0" result="hardAlpha"/>
<feOffset dy="1.96172"/>
<feGaussianBlur stdDeviation="0.980861"/>
<feComposite in2="hardAlpha" operator="arithmetic" k2="-1" k3="1"/>
<feColorMatrix type="matrix" values="0 0 0 0 0 0 0 0 0 0 0 0 0 0 0 0 0 0 0.25 0"/>
<feBlend mode="normal" in2="shape" result="effect1_innerShadow_1639_2337"/>
</filter>
<filter id="filter1_i_1639_2337" x="53.8735" y="62.1572" width="21.2063" height="28.4734" filterUnits="userSpaceOnUse" color-interpolation-filters="sRGB">
<feFlood flood-opacity="0" result="BackgroundImageFix"/>
<feBlend mode="normal" in="SourceGraphic" in2="BackgroundImageFix" result="shape"/>
<feColorMatrix in="SourceAlpha" type="matrix" values="0 0 0 0 0 0 0 0 0 0 0 0 0 0 0 0 0 0 127 0" result="hardAlpha"/>
<feOffset dy="1.96172"/>
<feGaussianBlur stdDeviation="0.980861"/>
<feComposite in2="hardAlpha" operator="arithmetic" k2="-1" k3="1"/>
<feColorMatrix type="matrix" values="0 0 0 0 0 0 0 0 0 0 0 0 0 0 0 0 0 0 0.25 0"/>
<feBlend mode="normal" in2="shape" result="effect1_innerShadow_1639_2337"/>
</filter>
<filter id="filter2_i_1639_2337" x="87.1191" y="62.1572" width="21.2063" height="28.4734" filterUnits="userSpaceOnUse" color-interpolation-filters="sRGB">
<feFlood flood-opacity="0" result="BackgroundImageFix"/>
<feBlend mode="normal" in="SourceGraphic" in2="BackgroundImageFix" result="shape"/>
<feColorMatrix in="SourceAlpha" type="matrix" values="0 0 0 0 0 0 0 0 0 0 0 0 0 0 0 0 0 0 127 0" result="hardAlpha"/>
<feOffset dy="1.96172"/>
<feGaussianBlur stdDeviation="0.980861"/>
<feComposite in2="hardAlpha" operator="arithmetic" k2="-1" k3="1"/>
<feColorMatrix type="matrix" values="0 0 0 0 0 0 0 0 0 0 0 0 0 0 0 0 0 0 0.25 0"/>
<feBlend mode="normal" in2="shape" result="effect1_innerShadow_1639_2337"/>
</filter>
<filter id="filter3_i_1639_2337" x="120.355" y="62.1572" width="21.2063" height="28.4734" filterUnits="userSpaceOnUse" color-interpolation-filters="sRGB">
<feFlood flood-opacity="0" result="BackgroundImageFix"/>
<feBlend mode="normal" in="SourceGraphic" in2="BackgroundImageFix" result="shape"/>
<feColorMatrix in="SourceAlpha" type="matrix" values="0 0 0 0 0 0 0 0 0 0 0 0 0 0 0 0 0 0 127 0" result="hardAlpha"/>
<feOffset dy="1.96172"/>
<feGaussianBlur stdDeviation="0.980861"/>
<feComposite in2="hardAlpha" operator="arithmetic" k2="-1" k3="1"/>
<feColorMatrix type="matrix" values="0 0 0 0 0 0 0 0 0 0 0 0 0 0 0 0 0 0 0.25 0"/>
<feBlend mode="normal" in2="shape" result="effect1_innerShadow_1639_2337"/>
</filter>
<filter id="filter4_i_1639_2337" x="153.605" y="62.1572" width="21.2063" height="28.4734" filterUnits="userSpaceOnUse" color-interpolation-filters="sRGB">
<feFlood flood-opacity="0" result="BackgroundImageFix"/>
<feBlend mode="normal" in="SourceGraphic" in2="BackgroundImageFix" result="shape"/>
<feColorMatrix in="SourceAlpha" type="matrix" values="0 0 0 0 0 0 0 0 0 0 0 0 0 0 0 0 0 0 127 0" result="hardAlpha"/>
<feOffset dy="1.96172"/>
<feGaussianBlur stdDeviation="0.980861"/>
<feComposite in2="hardAlpha" operator="arithmetic" k2="-1" k3="1"/>
<feColorMatrix type="matrix" values="0 0 0 0 0 0 0 0 0 0 0 0 0 0 0 0 0 0 0.25 0"/>
<feBlend mode="normal" in2="shape" result="effect1_innerShadow_1639_2337"/>
</filter>
</defs>
</svg>
