<svg width="28" height="28" viewBox="0 0 28 28" fill="none" xmlns="http://www.w3.org/2000/svg">
<path fill-rule="evenodd" clip-rule="evenodd" d="M12.2498 2.33325C10.6685 2.33339 9.11015 2.71168 7.70477 3.43656C6.2994 4.16145 5.08775 5.21191 4.17092 6.5003C3.25408 7.78869 2.65865 9.27766 2.4343 10.843C2.20995 12.4083 2.36318 14.0046 2.88122 15.4986C3.39925 16.9926 4.26706 18.3412 5.41225 19.4316C6.55744 20.522 7.9468 21.3228 9.46441 21.7671C10.982 22.2114 12.5839 22.2863 14.1363 21.9857C15.6888 21.685 17.1468 21.0174 18.3888 20.0386L22.6495 24.2993C22.8695 24.5118 23.1642 24.6294 23.4701 24.6267C23.776 24.624 24.0686 24.5014 24.2849 24.285C24.5012 24.0687 24.6239 23.7761 24.6266 23.4702C24.6292 23.1643 24.5117 22.8696 24.2991 22.6496L20.0385 18.3889C21.1911 16.9266 21.9088 15.1694 22.1094 13.3183C22.31 11.4671 21.9854 9.59694 21.1727 7.92169C20.3601 6.24645 19.0922 4.83383 17.5142 3.84552C15.9361 2.85721 14.1118 2.33313 12.2498 2.33325ZM4.66647 12.2499C4.66647 10.2387 5.46543 8.30984 6.88758 6.88769C8.30973 5.46554 10.2386 4.66659 12.2498 4.66659C14.261 4.66659 16.1899 5.46554 17.612 6.88769C19.0342 8.30984 19.8331 10.2387 19.8331 12.2499C19.8331 14.2611 19.0342 16.19 17.612 17.6121C16.1899 19.0343 14.261 19.8333 12.2498 19.8333C10.2386 19.8333 8.30973 19.0343 6.88758 17.6121C5.46543 16.19 4.66647 14.2611 4.66647 12.2499Z" fill="#A6ABBC"/>
</svg>
