<svg width="65" height="65" viewBox="0 0 65 65" fill="none" xmlns="http://www.w3.org/2000/svg">
<rect width="65" height="65" rx="32.5" fill="white"/>
<path d="M40.2085 47.9167C38.9238 47.9167 37.8318 47.4671 36.9325 46.5678C36.0331 45.6684 35.5835 44.5764 35.5835 43.2917C35.5835 43.1375 35.622 42.7778 35.6991 42.2125L24.8689 35.8917C24.4578 36.2771 23.9825 36.5793 23.4429 36.7982C22.9033 37.0171 22.3252 37.1261 21.7085 37.125C20.4238 37.125 19.3318 36.6754 18.4325 35.7761C17.5331 34.8768 17.0835 33.7848 17.0835 32.5C17.0835 31.2153 17.5331 30.1233 18.4325 29.224C19.3318 28.3247 20.4238 27.875 21.7085 27.875C22.3252 27.875 22.9033 27.9845 23.4429 28.2034C23.9825 28.4223 24.4578 28.724 24.8689 29.1084L35.6991 22.7875C35.6477 22.6077 35.6159 22.4345 35.6035 22.268C35.5912 22.1015 35.5845 21.915 35.5835 21.7084C35.5835 20.4237 36.0331 19.3316 36.9325 18.4323C37.8318 17.533 38.9238 17.0834 40.2085 17.0834C41.4932 17.0834 42.5852 17.533 43.4845 18.4323C44.3838 19.3316 44.8335 20.4237 44.8335 21.7084C44.8335 22.9931 44.3838 24.0851 43.4845 24.9844C42.5852 25.8837 41.4932 26.3334 40.2085 26.3334C39.5918 26.3334 39.0137 26.2239 38.4741 26.005C37.9345 25.7861 37.4592 25.4844 37.0481 25.1L26.2179 31.4209C26.2693 31.6007 26.3016 31.7744 26.315 31.942C26.3284 32.1095 26.3345 32.2955 26.3335 32.5C26.3325 32.7046 26.3263 32.8911 26.315 33.0597C26.3037 33.2282 26.2713 33.4014 26.2179 33.5792L37.0481 39.9C37.4592 39.5146 37.9345 39.213 38.4741 38.9951C39.0137 38.7772 39.5918 38.6677 40.2085 38.6667C41.4932 38.6667 42.5852 39.1164 43.4845 40.0157C44.3838 40.915 44.8335 42.007 44.8335 43.2917C44.8335 44.5764 44.3838 45.6684 43.4845 46.5678C42.5852 47.4671 41.4932 47.9167 40.2085 47.9167ZM40.2085 44.8334C40.6453 44.8334 41.0117 44.6859 41.3077 44.3909C41.6037 44.0959 41.7512 43.7295 41.7502 43.2917C41.7491 42.8539 41.6011 42.488 41.3062 42.194C41.0112 41.9001 40.6453 41.7521 40.2085 41.75C39.7717 41.748 39.4058 41.896 39.1108 42.194C38.8159 42.4921 38.6679 42.858 38.6668 43.2917C38.6658 43.7254 38.8138 44.0918 39.1108 44.3909C39.4079 44.69 39.7737 44.8375 40.2085 44.8334ZM21.7085 34.0417C22.1453 34.0417 22.5117 33.8937 22.8077 33.5977C23.1037 33.3017 23.2512 32.9358 23.2502 32.5C23.2491 32.0643 23.1011 31.6984 22.8062 31.4024C22.5112 31.1064 22.1453 30.9584 21.7085 30.9584C21.2717 30.9584 20.9058 31.1064 20.6108 31.4024C20.3159 31.6984 20.1679 32.0643 20.1668 32.5C20.1658 32.9358 20.3138 33.3022 20.6108 33.5993C20.9079 33.8963 21.2737 34.0438 21.7085 34.0417ZM40.2085 23.25C40.6453 23.25 41.0117 23.102 41.3077 22.806C41.6037 22.51 41.7512 22.1442 41.7502 21.7084C41.7491 21.2726 41.6011 20.9067 41.3062 20.6107C41.0112 20.3147 40.6453 20.1667 40.2085 20.1667C39.7717 20.1667 39.4058 20.3147 39.1108 20.6107C38.8159 20.9067 38.6679 21.2726 38.6668 21.7084C38.6658 22.1442 38.8138 22.5106 39.1108 22.8076C39.4079 23.1046 39.7737 23.2521 40.2085 23.25Z" fill="#F15A25"/>
</svg>
