<svg width="44" height="44" viewBox="0 0 44 44" fill="none" xmlns="http://www.w3.org/2000/svg">
<g clip-path="url(#clip0_723_3612)">
<path d="M43.9562 21.9133L38.9072 4.42116C38.7422 3.8251 38.1997 3.4126 37.5817 3.4126H5.98484C5.36197 3.4126 4.81678 3.83129 4.65522 4.43427L0.040717 21.0353C-0.044533 21.3578 -0.00263844 21.6802 0.126612 21.9607C0.0523616 22.2096 0.000154517 22.4688 0.000154517 22.7417V37.8371C0.000154517 39.3558 1.23147 40.5871 2.75015 40.5871H41.2502C42.7688 40.5871 44.0002 39.3558 44.0002 37.8371V22.7417C44.0002 22.6681 43.9843 22.5987 43.9788 22.5265C44.0146 22.3292 44.0139 22.1209 43.9562 21.9133ZM7.04269 6.16264L36.5351 6.1626L40.5364 19.9917H27.7172C27.6554 23.2923 25.3151 25.5639 21.9999 25.5639C18.6848 25.5639 16.3872 23.2917 16.3253 19.9917H3.1865L7.04269 6.16264ZM41.25 37.8371H2.75007V22.7417H14.056C15.2564 26.1977 18.1713 28.3139 22 28.3139C25.8287 28.3139 28.7863 26.1977 29.9867 22.7417H41.25V37.8371Z" fill="white"/>
</g>
<defs>
<clipPath id="clip0_723_3612">
<rect width="44" height="44" fill="white"/>
</clipPath>
</defs>
</svg>
